font.ufo
<glyph name="exclam" format="1">
	<unicode hex="0021"/>
	<advance width="282"/>
	<outline>
		<contour>
			<point x="102" y="196" type="line"/>
			<point x="156" y="196" type="line"/>
			<point x="242" y="579" type="line"/>
			<point x="261" y="671" type="line"/>
			<point x="184" y="671" type="line"/>
		</contour>
		<contour>
			<point x="91" y="-12" type="curve" smooth="yes"/>
			<point x="129" y="-12"/>
			<point x="156" y="23"/>
			<point x="156" y="57" type="curve" smooth="yes"/>
			<point x="156" y="86"/>
			<point x="140" y="108"/>
			<point x="110" y="108" type="curve" smooth="yes"/>
			<point x="72" y="108"/>
			<point x="43" y="72"/>
			<point x="43" y="38" type="curve" smooth="yes"/>
			<point x="43" y="9"/>
			<point x="62" y="-12"/>
		</contour>
	</outline>
</glyph>
<glyph name="numbersign" format="2">
	<unicode hex="0023"/>
	<advance width="480"/>
	<outline>
		<contour>
			<point x="37" y="0" type="line"/>
			<point x="92" y="0" type="line"/>
			<point x="156" y="204" type="line"/>
			<point x="278" y="204" type="line"/>
			<point x="213" y="0" type="line"/>
			<point x="268" y="0" type="line"/>
			<point x="332" y="204" type="line"/>
			<point x="416" y="204" type="line"/>
			<point x="430" y="262" type="line"/>
			<point x="350" y="262" type="line"/>
			<point x="396" y="408" type="line"/>
			<point x="477" y="408" type="line"/>
			<point x="491" y="466" type="line"/>
			<point x="413" y="466" type="line"/>
			<point x="471" y="650" type="line"/>
			<point x="416" y="650" type="line"/>
			<point x="358" y="466" type="line"/>
			<point x="237" y="466" type="line"/>
			<point x="296" y="650" type="line"/>
			<point x="240" y="650" type="line"/>
			<point x="182" y="466" type="line"/>
			<point x="98" y="466" type="line"/>
			<point x="84" y="408" type="line"/>
			<point x="165" y="408" type="line"/>
			<point x="118" y="262" type="line"/>
			<point x="37" y="262" type="line"/>
			<point x="23" y="204" type="line"/>
			<point x="102" y="204" type="line"/>
		</contour>
		<contour>
			<point x="173" y="262" type="line"/>
			<point x="219" y="408" type="line"/>
			<point x="342" y="408" type="line"/>
			<point x="295" y="262" type="line"/>
		</contour>
	</outline>
</glyph>
<glyph name="dollar" format="2">
	<unicode hex="0024"/>
	<advance width="480"/>
	<outline>
		<contour>
			<point x="206" y="-12" type="curve" smooth="yes"/>
			<point x="328" y="-12"/>
			<point x="409" y="71"/>
			<point x="409" y="180" type="curve" smooth="yes"/>
			<point x="409" y="351"/>
			<point x="196" y="363"/>
			<point x="196" y="485" type="curve" smooth="yes"/>
			<point x="196" y="544"/>
			<point x="241" y="586"/>
			<point x="305" y="586" type="curve" smooth="yes"/>
			<point x="350" y="586"/>
			<point x="390" y="556"/>
			<point x="418" y="518" type="curve"/>
			<point x="466" y="562" type="line"/>
			<point x="429" y="613"/>
			<point x="373" y="650"/>
			<point x="308" y="650" type="curve" smooth="yes"/>
			<point x="198" y="650"/>
			<point x="119" y="576"/>
			<point x="119" y="474" type="curve" smooth="yes"/>
			<point x="119" y="323"/>
			<point x="332" y="311"/>
			<point x="332" y="168" type="curve" smooth="yes"/>
			<point x="332" y="99"/>
			<point x="281" y="52"/>
			<point x="207" y="52" type="curve" smooth="yes"/>
			<point x="150" y="52"/>
			<point x="101" y="89"/>
			<point x="70" y="128" type="curve"/>
			<point x="23" y="82" type="line"/>
			<point x="64" y="32"/>
			<point x="131" y="-12"/>
		</contour>
		<contour>
			<point x="146" y="-110" type="line"/>
			<point x="202" y="-110" type="line"/>
			<point x="227" y="15" type="line"/>
			<point x="170" y="15" type="line"/>
		</contour>
		<contour>
			<point x="289" y="624" type="line"/>
			<point x="346" y="624" type="line"/>
			<point x="371" y="751" type="line"/>
			<point x="315" y="751" type="line"/>
		</contour>
	</outline>
</glyph>
<glyph name="ampersand" format="2">
	<unicode hex="0026"/>
	<advance width="583"/>
	<outline>
		<contour>
			<point x="180" y="-12" type="curve" smooth="yes"/>
			<point x="266" y="-12"/>
			<point x="341" y="27"/>
			<point x="404" y="89" type="curve" smooth="yes"/>
			<point x="478" y="162"/>
			<point x="535" y="255"/>
			<point x="581" y="353" type="curve"/>
			<point x="510" y="353" type="line"/>
			<point x="470" y="264"/>
			<point x="424" y="189"/>
			<point x="358" y="127" type="curve" smooth="yes"/>
			<point x="308" y="80"/>
			<point x="250" y="49"/>
			<point x="195" y="49" type="curve" smooth="yes"/>
			<point x="134" y="49"/>
			<point x="92" y="90"/>
			<point x="92" y="151" type="curve" smooth="yes"/>
			<point x="92" y="324"/>
			<point x="443" y="361"/>
			<point x="443" y="561" type="curve" smooth="yes"/>
			<point x="443" y="622"/>
			<point x="407" y="668"/>
			<point x="335" y="668" type="curve" smooth="yes"/>
			<point x="243" y="668"/>
			<point x="163" y="588"/>
			<point x="163" y="476" type="curve" smooth="yes"/>
			<point x="163" y="345"/>
			<point x="248" y="182"/>
			<point x="350" y="82" type="curve" smooth="yes"/>
			<point x="398" y="35"/>
			<point x="449" y="3"/>
			<point x="495" y="-12" type="curve"/>
			<point x="527" y="50" type="line"/>
			<point x="491" y="63"/>
			<point x="447" y="91"/>
			<point x="405" y="130" type="curve" smooth="yes"/>
			<point x="312" y="217"/>
			<point x="229" y="361"/>
			<point x="229" y="480" type="curve" smooth="yes"/>
			<point x="229" y="558"/>
			<point x="274" y="613"/>
			<point x="330" y="613" type="curve" smooth="yes"/>
			<point x="365" y="613"/>
			<point x="380" y="588"/>
			<point x="380" y="558" type="curve" smooth="yes"/>
			<point x="380" y="389"/>
			<point x="15" y="372"/>
			<point x="15" y="141" type="curve" smooth="yes"/>
			<point x="15" y="48"/>
			<point x="81" y="-12"/>
		</contour>
	</outline>
</glyph>
<glyph name="quotesingle" format="2">
	<unicode hex="0027"/>
	<advance width="242"/>
	<outline>
		<contour>
			<point x="128" y="426" type="line"/>
			<point x="180" y="426" type="line"/>
			<point x="222" y="579" type="line"/>
			<point x="241" y="671" type="line"/>
			<point x="166" y="671" type="line"/>
			<point x="151" y="579" type="line"/>
		</contour>
	</outline>
</glyph>
<glyph name="parenleft" format="2">
	<unicode hex="0028"/>
	<advance width="291"/>
	<outline>
		<contour>
			<point x="124" y="-178" type="curve"/>
			<point x="174" y="-158" type="line"/>
			<point x="145" y="-82"/>
			<point x="130" y="24"/>
			<point x="130" y="127" type="curve" smooth="yes"/>
			<point x="130" y="344"/>
			<point x="202" y="564"/>
			<point x="344" y="703" type="curve"/>
			<point x="298" y="731" type="line"/>
			<point x="150" y="589"/>
			<point x="65" y="376"/>
			<point x="65" y="129" type="curve" smooth="yes"/>
			<point x="65" y="15"/>
			<point x="90" y="-97"/>
		</contour>
	</outline>
</glyph>
<glyph name="parenright" format="2">
	<unicode hex="0029"/>
	<advance width="293"/>
	<outline>
		<contour>
			<point x="1" y="-178" type="line"/>
			<point x="149" y="-35"/>
			<point x="235" y="178"/>
			<point x="235" y="425" type="curve" smooth="yes"/>
			<point x="235" y="539"/>
			<point x="210" y="651"/>
			<point x="175" y="731" type="curve"/>
			<point x="125" y="712" type="line"/>
			<point x="154" y="636"/>
			<point x="169" y="529"/>
			<point x="169" y="427" type="curve" smooth="yes"/>
			<point x="169" y="209"/>
			<point x="97" y="-10"/>
			<point x="-44" y="-149" type="curve"/>
		</contour>
	</outline>
</glyph>
<glyph name="asterisk" format="2">
	<unicode hex="002A"/>
	<advance width="403"/>
	<outline>
		<contour>
			<point x="176" y="433" type="line"/>
			<point x="256" y="509" type="line"/>
			<point x="308" y="421" type="line"/>
			<point x="349" y="444" type="line"/>
			<point x="311" y="541" type="line"/>
			<point x="413" y="573" type="line"/>
			<point x="406" y="616" type="line"/>
			<point x="303" y="602" type="line"/>
			<point x="311" y="709" type="line"/>
			<point x="267" y="713" type="line"/>
			<point x="242" y="607" type="line"/>
			<point x="143" y="640" type="line"/>
			<point x="125" y="600" type="line"/>
			<point x="213" y="551" type="line"/>
			<point x="143" y="462" type="line"/>
		</contour>
	</outline>
</glyph>
<glyph name="plus" format="2">
	<unicode hex="002B"/>
	<advance width="480"/>
	<outline>
		<contour>
			<point x="222" y="103" type="line"/>
			<point x="283" y="103" type="line"/>
			<point x="283" y="302" type="line"/>
			<point x="458" y="302" type="line"/>
			<point x="458" y="360" type="line"/>
			<point x="284" y="360" type="line"/>
			<point x="284" y="554" type="line"/>
			<point x="223" y="554" type="line"/>
			<point x="223" y="360" type="line"/>
			<point x="48" y="360" type="line"/>
			<point x="48" y="302" type="line"/>
			<point x="222" y="302" type="line"/>
		</contour>
	</outline>
</glyph>
<glyph name="comma" format="2">
	<unicode hex="002C"/>
	<advance width="242"/>
	<outline>
		<contour>
			<point x="-20" y="-165" type="line"/>
			<point x="78" y="-137"/>
			<point x="145" y="-56"/>
			<point x="145" y="42" type="curve" smooth="yes"/>
			<point x="145" y="83"/>
			<point x="126" y="109"/>
			<point x="90" y="109" type="curve" smooth="yes"/>
			<point x="51" y="109"/>
			<point x="26" y="77"/>
			<point x="26" y="44" type="curve" smooth="yes"/>
			<point x="26" y="14"/>
			<point x="48" y="-4"/>
			<point x="78" y="-4" type="curve" smooth="yes"/>
			<point x="89" y="-4"/>
			<point x="104" y="1"/>
			<point x="113" y="10" type="curve"/>
			<point x="87" y="73" type="line"/>
			<point x="81" y="-2" type="line"/>
			<point x="72" y="-52"/>
			<point x="32" y="-94"/>
			<point x="-31" y="-118" type="curve"/>
		</contour>
	</outline>
</glyph>
<glyph name="slash" format="2">
	<unicode hex="002F"/>
	<advance width="340"/>
	<outline>
		<contour>
			<point x="-72" y="-160" type="line"/>
			<point x="-17" y="-160" type="line"/>
			<point x="418" y="710" type="line"/>
			<point x="362" y="710" type="line"/>
		</contour>
	</outline>
</glyph>
<glyph name="zero" format="2">
	<unicode hex="0030"/>
	<advance width="480"/>
	<outline>
		<contour>
			<point x="200" y="-12" type="curve" smooth="yes"/>
			<point x="342" y="-12"/>
			<point x="463" y="192"/>
			<point x="463" y="431" type="curve" smooth="yes"/>
			<point x="463" y="555"/>
			<point x="406" y="650"/>
			<point x="306" y="650" type="curve" smooth="yes"/>
			<point x="164" y="650"/>
			<point x="42" y="444"/>
			<point x="42" y="205" type="curve" smooth="yes"/>
			<point x="42" y="80"/>
			<point x="99" y="-12"/>
		</contour>
		<contour>
			<point x="204" y="50" type="curve" smooth="yes"/>
			<point x="143" y="50"/>
			<point x="115" y="114"/>
			<point x="115" y="202" type="curve" smooth="yes"/>
			<point x="115" y="382"/>
			<point x="198" y="588"/>
			<point x="301" y="588" type="curve" smooth="yes"/>
			<point x="362" y="588"/>
			<point x="391" y="523"/>
			<point x="391" y="434" type="curve" smooth="yes"/>
			<point x="391" y="253"/>
			<point x="307" y="50"/>
		</contour>
	</outline>
</glyph>
<glyph name="one" format="1">
	<unicode hex="0031"/>
	<advance width="480"/>
	<outline>
		<contour>
			<point x="26" y="0" type="line"/>
			<point x="372" y="0" type="line"/>
			<point x="384" y="64" type="line"/>
			<point x="254" y="64" type="line"/>
			<point x="370" y="638" type="line"/>
			<point x="311" y="638" type="line"/>
			<point x="274" y="615"/>
			<point x="228" y="600"/>
			<point x="171" y="592" type="curve"/>
			<point x="161" y="542" type="line"/>
			<point x="274" y="542" type="line"/>
			<point x="178" y="64" type="line"/>
			<point x="39" y="64" type="line"/>
		</contour>
	</outline>
</glyph>
<glyph name="two" format="2">
	<unicode hex="0032"/>
	<advance width="480"/>
	<outline>
		<contour>
			<point x="-10" y="0" type="line"/>
			<point x="385" y="0" type="line"/>
			<point x="397" y="66" type="line"/>
			<point x="219" y="66" type="line" smooth="yes"/>
			<point x="186" y="66"/>
			<point x="146" y="64"/>
			<point x="112" y="61" type="curve"/>
			<point x="333" y="250"/>
			<point x="452" y="351"/>
			<point x="452" y="493" type="curve" smooth="yes"/>
			<point x="452" y="584"/>
			<point x="391" y="650"/>
			<point x="282" y="650" type="curve" smooth="yes"/>
			<point x="218" y="650"/>
			<point x="164" y="622"/>
			<point x="105" y="568" type="curve"/>
			<point x="143" y="523" type="line"/>
			<point x="188" y="564"/>
			<point x="230" y="586"/>
			<point x="273" y="586" type="curve" smooth="yes"/>
			<point x="343" y="586"/>
			<point x="377" y="540"/>
			<point x="377" y="483" type="curve" smooth="yes"/>
			<point x="377" y="361"/>
			<point x="252" y="260"/>
			<point x="-2" y="49" type="curve"/>
		</contour>
	</outline>
</glyph>
<glyph name="three" format="1">
	<unicode hex="0033"/>
	<advance width="480"/>
	<outline>
		<contour>
			<point x="187" y="-12" type="curve" smooth="yes"/>
			<point x="321" y="-12"/>
			<point x="420" y="65"/>
			<point x="420" y="187" type="curve" smooth="yes"/>
			<point x="420" y="253"/>
			<point x="378" y="303"/>
			<point x="308" y="326" type="curve"/>
			<point x="308" y="330" type="line"/>
			<point x="407" y="358"/>
			<point x="457" y="423"/>
			<point x="457" y="504" type="curve" smooth="yes"/>
			<point x="457" y="592"/>
			<point x="397" y="650"/>
			<point x="290" y="650" type="curve" smooth="yes"/>
			<point x="229" y="650"/>
			<point x="168" y="628"/>
			<point x="114" y="587" type="curve"/>
			<point x="153" y="536" type="line"/>
			<point x="191" y="567"/>
			<point x="239" y="587"/>
			<point x="278" y="587" type="curve" smooth="yes"/>
			<point x="346" y="587"/>
			<point x="379" y="547"/>
			<point x="379" y="491" type="curve" smooth="yes"/>
			<point x="379" y="430"/>
			<point x="328" y="359"/>
			<point x="170" y="359" type="curve"/>
			<point x="158" y="301" type="line"/>
			<point x="293" y="301"/>
			<point x="343" y="252"/>
			<point x="343" y="184" type="curve" smooth="yes"/>
			<point x="343" y="108"/>
			<point x="279" y="52"/>
			<point x="188" y="52" type="curve" smooth="yes"/>
			<point x="122" y="52"/>
			<point x="73" y="93"/>
			<point x="42" y="138" type="curve"/>
			<point x="-9" y="98" type="line"/>
			<point x="31" y="38"/>
			<point x="100" y="-12"/>
		</contour>
	</outline>
</glyph>
<glyph name="four" format="2">
	<unicode hex="0034"/>
	<advance width="480"/>
	<outline>
		<contour>
			<point x="331" y="0" type="line"/>
			<point x="366" y="176" type="line"/>
			<point x="449" y="176" type="line"/>
			<point x="462" y="238" type="line"/>
			<point x="379" y="238" type="line"/>
			<point x="458" y="638" type="line"/>
			<point x="373" y="638" type="line"/>
			<point x="24" y="228" type="line"/>
			<point x="15" y="176" type="line"/>
			<point x="294" y="176" type="line"/>
			<point x="259" y="0" type="line"/>
		</contour>
		<contour>
			<point x="110" y="238" type="line"/>
			<point x="291" y="449" type="line" smooth="yes"/>
			<point x="318" y="481"/>
			<point x="344" y="516"/>
			<point x="370" y="554" type="curve"/>
			<point x="374" y="554" type="line"/>
			<point x="364" y="510"/>
			<point x="352" y="464"/>
			<point x="344" y="427" type="curve" smooth="yes"/>
			<point x="306" y="238" type="line"/>
		</contour>
	</outline>
</glyph>
<glyph name="five" format="1">
	<unicode hex="0035"/>
	<advance width="480"/>
	<outline>
		<contour>
			<point x="188" y="-12" type="curve" smooth="yes"/>
			<point x="314" y="-12"/>
			<point x="428" y="84"/>
			<point x="428" y="236" type="curve" smooth="yes"/>
			<point x="428" y="347"/>
			<point x="357" y="404"/>
			<point x="261" y="404" type="curve" smooth="yes"/>
			<point x="228" y="404"/>
			<point x="200" y="395"/>
			<point x="177" y="384" type="curve"/>
			<point x="229" y="572" type="line"/>
			<point x="462" y="572" type="line"/>
			<point x="475" y="638" type="line"/>
			<point x="176" y="638" type="line"/>
			<point x="96" y="337" type="line"/>
			<point x="129" y="311" type="line"/>
			<point x="171" y="334"/>
			<point x="195" y="344"/>
			<point x="236" y="344" type="curve" smooth="yes"/>
			<point x="305" y="344"/>
			<point x="351" y="304"/>
			<point x="351" y="222" type="curve" smooth="yes"/>
			<point x="351" y="119"/>
			<point x="276" y="52"/>
			<point x="193" y="52" type="curve" smooth="yes"/>
			<point x="118" y="52"/>
			<point x="79" y="93"/>
			<point x="50" y="137" type="curve"/>
			<point x="0" y="96" type="line"/>
			<point x="39" y="36"/>
			<point x="101" y="-12"/>
		</contour>
	</outline>
</glyph>
<glyph name="six" format="2">
	<unicode hex="0036"/>
	<advance width="480"/>
	<outline>
		<contour>
			<point x="228" y="-12" type="curve" smooth="yes"/>
			<point x="347" y="-12"/>
			<point x="437" y="95"/>
			<point x="437" y="220" type="curve" smooth="yes"/>
			<point x="437" y="324"/>
			<point x="376" y="386"/>
			<point x="282" y="386" type="curve" smooth="yes"/>
			<point x="236" y="386"/>
			<point x="172" y="360"/>
			<point x="128" y="307" type="curve"/>
			<point x="121" y="242" type="line"/>
			<point x="172" y="310"/>
			<point x="231" y="328"/>
			<point x="264" y="328" type="curve" smooth="yes"/>
			<point x="330" y="328"/>
			<point x="365" y="282"/>
			<point x="365" y="209" type="curve" smooth="yes"/>
			<point x="365" y="129"/>
			<point x="307" y="48"/>
			<point x="233" y="48" type="curve" smooth="yes"/>
			<point x="166" y="48"/>
			<point x="124" y="110"/>
			<point x="124" y="202" type="curve" smooth="yes"/>
			<point x="124" y="413"/>
			<point x="232" y="586"/>
			<point x="351" y="586" type="curve" smooth="yes"/>
			<point x="392" y="586"/>
			<point x="420" y="564"/>
			<point x="441" y="529" type="curve"/>
			<point x="489" y="569" type="line"/>
			<point x="462" y="615"/>
			<point x="421" y="650"/>
			<point x="356" y="650" type="curve" smooth="yes"/>
			<point x="185" y="650"/>
			<point x="51" y="448"/>
			<point x="51" y="204" type="curve" smooth="yes"/>
			<point x="51" y="78"/>
			<point x="119" y="-12"/>
		</contour>
	</outline>
</glyph>
<glyph name="seven" format="1">
	<unicode hex="0037"/>
	<advance width="480"/>
	<outline>
		<contour>
			<point x="120" y="0" type="curve"/>
			<point x="200" y="0" type="line"/>
			<point x="246" y="218"/>
			<point x="308" y="402"/>
			<point x="507" y="588" type="curve"/>
			<point x="517" y="638" type="line"/>
			<point x="119" y="638" type="line"/>
			<point x="105" y="572" type="line"/>
			<point x="415" y="572" type="line"/>
			<point x="252" y="411"/>
			<point x="177" y="239"/>
		</contour>
	</outline>
</glyph>
<glyph name="eight" format="1">
	<unicode hex="0038"/>
	<advance width="480"/>
	<outline>
		<contour>
			<point x="222" y="-12" type="curve" smooth="yes"/>
			<point x="337" y="-12"/>
			<point x="437" y="59"/>
			<point x="437" y="174" type="curve" smooth="yes"/>
			<point x="437" y="242"/>
			<point x="388" y="292"/>
			<point x="349" y="318" type="curve"/>
			<point x="349" y="322" type="line"/>
			<point x="422" y="363"/>
			<point x="474" y="418"/>
			<point x="474" y="503" type="curve" smooth="yes"/>
			<point x="474" y="602"/>
			<point x="396" y="650"/>
			<point x="314" y="650" type="curve" smooth="yes"/>
			<point x="213" y="650"/>
			<point x="125" y="585"/>
			<point x="125" y="476" type="curve" smooth="yes"/>
			<point x="125" y="424"/>
			<point x="146" y="387"/>
			<point x="183" y="350" type="curve"/>
			<point x="183" y="346" type="line"/>
			<point x="105" y="312"/>
			<point x="33" y="250"/>
			<point x="33" y="153" type="curve" smooth="yes"/>
			<point x="33" y="41"/>
			<point x="129" y="-12"/>
		</contour>
		<contour>
			<point x="309" y="345" type="curve"/>
			<point x="238" y="380"/>
			<point x="194" y="413"/>
			<point x="194" y="480" type="curve" smooth="yes"/>
			<point x="194" y="550"/>
			<point x="249" y="592"/>
			<point x="308" y="592" type="curve" smooth="yes"/>
			<point x="364" y="592"/>
			<point x="406" y="556"/>
			<point x="406" y="493" type="curve" smooth="yes"/>
			<point x="406" y="426"/>
			<point x="358" y="377"/>
		</contour>
		<contour>
			<point x="226" y="45" type="curve" smooth="yes"/>
			<point x="159" y="45"/>
			<point x="103" y="88"/>
			<point x="103" y="161" type="curve" smooth="yes"/>
			<point x="103" y="235"/>
			<point x="152" y="282"/>
			<point x="219" y="320" type="curve"/>
			<point x="297" y="278"/>
			<point x="366" y="244"/>
			<point x="366" y="170" type="curve" smooth="yes"/>
			<point x="366" y="90"/>
			<point x="297" y="45"/>
		</contour>
	</outline>
</glyph>
<glyph name="nine" format="2">
	<unicode hex="0039"/>
	<advance width="480"/>
	<outline>
		<contour>
			<point x="157" y="-12" type="curve" smooth="yes"/>
			<point x="328" y="-12"/>
			<point x="455" y="174"/>
			<point x="455" y="434" type="curve" smooth="yes"/>
			<point x="455" y="560"/>
			<point x="388" y="650"/>
			<point x="278" y="650" type="curve" smooth="yes"/>
			<point x="160" y="650"/>
			<point x="70" y="542"/>
			<point x="70" y="418" type="curve" smooth="yes"/>
			<point x="70" y="314"/>
			<point x="131" y="252"/>
			<point x="225" y="252" type="curve" smooth="yes"/>
			<point x="271" y="252"/>
			<point x="335" y="277"/>
			<point x="379" y="330" type="curve"/>
			<point x="386" y="396" type="line"/>
			<point x="334" y="327"/>
			<point x="276" y="309"/>
			<point x="243" y="309" type="curve" smooth="yes"/>
			<point x="177" y="309"/>
			<point x="142" y="355"/>
			<point x="142" y="429" type="curve" smooth="yes"/>
			<point x="142" y="509"/>
			<point x="200" y="589"/>
			<point x="274" y="589" type="curve" smooth="yes"/>
			<point x="341" y="589"/>
			<point x="383" y="527"/>
			<point x="383" y="436" type="curve" smooth="yes"/>
			<point x="383" y="208"/>
			<point x="282" y="52"/>
			<point x="162" y="52" type="curve" smooth="yes"/>
			<point x="119" y="52"/>
			<point x="90" y="73"/>
			<point x="68" y="111" type="curve"/>
			<point x="16" y="69" type="line"/>
			<point x="42" y="26"/>
			<point x="87" y="-12"/>
		</contour>
	</outline>
</glyph>
<glyph name="less" format="2">
	<unicode hex="003C"/>
	<advance width="480"/>
	<outline>
		<contour>
			<point x="458" y="134" type="line"/>
			<point x="458" y="201" type="line"/>
			<point x="255" y="280" type="line"/>
			<point x="130" y="329" type="line"/>
			<point x="130" y="333" type="line"/>
			<point x="255" y="381" type="line"/>
			<point x="458" y="460" type="line"/>
			<point x="458" y="526" type="line"/>
			<point x="46" y="360" type="line"/>
			<point x="46" y="301" type="line"/>
		</contour>
	</outline>
</glyph>
<glyph name="greater" format="2">
	<unicode hex="003E"/>
	<advance width="480"/>
	<outline>
		<contour>
			<point x="48" y="134" type="line"/>
			<point x="460" y="301" type="line"/>
			<point x="460" y="360" type="line"/>
			<point x="48" y="526" type="line"/>
			<point x="48" y="460" type="line"/>
			<point x="251" y="381" type="line"/>
			<point x="376" y="333" type="line"/>
			<point x="376" y="329" type="line"/>
			<point x="251" y="280" type="line"/>
			<point x="48" y="201" type="line"/>
		</contour>
	</outline>
</glyph>
<glyph name="question" format="2">
	<unicode hex="003F"/>
	<advance width="409"/>
	<outline>
		<contour>
			<point x="145" y="201" type="curve"/>
			<point x="212" y="196" type="line"/>
			<point x="225" y="347"/>
			<point x="418" y="382"/>
			<point x="418" y="544" type="curve" smooth="yes"/>
			<point x="418" y="630"/>
			<point x="359" y="682"/>
			<point x="266" y="682" type="curve" smooth="yes"/>
			<point x="206" y="682"/>
			<point x="150" y="653"/>
			<point x="111" y="613" type="curve"/>
			<point x="153" y="566" type="line"/>
			<point x="182" y="598"/>
			<point x="219" y="618"/>
			<point x="257" y="618" type="curve" smooth="yes"/>
			<point x="310" y="618"/>
			<point x="342" y="585"/>
			<point x="342" y="531" type="curve" smooth="yes"/>
			<point x="342" y="408"/>
			<point x="155" y="370"/>
		</contour>
		<contour>
			<point x="142" y="-12" type="curve" smooth="yes"/>
			<point x="180" y="-12"/>
			<point x="208" y="23"/>
			<point x="208" y="57" type="curve" smooth="yes"/>
			<point x="208" y="87"/>
			<point x="191" y="109"/>
			<point x="162" y="109" type="curve" smooth="yes"/>
			<point x="123" y="109"/>
			<point x="94" y="72"/>
			<point x="94" y="38" type="curve" smooth="yes"/>
			<point x="94" y="9"/>
			<point x="112" y="-12"/>
		</contour>
	</outline>
</glyph>
<glyph name="at" format="2">
	<unicode hex="0040"/>
	<advance width="815"/>
	<outline>
		<contour>
			<point x="353" y="-155" type="curve" smooth="yes"/>
			<point x="408" y="-155"/>
			<point x="464" y="-141"/>
			<point x="520" y="-111" type="curve"/>
			<point x="496" y="-64" type="line"/>
			<point x="455" y="-87"/>
			<point x="409" y="-98"/>
			<point x="359" y="-98" type="curve" smooth="yes"/>
			<point x="220" y="-98"/>
			<point x="107" y="-1"/>
			<point x="107" y="174" type="curve" smooth="yes"/>
			<point x="107" y="409"/>
			<point x="294" y="588"/>
			<point x="473" y="588" type="curve" smooth="yes"/>
			<point x="643" y="588"/>
			<point x="718" y="480"/>
			<point x="718" y="339" type="curve" smooth="yes"/>
			<point x="718" y="187"/>
			<point x="645" y="103"/>
			<point x="581" y="103" type="curve" smooth="yes"/>
			<point x="531" y="103"/>
			<point x="520" y="144"/>
			<point x="534" y="204" type="curve" smooth="yes"/>
			<point x="584" y="425" type="line"/>
			<point x="526" y="425" type="line"/>
			<point x="516" y="384" type="line"/>
			<point x="512" y="384" type="line"/>
			<point x="500" y="416"/>
			<point x="473" y="434"/>
			<point x="440" y="434" type="curve" smooth="yes"/>
			<point x="330" y="434"/>
			<point x="240" y="312"/>
			<point x="240" y="191" type="curve" smooth="yes"/>
			<point x="240" y="102"/>
			<point x="297" y="52"/>
			<point x="359" y="52" type="curve" smooth="yes"/>
			<point x="403" y="52"/>
			<point x="444" y="79"/>
			<point x="473" y="119" type="curve"/>
			<point x="476" y="119" type="line"/>
			<point x="485" y="72"/>
			<point x="520" y="44"/>
			<point x="567" y="44" type="curve" smooth="yes"/>
			<point x="677" y="44"/>
			<point x="781" y="151"/>
			<point x="781" y="348" type="curve" smooth="yes"/>
			<point x="781" y="520"/>
			<point x="672" y="645"/>
			<point x="479" y="645" type="curve" smooth="yes"/>
			<point x="254" y="645"/>
			<point x="41" y="438"/>
			<point x="41" y="163" type="curve" smooth="yes"/>
			<point x="41" y="-40"/>
			<point x="178" y="-155"/>
		</contour>
		<contour>
			<point x="373" y="112" type="curve" smooth="yes"/>
			<point x="337" y="112"/>
			<point x="309" y="141"/>
			<point x="309" y="198" type="curve" smooth="yes"/>
			<point x="309" y="274"/>
			<point x="365" y="374"/>
			<point x="440" y="374" type="curve" smooth="yes"/>
			<point x="462" y="374"/>
			<point x="481" y="363"/>
			<point x="497" y="332" type="curve"/>
			<point x="460" y="171" type="line"/>
			<point x="431" y="131"/>
			<point x="402" y="112"/>
		</contour>
	</outline>
</glyph>
<glyph name="A" format="1">
	<unicode hex="0041"/>
	<advance width="510"/>
	<outline>
		<contour>
			<point x="-53" y="0" type="line"/>
			<point x="33" y="0" type="line"/>
			<point x="227" y="377" type="line" smooth="yes"/>
			<point x="264" y="449"/>
			<point x="297" y="515"/>
			<point x="332" y="591" type="curve"/>
			<point x="336" y="591" type="line"/>
			<point x="341" y="516"/>
			<point x="348" y="446"/>
			<point x="354" y="377" type="curve" smooth="yes"/>
			<point x="388" y="0" type="line"/>
			<point x="469" y="0" type="line"/>
			<point x="393" y="656" type="line"/>
			<point x="303" y="656" type="line"/>
		</contour>
		<contour>
			<point x="106" y="205" type="line"/>
			<point x="396" y="205" type="line"/>
			<point x="410" y="265" type="line"/>
			<point x="122" y="265" type="line"/>
		</contour>
		<contour>
			<point name="aboveUC" x="345" y="682" type="move"/>
		</contour>
		<contour>
			<point name="belowLC" x="217" y="-22" type="move"/>
		</contour>
		<contour>
			<point name="ogonekUC" x="417" y="0" type="move"/>
		</contour>
	</outline>
</glyph>
<glyph name="B" format="2">
	<unicode hex="0042"/>
	<advance width="569"/>
	<outline>
		<contour>
			<point x="35" y="0" type="line"/>
			<point x="246" y="0" type="line" smooth="yes"/>
			<point x="401" y="0"/>
			<point x="518" y="64"/>
			<point x="518" y="210" type="curve" smooth="yes"/>
			<point x="518" y="285"/>
			<point x="466" y="327"/>
			<point x="398" y="343" type="curve"/>
			<point x="399" y="347" type="line"/>
			<point x="471" y="363"/>
			<point x="545" y="422"/>
			<point x="545" y="511" type="curve" smooth="yes"/>
			<point x="545" y="606"/>
			<point x="467" y="656"/>
			<point x="341" y="656" type="curve" smooth="yes"/>
			<point x="166" y="656" type="line"/>
		</contour>
		<contour>
			<point x="188" y="374" type="line"/>
			<point x="232" y="594" type="line"/>
			<point x="322" y="594" type="line" smooth="yes"/>
			<point x="421" y="594"/>
			<point x="465" y="559"/>
			<point x="465" y="500" type="curve" smooth="yes"/>
			<point x="465" y="426"/>
			<point x="406" y="374"/>
			<point x="282" y="374" type="curve" smooth="yes"/>
		</contour>
		<contour>
			<point x="125" y="62" type="line"/>
			<point x="177" y="317" type="line"/>
			<point x="292" y="317" type="line" smooth="yes"/>
			<point x="389" y="317"/>
			<point x="442" y="272"/>
			<point x="442" y="206" type="curve" smooth="yes"/>
			<point x="442" y="105"/>
			<point x="363" y="62"/>
			<point x="239" y="62" type="curve" smooth="yes"/>
		</contour>
	</outline>
	<anchor name="aboveUC" x="361" y="678"/>
	<anchor name="belowLC" x="257" y="-22"/>
</glyph>
<glyph name="C" format="2">
	<unicode hex="0043"/>
	<advance width="550"/>
	<outline>
		<contour>
			<point x="288" y="-12" type="curve" smooth="yes"/>
			<point x="370" y="-12"/>
			<point x="427" y="19"/>
			<point x="477" y="65" type="curve"/>
			<point x="444" y="112" type="line"/>
			<point x="404" y="78"/>
			<point x="357" y="55"/>
			<point x="301" y="55" type="curve" smooth="yes"/>
			<point x="186" y="55"/>
			<point x="137" y="141"/>
			<point x="137" y="260" type="curve" smooth="yes"/>
			<point x="137" y="418"/>
			<point x="236" y="601"/>
			<point x="389" y="601" type="curve" smooth="yes"/>
			<point x="444" y="601"/>
			<point x="484" y="578"/>
			<point x="510" y="533" type="curve"/>
			<point x="555" y="573" type="line"/>
			<point x="528" y="630"/>
			<point x="469" y="668"/>
			<point x="394" y="668" type="curve" smooth="yes"/>
			<point x="193" y="668"/>
			<point x="57" y="459"/>
			<point x="57" y="253" type="curve" smooth="yes"/>
			<point x="57" y="96"/>
			<point x="140" y="-12"/>
		</contour>
	</outline>
	<anchor name="aboverightUC" x="551" y="678"/>
	<anchor name="aboveUC" x="391" y="678"/>
	<anchor name="baseLC" x="267" y="0"/>
	<anchor name="belowLC" x="264" y="-22"/>
</glyph>
<glyph name="D" format="1">
	<unicode hex="0044"/>
	<advance width="592"/>
	<outline>
		<contour>
			<point x="35" y="0" type="line"/>
			<point x="211" y="0" type="line" smooth="yes"/>
			<point x="433" y="0"/>
			<point x="566" y="162"/>
			<point x="566" y="400" type="curve" smooth="yes"/>
			<point x="566" y="561"/>
			<point x="470" y="656"/>
			<point x="288" y="656" type="curve" smooth="yes"/>
			<point x="166" y="656" type="line"/>
		</contour>
		<contour>
			<point x="125" y="64" type="line"/>
			<point x="231" y="593" type="line"/>
			<point x="285" y="593" type="line" smooth="yes"/>
			<point x="417" y="593"/>
			<point x="487" y="519"/>
			<point x="487" y="395" type="curve" smooth="yes"/>
			<point x="487" y="200"/>
			<point x="381" y="64"/>
			<point x="211" y="64" type="curve" smooth="yes"/>
		</contour>
		<contour>
			<point name="aboveUC" x="365" y="682" type="move"/>
		</contour>
		<contour>
			<point name="belowLC" x="251" y="-22" type="move"/>
		</contour>
	</outline>
</glyph>
<glyph name="E" format="1">
	<unicode hex="0045"/>
	<advance width="503"/>
	<outline>
		<contour>
			<point x="35" y="0" type="line"/>
			<point x="405" y="0" type="line"/>
			<point x="419" y="66" type="line"/>
			<point x="125" y="66" type="line"/>
			<point x="176" y="312" type="line"/>
			<point x="415" y="312" type="line"/>
			<point x="429" y="378" type="line"/>
			<point x="188" y="378" type="line"/>
			<point x="230" y="591" type="line"/>
			<point x="515" y="591" type="line"/>
			<point x="528" y="656" type="line"/>
			<point x="166" y="656" type="line"/>
		</contour>
		<contour>
			<point name="aboveUC" x="354" y="678" type="move"/>
		</contour>
		<contour>
			<point name="belowLC" x="231" y="-22" type="move"/>
		</contour>
		<contour>
			<point name="ogonekUC" x="337" y="0" type="move"/>
		</contour>
	</outline>
</glyph>
<glyph name="F" format="2">
	<unicode hex="0046"/>
	<advance width="473"/>
	<outline>
		<contour>
			<point x="35" y="0" type="line"/>
			<point x="113" y="0" type="line"/>
			<point x="173" y="297" type="line"/>
			<point x="413" y="297" type="line"/>
			<point x="426" y="363" type="line"/>
			<point x="185" y="363" type="line"/>
			<point x="230" y="591" type="line"/>
			<point x="515" y="591" type="line"/>
			<point x="528" y="656" type="line"/>
			<point x="166" y="656" type="line"/>
		</contour>
	</outline>
	<anchor name="aboveUC" x="354" y="678"/>
	<anchor name="belowLC" x="82" y="-22"/>
</glyph>
<glyph name="G" format="2">
	<unicode hex="0047"/>
	<advance width="589"/>
	<outline>
		<contour>
			<point x="300" y="-12" type="curve" smooth="yes"/>
			<point x="375" y="-12"/>
			<point x="439" y="15"/>
			<point x="486" y="55" type="curve"/>
			<point x="543" y="339" type="line"/>
			<point x="337" y="339" type="line"/>
			<point x="324" y="274" type="line"/>
			<point x="459" y="274" type="line"/>
			<point x="423" y="95" type="line"/>
			<point x="397" y="72"/>
			<point x="359" y="55"/>
			<point x="312" y="55" type="curve" smooth="yes"/>
			<point x="186" y="55"/>
			<point x="137" y="144"/>
			<point x="137" y="260" type="curve" smooth="yes"/>
			<point x="137" y="419"/>
			<point x="238" y="600"/>
			<point x="398" y="600" type="curve" smooth="yes"/>
			<point x="455" y="600"/>
			<point x="496" y="574"/>
			<point x="523" y="530" type="curve"/>
			<point x="569" y="574" type="line"/>
			<point x="539" y="629"/>
			<point x="481" y="668"/>
			<point x="402" y="668" type="curve" smooth="yes"/>
			<point x="191" y="668"/>
			<point x="57" y="462"/>
			<point x="57" y="253" type="curve" smooth="yes"/>
			<point x="57" y="93"/>
			<point x="142" y="-12"/>
		</contour>
	</outline>
	<anchor name="aboveUC" x="397" y="678"/>
	<anchor name="belowLC" x="281" y="-22"/>
</glyph>
<glyph name="H" format="2">
	<unicode hex="0048"/>
	<advance width="623"/>
	<outline>
		<contour>
			<point x="35" y="0" type="line"/>
			<point x="113" y="0" type="line"/>
			<point x="175" y="311" type="line"/>
			<point x="471" y="311" type="line"/>
			<point x="408" y="0" type="line"/>
			<point x="487" y="0" type="line"/>
			<point x="618" y="656" type="line"/>
			<point x="539" y="656" type="line"/>
			<point x="484" y="380" type="line"/>
			<point x="188" y="380" type="line"/>
			<point x="245" y="656" type="line"/>
			<point x="166" y="656" type="line"/>
		</contour>
	</outline>
	<anchor name="aboveUC" x="385" y="678"/>
	<anchor name="belowLC" x="271" y="-22"/>
</glyph>
<glyph name="I" format="2">
	<unicode hex="0049"/>
	<advance width="249"/>
	<outline>
		<contour>
			<point x="35" y="0" type="line"/>
			<point x="113" y="0" type="line"/>
			<point x="245" y="656" type="line"/>
			<point x="166" y="656" type="line"/>
		</contour>
	</outline>
	<anchor name="aboveUC" x="209" y="678"/>
	<anchor name="belowLC" x="72" y="-22"/>
	<anchor name="ogonekUC" x="69" y="0"/>
</glyph>
<glyph name="J" format="2">
	<unicode hex="004A"/>
	<advance width="456"/>
	<outline>
		<contour>
			<point x="159" y="-12" type="curve" smooth="yes"/>
			<point x="273" y="-12"/>
			<point x="340" y="71"/>
			<point x="362" y="184" type="curve" smooth="yes"/>
			<point x="456" y="656" type="line"/>
			<point x="378" y="656" type="line"/>
			<point x="286" y="196" type="line" smooth="yes"/>
			<point x="269" y="108"/>
			<point x="227" y="55"/>
			<point x="160" y="55" type="curve" smooth="yes"/>
			<point x="104" y="55"/>
			<point x="68" y="81"/>
			<point x="47" y="129" type="curve"/>
			<point x="-1" y="92" type="line"/>
			<point x="26" y="26"/>
			<point x="80" y="-12"/>
		</contour>
	</outline>
	<anchor name="aboveUC" x="421" y="678"/>
	<anchor name="belowLC" x="152" y="-22"/>
</glyph>
<glyph name="K" format="2">
	<unicode hex="004B"/>
	<advance width="555"/>
	<outline>
		<contour>
			<point x="35" y="0" type="line"/>
			<point x="113" y="0" type="line"/>
			<point x="158" y="220" type="line"/>
			<point x="295" y="356" type="line"/>
			<point x="421" y="0" type="line"/>
			<point x="502" y="0" type="line"/>
			<point x="353" y="405" type="line"/>
			<point x="599" y="656" type="line"/>
			<point x="511" y="656" type="line"/>
			<point x="182" y="332" type="line"/>
			<point x="179" y="332" type="line"/>
			<point x="244" y="656" type="line"/>
			<point x="166" y="656" type="line"/>
		</contour>
	</outline>
	<anchor name="aboveUC" x="375" y="678"/>
	<anchor name="belowLC" x="275" y="-22"/>
</glyph>
<glyph name="L" format="2">
	<unicode hex="004C"/>
	<advance width="463"/>
	<outline>
		<contour>
			<point x="35" y="0" type="line"/>
			<point x="389" y="0" type="line"/>
			<point x="403" y="66" type="line"/>
			<point x="127" y="66" type="line"/>
			<point x="245" y="656" type="line"/>
			<point x="166" y="656" type="line"/>
		</contour>
	</outline>
	<anchor name="aboveUC" x="222" y="678"/>
	<anchor name="belowLC" x="220" y="-22"/>
</glyph>
<glyph name="M" format="2">
	<unicode hex="004D"/>
	<advance width="705"/>
	<outline>
		<contour>
			<point x="35" y="0" type="line"/>
			<point x="109" y="0" type="line"/>
			<point x="183" y="370" type="line" smooth="yes"/>
			<point x="194" y="429"/>
			<point x="203" y="509"/>
			<point x="209" y="569" type="curve"/>
			<point x="213" y="569" type="line"/>
			<point x="233" y="415" type="line"/>
			<point x="291" y="69" type="line"/>
			<point x="351" y="69" type="line"/>
			<point x="537" y="415" type="line"/>
			<point x="615" y="569" type="line"/>
			<point x="619" y="569" type="line"/>
			<point x="602" y="510"/>
			<point x="582" y="431"/>
			<point x="570" y="370" type="curve" smooth="yes"/>
			<point x="494" y="0" type="line"/>
			<point x="568" y="0" type="line"/>
			<point x="699" y="656" type="line"/>
			<point x="600" y="656" type="line"/>
			<point x="407" y="301" type="line" smooth="yes"/>
			<point x="382" y="256"/>
			<point x="362" y="212"/>
			<point x="341" y="166" type="curve"/>
			<point x="337" y="166" type="line"/>
			<point x="330" y="212"/>
			<point x="324" y="256"/>
			<point x="317" y="301" type="curve" smooth="yes"/>
			<point x="264" y="656" type="line"/>
			<point x="166" y="656" type="line"/>
		</contour>
	</outline>
	<anchor name="aboveUC" x="431" y="678"/>
	<anchor name="belowLC" x="307" y="-22"/>
</glyph>
<glyph name="N" format="2">
	<unicode hex="004E"/>
	<advance width="619"/>
	<outline>
		<contour>
			<point x="35" y="0" type="line"/>
			<point x="110" y="0" type="line"/>
			<point x="179" y="353" type="line" smooth="yes"/>
			<point x="193" y="420"/>
			<point x="203" y="492"/>
			<point x="211" y="560" type="curve"/>
			<point x="215" y="560" type="line"/>
			<point x="227" y="508"/>
			<point x="245" y="450"/>
			<point x="256" y="419" type="curve" smooth="yes"/>
			<point x="403" y="0" type="line"/>
			<point x="483" y="0" type="line"/>
			<point x="615" y="656" type="line"/>
			<point x="539" y="656" type="line"/>
			<point x="470" y="307" type="line"/>
			<point x="456" y="240"/>
			<point x="447" y="168"/>
			<point x="439" y="100" type="curve"/>
			<point x="435" y="100" type="line"/>
			<point x="424" y="146"/>
			<point x="406" y="207"/>
			<point x="395" y="238" type="curve" smooth="yes"/>
			<point x="248" y="656" type="line"/>
			<point x="166" y="656" type="line"/>
		</contour>
	</outline>
	<anchor name="aboveUC" x="404" y="678"/>
	<anchor name="belowLC" x="267" y="-22"/>
</glyph>
<glyph name="O" format="1">
	<unicode hex="004F"/>
	<advance width="633"/>
	<outline>
		<contour>
			<point x="287" y="-12" type="curve" smooth="yes"/>
			<point x="475" y="-12"/>
			<point x="606" y="193"/>
			<point x="606" y="394" type="curve" smooth="yes"/>
			<point x="606" y="559"/>
			<point x="526" y="668"/>
			<point x="379" y="668" type="curve" smooth="yes"/>
			<point x="191" y="668"/>
			<point x="60" y="463"/>
			<point x="60" y="263" type="curve" smooth="yes"/>
			<point x="60" y="97"/>
			<point x="140" y="-12"/>
		</contour>
		<contour>
			<point x="291" y="55" type="curve" smooth="yes"/>
			<point x="186" y="55"/>
			<point x="139" y="141"/>
			<point x="139" y="269" type="curve" smooth="yes"/>
			<point x="139" y="423"/>
			<point x="234" y="601"/>
			<point x="375" y="601" type="curve" smooth="yes"/>
			<point x="479" y="601"/>
			<point x="527" y="516"/>
			<point x="527" y="387" type="curve" smooth="yes"/>
			<point x="527" y="234"/>
			<point x="432" y="55"/>
		</contour>
		<contour>
			<point name="aboveUC" x="397" y="682" type="move"/>
		</contour>
		<contour>
			<point name="belowLC" x="271" y="-22" type="move"/>
		</contour>
		<contour>
			<point name="hornLC" x="511" y="648" type="move"/>
		</contour>
		<contour>
			<point name="ogonekUC" x="273" y="0" type="move"/>
		</contour>
	</outline>
</glyph>
<glyph name="P" format="2">
	<unicode hex="0050"/>
	<advance width="551"/>
	<outline>
		<contour>
			<point x="35" y="0" type="line"/>
			<point x="113" y="0" type="line"/>
			<point x="165" y="263" type="line"/>
			<point x="270" y="263" type="line" smooth="yes"/>
			<point x="438" y="263"/>
			<point x="557" y="335"/>
			<point x="557" y="496" type="curve" smooth="yes"/>
			<point x="557" y="610"/>
			<point x="475" y="656"/>
			<point x="351" y="656" type="curve" smooth="yes"/>
			<point x="166" y="656" type="line"/>
		</contour>
		<contour>
			<point x="179" y="327" type="line"/>
			<point x="231" y="593" type="line"/>
			<point x="332" y="593" type="line" smooth="yes"/>
			<point x="428" y="593"/>
			<point x="480" y="561"/>
			<point x="480" y="486" type="curve" smooth="yes"/>
			<point x="480" y="381"/>
			<point x="408" y="327"/>
			<point x="274" y="327" type="curve" smooth="yes"/>
		</contour>
	</outline>
	<anchor name="aboveUC" x="365" y="678"/>
	<anchor name="belowLC" x="79" y="-25"/>
</glyph>
<glyph name="Q" format="2">
	<unicode hex="0051"/>
	<advance width="634"/>
	<outline>
		<contour>
			<point x="287" y="-12" type="curve" smooth="yes"/>
			<point x="475" y="-12"/>
			<point x="606" y="193"/>
			<point x="606" y="394" type="curve" smooth="yes"/>
			<point x="606" y="559"/>
			<point x="526" y="668"/>
			<point x="379" y="668" type="curve" smooth="yes"/>
			<point x="191" y="668"/>
			<point x="60" y="463"/>
			<point x="60" y="263" type="curve" smooth="yes"/>
			<point x="60" y="97"/>
			<point x="140" y="-12"/>
		</contour>
		<contour>
			<point x="291" y="54" type="curve" smooth="yes"/>
			<point x="187" y="54"/>
			<point x="140" y="138"/>
			<point x="140" y="269" type="curve" smooth="yes"/>
			<point x="140" y="423"/>
			<point x="235" y="600"/>
			<point x="375" y="600" type="curve" smooth="yes"/>
			<point x="479" y="600"/>
			<point x="526" y="515"/>
			<point x="526" y="387" type="curve" smooth="yes"/>
			<point x="526" y="231"/>
			<point x="431" y="54"/>
		</contour>
		<contour>
			<point x="456" y="-162" type="curve" smooth="yes"/>
			<point x="484" y="-162"/>
			<point x="508" y="-158"/>
			<point x="528" y="-149" type="curve"/>
			<point x="514" y="-89" type="line"/>
			<point x="498" y="-94"/>
			<point x="483" y="-97"/>
			<point x="464" y="-97" type="curve" smooth="yes"/>
			<point x="385" y="-97"/>
			<point x="318" y="-62"/>
			<point x="303" y="12" type="curve"/>
			<point x="224" y="16" type="line"/>
			<point x="252" y="-106"/>
			<point x="341" y="-162"/>
		</contour>
	</outline>
	<anchor name="aboveUC" x="397" y="678"/>
</glyph>
<glyph name="R" format="2">
	<unicode hex="0052"/>
	<advance width="556"/>
	<outline>
		<contour>
			<point x="35" y="0" type="line"/>
			<point x="113" y="0" type="line"/>
			<point x="169" y="278" type="line"/>
			<point x="284" y="278" type="line" smooth="yes"/>
			<point x="430" y="278"/>
			<point x="551" y="356"/>
			<point x="551" y="503" type="curve" smooth="yes"/>
			<point x="551" y="613"/>
			<point x="469" y="656"/>
			<point x="346" y="656" type="curve" smooth="yes"/>
			<point x="166" y="656" type="line"/>
		</contour>
		<contour>
			<point x="182" y="341" type="line"/>
			<point x="231" y="593" type="line"/>
			<point x="327" y="593" type="line" smooth="yes"/>
			<point x="423" y="593"/>
			<point x="473" y="565"/>
			<point x="473" y="493" type="curve" smooth="yes"/>
			<point x="473" y="400"/>
			<point x="405" y="341"/>
			<point x="280" y="341" type="curve" smooth="yes"/>
		</contour>
		<contour>
			<point x="390" y="0" type="line"/>
			<point x="474" y="0" type="line"/>
			<point x="337" y="340" type="line"/>
			<point x="276" y="293" type="line"/>
		</contour>
	</outline>
	<anchor name="aboveUC" x="359" y="678"/>
	<anchor name="belowLC" x="265" y="-25"/>
</glyph>
<glyph name="S" format="2">
	<unicode hex="0053"/>
	<advance width="507"/>
	<outline>
		<contour>
			<point x="231" y="-12" type="curve" smooth="yes"/>
			<point x="365" y="-12"/>
			<point x="459" y="72"/>
			<point x="459" y="189" type="curve" smooth="yes"/>
			<point x="459" y="262"/>
			<point x="423" y="305"/>
			<point x="360" y="343" type="curve" smooth="yes"/>
			<point x="285" y="388" type="line" smooth="yes"/>
			<point x="236" y="417"/>
			<point x="200" y="444"/>
			<point x="200" y="495" type="curve" smooth="yes"/>
			<point x="200" y="548"/>
			<point x="244" y="600"/>
			<point x="318" y="600" type="curve" smooth="yes"/>
			<point x="379" y="600"/>
			<point x="426" y="570"/>
			<point x="460" y="529" type="curve"/>
			<point x="507" y="575" type="line"/>
			<point x="467" y="629"/>
			<point x="401" y="668"/>
			<point x="322" y="668" type="curve" smooth="yes"/>
			<point x="206" y="668"/>
			<point x="120" y="584"/>
			<point x="120" y="486" type="curve" smooth="yes"/>
			<point x="120" y="412"/>
			<point x="165" y="365"/>
			<point x="222" y="331" type="curve" smooth="yes"/>
			<point x="297" y="287" type="line" smooth="yes"/>
			<point x="347" y="257"/>
			<point x="378" y="226"/>
			<point x="378" y="176" type="curve" smooth="yes"/>
			<point x="378" y="103"/>
			<point x="318" y="56"/>
			<point x="240" y="56" type="curve" smooth="yes"/>
			<point x="164" y="56"/>
			<point x="105" y="90"/>
			<point x="65" y="147" type="curve"/>
			<point x="15" y="103" type="line"/>
			<point x="66" y="27"/>
			<point x="143" y="-12"/>
		</contour>
	</outline>
	<anchor name="aboveUC" x="342" y="685"/>
	<anchor name="baseLC" x="221" y="0"/>
	<anchor name="belowLC" x="217" y="-25"/>
</glyph>
<glyph name="T" format="1">
	<unicode hex="0054"/>
	<advance width="510"/>
	<outline>
		<contour>
			<point x="166" y="0" type="line"/>
			<point x="244" y="0" type="line"/>
			<point x="361" y="589" type="line"/>
			<point x="552" y="589" type="line"/>
			<point x="565" y="656" type="line"/>
			<point x="106" y="656" type="line"/>
			<point x="93" y="589" type="line"/>
			<point x="283" y="589" type="line"/>
		</contour>
		<contour>
			<point name="aboveUC" x="348" y="682" type="move"/>
		</contour>
		<contour>
			<point name="baseLC" x="215" y="0" type="move"/>
		</contour>
		<contour>
			<point name="belowLC" x="209" y="-22" type="move"/>
		</contour>
	</outline>
</glyph>
<glyph name="U" format="2">
	<unicode hex="0055"/>
	<advance width="616"/>
	<outline>
		<contour>
			<point x="286" y="-12" type="curve" smooth="yes"/>
			<point x="405" y="-12"/>
			<point x="493" y="52"/>
			<point x="533" y="251" type="curve" smooth="yes"/>
			<point x="614" y="656" type="line"/>
			<point x="537" y="656" type="line"/>
			<point x="457" y="254" type="line" smooth="yes"/>
			<point x="427" y="101"/>
			<point x="367" y="56"/>
			<point x="290" y="56" type="curve" smooth="yes"/>
			<point x="199" y="56"/>
			<point x="158" y="109"/>
			<point x="158" y="202" type="curve" smooth="yes"/>
			<point x="158" y="226"/>
			<point x="160" y="251"/>
			<point x="167" y="281" type="curve" smooth="yes"/>
			<point x="242" y="656" type="line"/>
			<point x="163" y="656" type="line"/>
			<point x="89" y="288" type="line" smooth="yes"/>
			<point x="83" y="255"/>
			<point x="79" y="223"/>
			<point x="79" y="196" type="curve" smooth="yes"/>
			<point x="79" y="59"/>
			<point x="153" y="-12"/>
		</contour>
	</outline>
	<anchor name="aboveUC" x="395" y="678"/>
	<anchor name="belowLC" x="259" y="-22"/>
	<anchor name="hornLC" x="589" y="666"/>
	<anchor name="ogonekUC" x="259" y="0"/>
</glyph>
<glyph name="V" format="2">
	<unicode hex="0056"/>
	<advance width="497"/>
	<outline>
		<contour>
			<point x="141" y="0" type="line"/>
			<point x="235" y="0" type="line"/>
			<point x="577" y="656" type="line"/>
			<point x="493" y="656" type="line"/>
			<point x="312" y="292" type="line" smooth="yes"/>
			<point x="277" y="223"/>
			<point x="242" y="147"/>
			<point x="208" y="76" type="curve"/>
			<point x="204" y="76" type="line"/>
			<point x="201" y="148"/>
			<point x="195" y="222"/>
			<point x="189" y="292" type="curve" smooth="yes"/>
			<point x="162" y="656" type="line"/>
			<point x="82" y="656" type="line"/>
		</contour>
	</outline>
	<anchor name="aboveUC" x="326" y="678"/>
	<anchor name="belowLC" x="182" y="-25"/>
</glyph>
<glyph name="W" format="2">
	<unicode hex="0057"/>
	<advance width="757"/>
	<outline>
		<contour>
			<point x="97" y="0" type="line"/>
			<point x="197" y="0" type="line"/>
			<point x="375" y="402" type="line" smooth="yes"/>
			<point x="397" y="454"/>
			<point x="416" y="505"/>
			<point x="435" y="556" type="curve"/>
			<point x="439" y="556" type="line"/>
			<point x="437" y="504"/>
			<point x="436" y="451"/>
			<point x="436" y="402" type="curve" smooth="yes"/>
			<point x="444" y="0" type="line"/>
			<point x="543" y="0" type="line"/>
			<point x="813" y="656" type="line"/>
			<point x="735" y="656" type="line"/>
			<point x="593" y="295" type="line" smooth="yes"/>
			<point x="565" y="225"/>
			<point x="537" y="153"/>
			<point x="510" y="80" type="curve"/>
			<point x="506" y="80" type="line"/>
			<point x="506" y="153"/>
			<point x="508" y="225"/>
			<point x="506" y="295" type="curve" smooth="yes"/>
			<point x="498" y="656" type="line"/>
			<point x="421" y="656" type="line"/>
			<point x="259" y="295" type="line" smooth="yes"/>
			<point x="229" y="225"/>
			<point x="199" y="153"/>
			<point x="168" y="80" type="curve"/>
			<point x="164" y="80" type="line"/>
			<point x="168" y="153"/>
			<point x="173" y="224"/>
			<point x="175" y="295" type="curve" smooth="yes"/>
			<point x="184" y="656" type="line"/>
			<point x="104" y="656" type="line"/>
		</contour>
	</outline>
	<anchor name="aboveUC" x="465" y="678"/>
	<anchor name="belowLC" x="321" y="-25"/>
</glyph>
<glyph name="X" format="1">
	<unicode hex="0058"/>
	<advance width="494"/>
	<outline>
		<contour>
			<point x="-36" y="0" type="line"/>
			<point x="47" y="0" type="line"/>
			<point x="175" y="180" type="line" smooth="yes"/>
			<point x="197" y="213"/>
			<point x="222" y="251"/>
			<point x="248" y="286" type="curve"/>
			<point x="251" y="286" type="line"/>
			<point x="261" y="251"/>
			<point x="272" y="217"/>
			<point x="282" y="184" type="curve" smooth="yes"/>
			<point x="342" y="0" type="line"/>
			<point x="426" y="0" type="line"/>
			<point x="309" y="334" type="line"/>
			<point x="546" y="656" type="line"/>
			<point x="464" y="656" type="line"/>
			<point x="344" y="485" type="line" smooth="yes"/>
			<point x="324" y="455"/>
			<point x="301" y="422"/>
			<point x="278" y="390" type="curve"/>
			<point x="275" y="390" type="line"/>
			<point x="264" y="424"/>
			<point x="257" y="452"/>
			<point x="248" y="482" type="curve" smooth="yes"/>
			<point x="192" y="656" type="line"/>
			<point x="108" y="656" type="line"/>
			<point x="216" y="340" type="line"/>
		</contour>
		<contour>
			<point name="aboveUC" x="326" y="682" type="move"/>
		</contour>
		<contour>
			<point name="belowLC" x="202" y="-25" type="move"/>
		</contour>
	</outline>
</glyph>
<glyph name="Y" format="2">
	<unicode hex="0059"/>
	<advance width="462"/>
	<outline>
		<contour>
			<point x="139" y="0" type="line"/>
			<point x="217" y="0" type="line"/>
			<point x="269" y="256" type="line"/>
			<point x="543" y="656" type="line"/>
			<point x="459" y="656" type="line"/>
			<point x="335" y="469" type="line" smooth="yes"/>
			<point x="304" y="420"/>
			<point x="275" y="373"/>
			<point x="244" y="324" type="curve"/>
			<point x="242" y="324" type="line"/>
			<point x="230" y="375"/>
			<point x="220" y="419"/>
			<point x="209" y="468" type="curve" smooth="yes"/>
			<point x="164" y="656" type="line"/>
			<point x="83" y="656" type="line"/>
			<point x="190" y="256" type="line"/>
		</contour>
	</outline>
	<anchor name="aboveUC" x="312" y="678"/>
	<anchor name="belowLC" x="176" y="-25"/>
</glyph>
<glyph name="Z" format="2">
	<unicode hex="005A"/>
	<advance width="512"/>
	<outline>
		<contour>
			<point x="-1" y="0" type="line"/>
			<point x="426" y="0" type="line"/>
			<point x="440" y="66" type="line"/>
			<point x="110" y="66" type="line"/>
			<point x="531" y="609" type="line"/>
			<point x="541" y="656" type="line"/>
			<point x="148" y="656" type="line"/>
			<point x="134" y="590" type="line"/>
			<point x="433" y="590" type="line"/>
			<point x="9" y="47" type="line"/>
		</contour>
	</outline>
	<anchor name="aboveUC" x="344" y="678"/>
	<anchor name="belowLC" x="224" y="-25"/>
</glyph>
<glyph name="bracketleft" format="2">
	<unicode hex="005B"/>
	<advance width="293"/>
	<outline>
		<contour>
			<point x="8" y="-152" type="line"/>
			<point x="178" y="-152" type="line"/>
			<point x="188" y="-107" type="line"/>
			<point x="77" y="-107" type="line"/>
			<point x="230" y="663" type="line"/>
			<point x="342" y="663" type="line"/>
			<point x="350" y="708" type="line"/>
			<point x="180" y="708" type="line"/>
		</contour>
	</outline>
</glyph>
<glyph name="bracketright" format="2">
	<unicode hex="005D"/>
	<advance width="293"/>
	<outline>
		<contour>
			<point x="-48" y="-152" type="line"/>
			<point x="122" y="-152" type="line"/>
			<point x="294" y="708" type="line"/>
			<point x="124" y="708" type="line"/>
			<point x="115" y="663" type="line"/>
			<point x="227" y="663" type="line"/>
			<point x="72" y="-107" type="line"/>
			<point x="-39" y="-107" type="line"/>
		</contour>
	</outline>
</glyph>
<glyph name="underscore" format="1">
	<unicode hex="005F"/>
	<advance width="483"/>
	<outline>
		<contour>
			<point x="-36" y="-124" type="line"/>
			<point x="422" y="-124" type="line"/>
			<point x="432" y="-74" type="line"/>
			<point x="-25" y="-74" type="line"/>
		</contour>
	</outline>
</glyph>
<glyph name="a" format="1">
	<unicode hex="0061"/>
	<advance width="537"/>
	<outline>
		<contour>
			<point x="179" y="-12" type="curve" smooth="yes"/>
			<point x="240" y="-12"/>
			<point x="301" y="22"/>
			<point x="348" y="72" type="curve"/>
			<point x="352" y="72" type="line"/>
			<point x="344" y="0" type="line"/>
			<point x="407" y="0" type="line"/>
			<point x="504" y="486" type="line"/>
			<point x="442" y="486" type="line"/>
			<point x="423" y="425" type="line"/>
			<point x="419" y="425" type="line"/>
			<point x="396" y="469"/>
			<point x="354" y="498"/>
			<point x="302" y="498" type="curve" smooth="yes"/>
			<point x="167" y="498"/>
			<point x="39" y="351"/>
			<point x="39" y="164" type="curve" smooth="yes"/>
			<point x="39" y="50"/>
			<point x="94" y="-12"/>
		</contour>
		<contour>
			<point x="207" y="52" type="curve" smooth="yes"/>
			<point x="153" y="52"/>
			<point x="118" y="92"/>
			<point x="118" y="176" type="curve" smooth="yes"/>
			<point x="118" y="310"/>
			<point x="208" y="434"/>
			<point x="305" y="434" type="curve" smooth="yes"/>
			<point x="342" y="434"/>
			<point x="376" y="413"/>
			<point x="404" y="362" type="curve"/>
			<point x="360" y="145" type="line"/>
			<point x="312" y="82"/>
			<point x="258" y="52"/>
		</contour>
		<contour>
			<point name="ogonekLC" x="346" y="0" type="move"/>
		</contour>
		<contour>
			<point name="aboveLC" x="314" y="509" type="move"/>
		</contour>
		<contour>
			<point name="belowLC" x="221" y="-22" type="move"/>
		</contour>
	</outline>
</glyph>
<glyph name="b" format="1">
	<unicode hex="0062"/>
	<advance width="536"/>
	<outline>
		<contour>
			<point x="234" y="-12" type="curve" smooth="yes"/>
			<point x="368" y="-12"/>
			<point x="496" y="135"/>
			<point x="496" y="322" type="curve" smooth="yes"/>
			<point x="496" y="436"/>
			<point x="441" y="498"/>
			<point x="356" y="498" type="curve" smooth="yes"/>
			<point x="296" y="498"/>
			<point x="239" y="465"/>
			<point x="191" y="426" type="curve"/>
			<point x="189" y="426" type="line"/>
			<point x="211" y="522" type="line"/>
			<point x="250" y="712" type="line"/>
			<point x="173" y="712" type="line"/>
			<point x="31" y="0" type="line"/>
			<point x="94" y="0" type="line"/>
			<point x="114" y="61" type="line"/>
			<point x="117" y="61" type="line"/>
			<point x="140" y="17"/>
			<point x="182" y="-12"/>
		</contour>
		<contour>
			<point x="231" y="52" type="curve" smooth="yes"/>
			<point x="193" y="52"/>
			<point x="159" y="73"/>
			<point x="132" y="124" type="curve"/>
			<point x="178" y="355" type="line"/>
			<point x="224" y="404"/>
			<point x="283" y="434"/>
			<point x="328" y="434" type="curve" smooth="yes"/>
			<point x="383" y="434"/>
			<point x="417" y="393"/>
			<point x="417" y="311" type="curve" smooth="yes"/>
			<point x="417" y="176"/>
			<point x="328" y="52"/>
		</contour>
		<contour>
			<point name="aboveUC" x="387" y="726" type="move"/>
		</contour>
		<contour>
			<point name="belowLC" x="224" y="-22" type="move"/>
		</contour>
	</outline>
</glyph>
<glyph name="c" format="2">
	<unicode hex="0063"/>
	<advance width="435"/>
	<outline>
		<contour>
			<point x="216" y="-12" type="curve" smooth="yes"/>
			<point x="284" y="-12"/>
			<point x="336" y="17"/>
			<point x="372" y="49" type="curve"/>
			<point x="339" y="93" type="line"/>
			<point x="312" y="72"/>
			<point x="271" y="52"/>
			<point x="230" y="52" type="curve" smooth="yes"/>
			<point x="154" y="52"/>
			<point x="115" y="100"/>
			<point x="115" y="188" type="curve" smooth="yes"/>
			<point x="115" y="321"/>
			<point x="207" y="435"/>
			<point x="303" y="435" type="curve" smooth="yes"/>
			<point x="343" y="435"/>
			<point x="368" y="422"/>
			<point x="391" y="396" type="curve"/>
			<point x="434" y="439" type="line"/>
			<point x="409" y="472"/>
			<point x="367" y="498"/>
			<point x="308" y="498" type="curve" smooth="yes"/>
			<point x="167" y="498"/>
			<point x="37" y="364"/>
			<point x="37" y="183" type="curve" smooth="yes"/>
			<point x="37" y="59"/>
			<point x="110" y="-12"/>
		</contour>
	</outline>
	<anchor name="aboveLC" x="300" y="509"/>
	<anchor name="aboverightLC" x="440" y="509"/>
	<anchor name="baseLC" x="204" y="0"/>
	<anchor name="belowLC" x="200" y="-22"/>
</glyph>
<glyph name="e" format="2">
	<unicode hex="0065"/>
	<advance width="481"/>
	<outline>
		<contour>
			<point x="232" y="-12" type="curve" smooth="yes"/>
			<point x="295" y="-12"/>
			<point x="346" y="11"/>
			<point x="385" y="41" type="curve"/>
			<point x="357" y="87" type="line"/>
			<point x="326" y="65"/>
			<point x="288" y="49"/>
			<point x="246" y="49" type="curve" smooth="yes"/>
			<point x="161" y="49"/>
			<point x="96" y="102"/>
			<point x="114" y="227" type="curve"/>
			<point x="430" y="227" type="line"/>
			<point x="437" y="245"/>
			<point x="447" y="283"/>
			<point x="447" y="322" type="curve" smooth="yes"/>
			<point x="447" y="422"/>
			<point x="406" y="498"/>
			<point x="297" y="498" type="curve" smooth="yes"/>
			<point x="170" y="498"/>
			<point x="37" y="374"/>
			<point x="37" y="191" type="curve" smooth="yes"/>
			<point x="37" y="61"/>
			<point x="113" y="-12"/>
		</contour>
		<contour>
			<point x="122" y="282" type="line"/>
			<point x="147" y="376"/>
			<point x="217" y="437"/>
			<point x="288" y="437" type="curve" smooth="yes"/>
			<point x="358" y="437"/>
			<point x="382" y="384"/>
			<point x="382" y="329" type="curve" smooth="yes"/>
			<point x="382" y="312"/>
			<point x="380" y="297"/>
			<point x="377" y="282" type="curve"/>
		</contour>
	</outline>
	<anchor name="aboveLC" x="307" y="509"/>
	<anchor name="baseLC" x="221" y="0"/>
	<anchor name="belowLC" x="214" y="-22"/>
	<anchor name="ogonekLC" x="284" y="0"/>
</glyph>
<glyph name="f" format="2">
	<unicode hex="0066"/>
	<advance width="282"/>
	<outline>
		<contour>
			<point x="43" y="0" type="line"/>
			<point x="119" y="0" type="line"/>
			<point x="204" y="424" type="line"/>
			<point x="303" y="424" type="line"/>
			<point x="315" y="486" type="line"/>
			<point x="217" y="486" type="line"/>
			<point x="234" y="569" type="line" smooth="yes"/>
			<point x="245" y="626"/>
			<point x="272" y="662"/>
			<point x="316" y="662" type="curve" smooth="yes"/>
			<point x="339" y="662"/>
			<point x="358" y="656"/>
			<point x="371" y="647" type="curve"/>
			<point x="397" y="700" type="line"/>
			<point x="375" y="714"/>
			<point x="346" y="724"/>
			<point x="311" y="724" type="curve" smooth="yes"/>
			<point x="229" y="724"/>
			<point x="177" y="665"/>
			<point x="157" y="567" type="curve" smooth="yes"/>
			<point x="141" y="486" type="line"/>
			<point x="76" y="481" type="line"/>
			<point x="65" y="424" type="line"/>
			<point x="128" y="424" type="line"/>
		</contour>
	</outline>
	<anchor name="aboveUC" x="298" y="728"/>
	<anchor name="belowLC" x="82" y="-22"/>
</glyph>
<glyph name="g" format="2">
	<unicode hex="0067"/>
	<advance width="531"/>
	<outline>
		<contour>
			<point x="171" y="-220" type="curve" smooth="yes"/>
			<point x="292" y="-220"/>
			<point x="370" y="-150"/>
			<point x="397" y="-23" type="curve" smooth="yes"/>
			<point x="499" y="486" type="line"/>
			<point x="435" y="486" type="line"/>
			<point x="416" y="425" type="line"/>
			<point x="413" y="425" type="line"/>
			<point x="390" y="469"/>
			<point x="347" y="498"/>
			<point x="296" y="498" type="curve" smooth="yes"/>
			<point x="165" y="498"/>
			<point x="39" y="354"/>
			<point x="39" y="176" type="curve" smooth="yes"/>
			<point x="39" y="63"/>
			<point x="98" y="5"/>
			<point x="180" y="5" type="curve" smooth="yes"/>
			<point x="242" y="5"/>
			<point x="298" y="36"/>
			<point x="349" y="87" type="curve"/>
			<point x="324" y="-17" type="line" smooth="yes"/>
			<point x="304" y="-102"/>
			<point x="256" y="-156"/>
			<point x="174" y="-156" type="curve" smooth="yes"/>
			<point x="122" y="-156"/>
			<point x="73" y="-135"/>
			<point x="37" y="-104" type="curve"/>
			<point x="2" y="-152" type="line"/>
			<point x="48" y="-198"/>
			<point x="109" y="-220"/>
		</contour>
		<contour>
			<point x="205" y="70" type="curve" smooth="yes"/>
			<point x="152" y="70"/>
			<point x="119" y="109"/>
			<point x="119" y="188" type="curve" smooth="yes"/>
			<point x="119" y="314"/>
			<point x="206" y="433"/>
			<point x="299" y="433" type="curve" smooth="yes"/>
			<point x="336" y="433"/>
			<point x="368" y="413"/>
			<point x="397" y="362" type="curve"/>
			<point x="355" y="155" type="line"/>
			<point x="309" y="99"/>
			<point x="251" y="70"/>
		</contour>
	</outline>
	<anchor name="aboveLC" x="310" y="509"/>
	<anchor name="belowLC" x="181" y="-213"/>
</glyph>
<glyph name="i" format="1">
	<unicode hex="0069"/>
	<advance width="237"/>
	<outline>
		<contour>
			<point x="31" y="0" type="line"/>
			<point x="107" y="0" type="line"/>
			<point x="205" y="486" type="line"/>
			<point x="128" y="486" type="line"/>
		</contour>
		<contour>
			<point x="193" y="587" type="curve" smooth="yes"/>
			<point x="224" y="587"/>
			<point x="251" y="611"/>
			<point x="251" y="644" type="curve" smooth="yes"/>
			<point x="251" y="673"/>
			<point x="228" y="690"/>
			<point x="202" y="690" type="curve" smooth="yes"/>
			<point x="171" y="690"/>
			<point x="144" y="665"/>
			<point x="144" y="632" type="curve" smooth="yes"/>
			<point x="144" y="603"/>
			<point x="167" y="587"/>
		</contour>
		<contour>
			<point name="ogonekLC" x="60" y="0" type="move"/>
		</contour>
		<contour>
			<point name="aboveLC" x="213" y="698" type="move"/>
		</contour>
		<contour>
			<point name="belowLC" x="75" y="-22" type="move"/>
		</contour>
	</outline>
</glyph>
<glyph name="k" format="2">
	<unicode hex="006B"/>
	<advance width="476"/>
	<outline>
		<contour>
			<point x="31" y="0" type="line"/>
			<point x="108" y="0" type="line"/>
			<point x="133" y="123" type="line"/>
			<point x="245" y="236" type="line"/>
			<point x="338" y="0" type="line"/>
			<point x="417" y="0" type="line"/>
			<point x="300" y="283" type="line"/>
			<point x="493" y="486" type="line"/>
			<point x="405" y="486" type="line"/>
			<point x="157" y="230" type="line"/>
			<point x="154" y="230" type="line"/>
			<point x="250" y="712" type="line"/>
			<point x="173" y="712" type="line"/>
		</contour>
	</outline>
	<anchor name="aboveUC" x="361" y="726"/>
	<anchor name="belowLC" x="220" y="-22"/>
</glyph>
<glyph name="l" format="2">
	<unicode hex="006C"/>
	<advance width="248"/>
	<outline>
		<contour>
			<point x="113" y="-12" type="curve" smooth="yes"/>
			<point x="132" y="-12"/>
			<point x="146" y="-8"/>
			<point x="160" y="-2" type="curve"/>
			<point x="154" y="54" type="line"/>
			<point x="146" y="52"/>
			<point x="144" y="52"/>
			<point x="140" y="52" type="curve" smooth="yes"/>
			<point x="130" y="52"/>
			<point x="124" y="58"/>
			<point x="124" y="68" type="curve" smooth="yes"/>
			<point x="124" y="74"/>
			<point x="124" y="79"/>
			<point x="126" y="90" type="curve" smooth="yes"/>
			<point x="250" y="712" type="line"/>
			<point x="173" y="712" type="line"/>
			<point x="50" y="93" type="line" smooth="yes"/>
			<point x="46" y="77"/>
			<point x="44" y="63"/>
			<point x="44" y="52" type="curve" smooth="yes"/>
			<point x="44" y="11"/>
			<point x="66" y="-12"/>
		</contour>
	</outline>
	<anchor name="aboveUC" x="214" y="726"/>
	<anchor name="belowLC" x="89" y="-22"/>
</glyph>
<glyph name="n" format="2">
	<unicode hex="006E"/>
	<advance width="526"/>
	<outline>
		<contour>
			<point x="31" y="0" type="line"/>
			<point x="108" y="0" type="line"/>
			<point x="176" y="344" type="line"/>
			<point x="237" y="404"/>
			<point x="284" y="431"/>
			<point x="322" y="431" type="curve" smooth="yes"/>
			<point x="372" y="431"/>
			<point x="394" y="406"/>
			<point x="394" y="357" type="curve" smooth="yes"/>
			<point x="394" y="340"/>
			<point x="391" y="326"/>
			<point x="386" y="300" type="curve" smooth="yes"/>
			<point x="325" y="0" type="line"/>
			<point x="403" y="0" type="line"/>
			<point x="465" y="310" type="line" smooth="yes"/>
			<point x="470" y="337"/>
			<point x="473" y="354"/>
			<point x="473" y="377" type="curve" smooth="yes"/>
			<point x="473" y="452"/>
			<point x="439" y="498"/>
			<point x="357" y="498" type="curve" smooth="yes"/>
			<point x="297" y="498"/>
			<point x="240" y="461"/>
			<point x="188" y="413" type="curve"/>
			<point x="184" y="413" type="line"/>
			<point x="192" y="486" type="line"/>
			<point x="128" y="486" type="line"/>
		</contour>
	</outline>
	<anchor name="aboveLC" x="327" y="509"/>
	<anchor name="belowLC" x="224" y="-22"/>
</glyph>
<glyph name="o" format="2">
	<unicode hex="006F"/>
	<advance width="514"/>
	<outline>
		<contour>
			<point x="212" y="-12" type="curve" smooth="yes"/>
			<point x="345" y="-12"/>
			<point x="475" y="119"/>
			<point x="475" y="303" type="curve" smooth="yes"/>
			<point x="475" y="424"/>
			<point x="406" y="498"/>
			<point x="301" y="498" type="curve" smooth="yes"/>
			<point x="168" y="498"/>
			<point x="39" y="367"/>
			<point x="39" y="183" type="curve" smooth="yes"/>
			<point x="39" y="62"/>
			<point x="107" y="-12"/>
		</contour>
		<contour>
			<point x="220" y="52" type="curve" smooth="yes"/>
			<point x="153" y="52"/>
			<point x="117" y="100"/>
			<point x="117" y="188" type="curve" smooth="yes"/>
			<point x="117" y="324"/>
			<point x="204" y="434"/>
			<point x="293" y="434" type="curve" smooth="yes"/>
			<point x="360" y="434"/>
			<point x="397" y="386"/>
			<point x="397" y="298" type="curve" smooth="yes"/>
			<point x="397" y="163"/>
			<point x="310" y="52"/>
		</contour>
	</outline>
	<anchor name="aboveLC" x="320" y="509"/>
	<anchor name="belowLC" x="194" y="-22"/>
	<anchor name="hornLC" x="401" y="486"/>
	<anchor name="ogonekLC" x="197" y="0"/>
</glyph>
<glyph name="p" format="2">
	<unicode hex="0070"/>
	<advance width="535"/>
	<outline>
		<contour>
			<point x="-10" y="-205" type="line"/>
			<point x="67" y="-205" type="line"/>
			<point x="97" y="-46" type="line"/>
			<point x="115" y="58" type="line"/>
			<point x="117" y="58" type="line"/>
			<point x="142" y="17"/>
			<point x="183" y="-12"/>
			<point x="234" y="-12" type="curve" smooth="yes"/>
			<point x="368" y="-12"/>
			<point x="496" y="135"/>
			<point x="496" y="322" type="curve" smooth="yes"/>
			<point x="496" y="435"/>
			<point x="442" y="498"/>
			<point x="356" y="498" type="curve" smooth="yes"/>
			<point x="296" y="498"/>
			<point x="238" y="463"/>
			<point x="189" y="422" type="curve"/>
			<point x="186" y="422" type="line"/>
			<point x="192" y="486" type="line"/>
			<point x="128" y="486" type="line"/>
		</contour>
		<contour>
			<point x="231" y="53" type="curve" smooth="yes"/>
			<point x="193" y="53"/>
			<point x="160" y="72"/>
			<point x="132" y="122" type="curve"/>
			<point x="179" y="354" type="line"/>
			<point x="224" y="404"/>
			<point x="283" y="433"/>
			<point x="328" y="433" type="curve" smooth="yes"/>
			<point x="382" y="433"/>
			<point x="417" y="393"/>
			<point x="417" y="311" type="curve" smooth="yes"/>
			<point x="417" y="176"/>
			<point x="328" y="53"/>
		</contour>
	</outline>
	<anchor name="aboveLC" x="334" y="509"/>
	<anchor name="belowLC" x="35" y="-211"/>
</glyph>
<glyph name="q" format="2">
	<unicode hex="0071"/>
	<advance width="534"/>
	<outline>
		<contour>
			<point x="289" y="-205" type="line"/>
			<point x="366" y="-205" type="line"/>
			<point x="505" y="486" type="line"/>
			<point x="442" y="486" type="line"/>
			<point x="423" y="425" type="line"/>
			<point x="419" y="425" type="line"/>
			<point x="396" y="469"/>
			<point x="354" y="498"/>
			<point x="302" y="498" type="curve" smooth="yes"/>
			<point x="167" y="498"/>
			<point x="39" y="351"/>
			<point x="39" y="164" type="curve" smooth="yes"/>
			<point x="39" y="50"/>
			<point x="94" y="-12"/>
			<point x="179" y="-12" type="curve" smooth="yes"/>
			<point x="240" y="-12"/>
			<point x="300" y="22"/>
			<point x="349" y="73" type="curve"/>
			<point x="351" y="73" type="line"/>
			<point x="321" y="-46" type="line"/>
		</contour>
		<contour>
			<point x="207" y="53" type="curve" smooth="yes"/>
			<point x="153" y="53"/>
			<point x="119" y="92"/>
			<point x="119" y="176" type="curve" smooth="yes"/>
			<point x="119" y="310"/>
			<point x="208" y="433"/>
			<point x="305" y="433" type="curve" smooth="yes"/>
			<point x="342" y="433"/>
			<point x="376" y="413"/>
			<point x="404" y="362" type="curve"/>
			<point x="359" y="145" type="line"/>
			<point x="311" y="82"/>
			<point x="258" y="53"/>
		</contour>
	</outline>
	<anchor name="aboveLC" x="322" y="509"/>
	<anchor name="belowLC" x="326" y="-211"/>
</glyph>
<glyph name="r" format="2">
	<unicode hex="0072"/>
	<advance width="342"/>
	<outline>
		<contour>
			<point x="31" y="0" type="line"/>
			<point x="108" y="0" type="line"/>
			<point x="168" y="306" type="line"/>
			<point x="210" y="386"/>
			<point x="263" y="428"/>
			<point x="312" y="428" type="curve" smooth="yes"/>
			<point x="329" y="428"/>
			<point x="343" y="427"/>
			<point x="354" y="422" type="curve"/>
			<point x="381" y="489" type="line"/>
			<point x="368" y="495"/>
			<point x="352" y="498"/>
			<point x="334" y="498" type="curve" smooth="yes"/>
			<point x="274" y="498"/>
			<point x="223" y="452"/>
			<point x="184" y="393" type="curve"/>
			<point x="180" y="393" type="line"/>
			<point x="192" y="486" type="line"/>
			<point x="128" y="486" type="line"/>
		</contour>
	</outline>
	<anchor name="aboveLC" x="256" y="509"/>
	<anchor name="belowLC" x="70" y="-22"/>
</glyph>
<glyph name="s" format="2">
	<unicode hex="0073"/>
	<advance width="402"/>
	<outline>
		<contour>
			<point x="163" y="-12" type="curve" smooth="yes"/>
			<point x="266" y="-12"/>
			<point x="345" y="47"/>
			<point x="345" y="138" type="curve" smooth="yes"/>
			<point x="345" y="196"/>
			<point x="313" y="232"/>
			<point x="231" y="276" type="curve" smooth="yes"/>
			<point x="182" y="303"/>
			<point x="145" y="326"/>
			<point x="145" y="364" type="curve" smooth="yes"/>
			<point x="145" y="403"/>
			<point x="181" y="438"/>
			<point x="232" y="438" type="curve" smooth="yes"/>
			<point x="275" y="438"/>
			<point x="312" y="420"/>
			<point x="339" y="390" type="curve"/>
			<point x="380" y="431" type="line"/>
			<point x="343" y="473"/>
			<point x="293" y="498"/>
			<point x="233" y="498" type="curve" smooth="yes"/>
			<point x="145" y="498"/>
			<point x="72" y="439"/>
			<point x="72" y="355" type="curve" smooth="yes"/>
			<point x="72" y="298"/>
			<point x="114" y="259"/>
			<point x="175" y="224" type="curve" smooth="yes"/>
			<point x="250" y="182"/>
			<point x="272" y="164"/>
			<point x="272" y="128" type="curve" smooth="yes"/>
			<point x="272" y="81"/>
			<point x="225" y="47"/>
			<point x="169" y="47" type="curve" smooth="yes"/>
			<point x="117" y="47"/>
			<point x="71" y="72"/>
			<point x="40" y="114" type="curve"/>
			<point x="-2" y="79" type="line"/>
			<point x="30" y="23"/>
			<point x="98" y="-12"/>
		</contour>
	</outline>
	<anchor name="aboveLC" x="257" y="509"/>
	<anchor name="baseLC" x="164" y="0"/>
	<anchor name="belowLC" x="160" y="-22"/>
</glyph>
<glyph name="t" format="1">
	<unicode hex="0074"/>
	<advance width="325"/>
	<outline>
		<contour>
			<point x="185" y="-12" type="curve" smooth="yes"/>
			<point x="223" y="-12"/>
			<point x="255" y="0"/>
			<point x="277" y="10" type="curve"/>
			<point x="260" y="65" type="line"/>
			<point x="245" y="58"/>
			<point x="228" y="50"/>
			<point x="209" y="50" type="curve" smooth="yes"/>
			<point x="163" y="50"/>
			<point x="147" y="70"/>
			<point x="147" y="110" type="curve" smooth="yes"/>
			<point x="147" y="123"/>
			<point x="148" y="134"/>
			<point x="150" y="146" type="curve" smooth="yes"/>
			<point x="207" y="424" type="line"/>
			<point x="332" y="424" type="line"/>
			<point x="344" y="486" type="line"/>
			<point x="221" y="486" type="line"/>
			<point x="252" y="640" type="line"/>
			<point x="187" y="640" type="line"/>
			<point x="147" y="486" type="line"/>
			<point x="71" y="481" type="line"/>
			<point x="60" y="424" type="line"/>
			<point x="131" y="424" type="line"/>
			<point x="74" y="150" type="line" smooth="yes"/>
			<point x="71" y="132"/>
			<point x="69" y="116"/>
			<point x="69" y="96" type="curve" smooth="yes"/>
			<point x="69" y="36"/>
			<point x="100" y="-12"/>
		</contour>
		<contour>
			<point name="aboveLC" x="222" y="645" type="move"/>
		</contour>
		<contour>
			<point name="baseLC" x="171" y="0" type="move"/>
		</contour>
		<contour>
			<point name="belowLC" x="161" y="-22" type="move"/>
		</contour>
	</outline>
</glyph>
<glyph name="u" format="1">
	<unicode hex="0075"/>
	<advance width="528"/>
	<outline>
		<contour>
			<point x="171" y="-12" type="curve" smooth="yes"/>
			<point x="230" y="-12"/>
			<point x="286" y="27"/>
			<point x="339" y="74" type="curve"/>
			<point x="343" y="74" type="line"/>
			<point x="335" y="0" type="line"/>
			<point x="398" y="0" type="line"/>
			<point x="495" y="486" type="line"/>
			<point x="419" y="486" type="line"/>
			<point x="350" y="142" type="line"/>
			<point x="291" y="81"/>
			<point x="244" y="54"/>
			<point x="206" y="54" type="curve" smooth="yes"/>
			<point x="156" y="54"/>
			<point x="134" y="80"/>
			<point x="134" y="129" type="curve" smooth="yes"/>
			<point x="134" y="146"/>
			<point x="137" y="160"/>
			<point x="142" y="186" type="curve" smooth="yes"/>
			<point x="203" y="486" type="line"/>
			<point x="126" y="486" type="line"/>
			<point x="64" y="176" type="line" smooth="yes"/>
			<point x="58" y="150"/>
			<point x="56" y="132"/>
			<point x="56" y="109" type="curve" smooth="yes"/>
			<point x="56" y="35"/>
			<point x="89" y="-12"/>
		</contour>
		<contour>
			<point name="aboveLC" x="314" y="509" type="move"/>
		</contour>
		<contour>
			<point name="baseLC" x="197" y="0" type="move"/>
		</contour>
		<contour>
			<point name="belowLC" x="227" y="-25" type="move"/>
		</contour>
		<contour>
			<point name="hornLC" x="459" y="496" type="move"/>
		</contour>
		<contour>
			<point name="ogonekLC" x="337" y="0" type="move"/>
		</contour>
	</outline>
</glyph>
<glyph name="v" format="2">
	<unicode hex="0076"/>
	<advance width="448"/>
	<outline>
		<contour>
			<point x="130" y="0" type="line"/>
			<point x="222" y="0" type="line"/>
			<point x="481" y="486" type="line"/>
			<point x="404" y="486" type="line"/>
			<point x="261" y="205" type="line" smooth="yes"/>
			<point x="236" y="157"/>
			<point x="212" y="108"/>
			<point x="189" y="60" type="curve"/>
			<point x="185" y="60" type="line"/>
			<point x="180" y="107"/>
			<point x="176" y="158"/>
			<point x="171" y="205" type="curve" smooth="yes"/>
			<point x="135" y="486" type="line"/>
			<point x="59" y="486" type="line"/>
		</contour>
	</outline>
	<anchor name="aboveLC" x="272" y="509"/>
	<anchor name="belowLC" x="178" y="-22"/>
</glyph>
<glyph name="w" format="2">
	<unicode hex="0077"/>
	<advance width="708"/>
	<outline>
		<contour>
			<point x="105" y="0" type="line"/>
			<point x="203" y="0" type="line"/>
			<point x="318" y="264" type="line" smooth="yes"/>
			<point x="339" y="312"/>
			<point x="356" y="361"/>
			<point x="376" y="417" type="curve"/>
			<point x="380" y="417" type="line"/>
			<point x="380" y="361"/>
			<point x="378" y="312"/>
			<point x="380" y="264" type="curve" smooth="yes"/>
			<point x="391" y="0" type="line"/>
			<point x="490" y="0" type="line"/>
			<point x="712" y="486" type="line"/>
			<point x="637" y="486" type="line"/>
			<point x="511" y="199" type="line" smooth="yes"/>
			<point x="492" y="156"/>
			<point x="474" y="108"/>
			<point x="455" y="62" type="curve"/>
			<point x="451" y="62" type="line"/>
			<point x="451" y="108"/>
			<point x="449" y="156"/>
			<point x="448" y="199" type="curve" smooth="yes"/>
			<point x="433" y="486" type="line"/>
			<point x="349" y="486" type="line"/>
			<point x="223" y="199" type="line" smooth="yes"/>
			<point x="205" y="156"/>
			<point x="187" y="108"/>
			<point x="169" y="62" type="curve"/>
			<point x="165" y="62" type="line"/>
			<point x="163" y="108"/>
			<point x="163" y="156"/>
			<point x="161" y="199" type="curve" smooth="yes"/>
			<point x="145" y="486" type="line"/>
			<point x="69" y="486" type="line"/>
		</contour>
	</outline>
	<anchor name="aboveLC" x="396" y="509"/>
	<anchor name="belowLC" x="299" y="-22"/>
</glyph>
<glyph name="x" format="2">
	<unicode hex="0078"/>
	<advance width="430"/>
	<outline>
		<contour>
			<point x="-44" y="0" type="line"/>
			<point x="41" y="0" type="line"/>
			<point x="135" y="115" type="line" smooth="yes"/>
			<point x="160" y="146"/>
			<point x="183" y="174"/>
			<point x="204" y="203" type="curve"/>
			<point x="208" y="203" type="line"/>
			<point x="220" y="174"/>
			<point x="232" y="143"/>
			<point x="242" y="114" type="curve" smooth="yes"/>
			<point x="286" y="0" type="line"/>
			<point x="366" y="0" type="line"/>
			<point x="267" y="241" type="line"/>
			<point x="467" y="486" type="line"/>
			<point x="383" y="486" type="line"/>
			<point x="299" y="378" type="line" smooth="yes"/>
			<point x="279" y="350"/>
			<point x="257" y="323"/>
			<point x="236" y="297" type="curve"/>
			<point x="232" y="297" type="line"/>
			<point x="222" y="325"/>
			<point x="214" y="349"/>
			<point x="204" y="378" type="curve" smooth="yes"/>
			<point x="162" y="486" type="line"/>
			<point x="83" y="486" type="line"/>
			<point x="174" y="258" type="line"/>
		</contour>
	</outline>
	<anchor name="aboveLC" x="274" y="511"/>
	<anchor name="belowLC" x="174" y="-22"/>
</glyph>
<glyph name="y" format="2">
	<unicode hex="0079"/>
	<advance width="449"/>
	<outline>
		<contour>
			<point x="-1" y="-209" type="curve" smooth="yes"/>
			<point x="86" y="-209"/>
			<point x="146" y="-148"/>
			<point x="205" y="-36" type="curve" smooth="yes"/>
			<point x="485" y="486" type="line"/>
			<point x="406" y="486" type="line"/>
			<point x="266" y="215" type="line"/>
			<point x="243" y="171"/>
			<point x="219" y="119"/>
			<point x="197" y="75" type="curve"/>
			<point x="193" y="75" type="line"/>
			<point x="188" y="118"/>
			<point x="184" y="171"/>
			<point x="177" y="215" type="curve" smooth="yes"/>
			<point x="138" y="486" type="line"/>
			<point x="59" y="486" type="line"/>
			<point x="143" y="-5" type="line"/>
			<point x="127" y="-37" type="line" smooth="yes"/>
			<point x="93" y="-103"/>
			<point x="49" y="-144"/>
			<point x="-1" y="-144" type="curve" smooth="yes"/>
			<point x="-15" y="-144"/>
			<point x="-27" y="-142"/>
			<point x="-38" y="-138" type="curve"/>
			<point x="-62" y="-195" type="line"/>
			<point x="-45" y="-205"/>
			<point x="-23" y="-209"/>
		</contour>
	</outline>
	<anchor name="aboveLC" x="272" y="509"/>
	<anchor name="belowLC" x="104" y="-226"/>
</glyph>
<glyph name="z" format="2">
	<unicode hex="007A"/>
	<advance width="410"/>
	<outline>
		<contour>
			<point x="-10" y="0" type="line"/>
			<point x="341" y="0" type="line"/>
			<point x="353" y="62" type="line"/>
			<point x="99" y="62" type="line"/>
			<point x="422" y="441" type="line"/>
			<point x="430" y="486" type="line"/>
			<point x="113" y="486" type="line"/>
			<point x="100" y="424" type="line"/>
			<point x="321" y="424" type="line"/>
			<point x="-2" y="44" type="line"/>
		</contour>
	</outline>
	<anchor name="aboveLC" x="275" y="509"/>
	<anchor name="belowLC" x="171" y="-22"/>
	<anchor name="center" x="211" y="244"/>
</glyph>
<glyph name="braceleft" format="2">
	<unicode hex="007B"/>
	<advance width="290"/>
	<outline>
		<contour>
			<point x="135" y="-152" type="curve" smooth="yes"/>
			<point x="179" y="-152" type="line"/>
			<point x="189" y="-107" type="line"/>
			<point x="165" y="-107" type="line" smooth="yes"/>
			<point x="122" y="-107"/>
			<point x="110" y="-91"/>
			<point x="110" y="-57" type="curve" smooth="yes"/>
			<point x="110" y="6"/>
			<point x="163" y="143"/>
			<point x="163" y="212" type="curve" smooth="yes"/>
			<point x="163" y="241"/>
			<point x="153" y="262"/>
			<point x="118" y="273" type="curve"/>
			<point x="118" y="277" type="line"/>
			<point x="165" y="289"/>
			<point x="189" y="324"/>
			<point x="202" y="390" type="curve" smooth="yes"/>
			<point x="214" y="452"/>
			<point x="221" y="513"/>
			<point x="232" y="570" type="curve" smooth="yes"/>
			<point x="245" y="635"/>
			<point x="263" y="663"/>
			<point x="316" y="663" type="curve" smooth="yes"/>
			<point x="342" y="663" type="line"/>
			<point x="352" y="708" type="line"/>
			<point x="306" y="708" type="line" smooth="yes"/>
			<point x="227" y="708"/>
			<point x="191" y="678"/>
			<point x="170" y="575" type="curve" smooth="yes"/>
			<point x="156" y="506"/>
			<point x="153" y="446"/>
			<point x="141" y="382" type="curve" smooth="yes"/>
			<point x="133" y="345"/>
			<point x="111" y="303"/>
			<point x="43" y="303" type="curve"/>
			<point x="32" y="253" type="line"/>
			<point x="89" y="253"/>
			<point x="102" y="225"/>
			<point x="102" y="199" type="curve" smooth="yes"/>
			<point x="102" y="140"/>
			<point x="45" y="2"/>
			<point x="45" y="-72" type="curve" smooth="yes"/>
			<point x="45" y="-126"/>
			<point x="72" y="-152"/>
		</contour>
	</outline>
</glyph>
<glyph name="bar" format="2">
	<unicode hex="007C"/>
	<advance width="231"/>
	<outline>
		<contour>
			<point x="95" y="-250" type="line"/>
			<point x="148" y="-250" type="line"/>
			<point x="148" y="750" type="line"/>
			<point x="95" y="750" type="line"/>
		</contour>
	</outline>
</glyph>
<glyph name="braceright" format="2">
	<unicode hex="007D"/>
	<advance width="293"/>
	<outline>
		<contour>
			<point x="-52" y="-152" type="line"/>
			<point x="-6" y="-152" type="line" smooth="yes"/>
			<point x="73" y="-152"/>
			<point x="109" y="-122"/>
			<point x="130" y="-19" type="curve" smooth="yes"/>
			<point x="144" y="50"/>
			<point x="147" y="110"/>
			<point x="159" y="174" type="curve" smooth="yes"/>
			<point x="167" y="211"/>
			<point x="189" y="253"/>
			<point x="257" y="253" type="curve"/>
			<point x="268" y="303" type="line"/>
			<point x="211" y="303"/>
			<point x="198" y="331"/>
			<point x="198" y="358" type="curve" smooth="yes"/>
			<point x="198" y="416"/>
			<point x="255" y="554"/>
			<point x="255" y="628" type="curve" smooth="yes"/>
			<point x="255" y="682"/>
			<point x="228" y="708"/>
			<point x="165" y="708" type="curve" smooth="yes"/>
			<point x="120" y="708" type="line"/>
			<point x="111" y="663" type="line"/>
			<point x="135" y="663" type="line" smooth="yes"/>
			<point x="177" y="663"/>
			<point x="189" y="647"/>
			<point x="189" y="613" type="curve" smooth="yes"/>
			<point x="189" y="550"/>
			<point x="136" y="413"/>
			<point x="136" y="344" type="curve" smooth="yes"/>
			<point x="136" y="315"/>
			<point x="146" y="294"/>
			<point x="181" y="283" type="curve"/>
			<point x="181" y="279" type="line"/>
			<point x="134" y="267"/>
			<point x="111" y="232"/>
			<point x="97" y="166" type="curve" smooth="yes"/>
			<point x="86" y="104"/>
			<point x="78" y="43"/>
			<point x="67" y="-14" type="curve" smooth="yes"/>
			<point x="55" y="-78"/>
			<point x="36" y="-107"/>
			<point x="-17" y="-107" type="curve" smooth="yes"/>
			<point x="-43" y="-107" type="line"/>
		</contour>
	</outline>
</glyph>
<glyph name="asciitilde" format="2">
	<unicode hex="007E"/>
	<advance width="480"/>
	<outline>
		<contour>
			<point x="332" y="260" type="curve" smooth="yes"/>
			<point x="373" y="260"/>
			<point x="418" y="287"/>
			<point x="452" y="349" type="curve"/>
			<point x="408" y="377" type="line"/>
			<point x="386" y="335"/>
			<point x="363" y="317"/>
			<point x="334" y="317" type="curve" smooth="yes"/>
			<point x="281" y="317"/>
			<point x="238" y="402"/>
			<point x="164" y="402" type="curve" smooth="yes"/>
			<point x="123" y="402"/>
			<point x="78" y="375"/>
			<point x="45" y="313" type="curve"/>
			<point x="88" y="285" type="line"/>
			<point x="110" y="327"/>
			<point x="133" y="345"/>
			<point x="162" y="345" type="curve" smooth="yes"/>
			<point x="215" y="345"/>
			<point x="259" y="260"/>
		</contour>
	</outline>
</glyph>
<glyph name="exclamdown" format="2">
	<unicode hex="00A1"/>
	<advance width="282"/>
	<outline>
		<contour>
			<point x="21" y="-185" type="line"/>
			<point x="98" y="-185" type="line"/>
			<point x="180" y="290" type="line"/>
			<point x="126" y="290" type="line"/>
			<point x="40" y="-93" type="line"/>
		</contour>
		<contour>
			<point x="172" y="377" type="curve" smooth="yes"/>
			<point x="210" y="377"/>
			<point x="239" y="414"/>
			<point x="239" y="448" type="curve" smooth="yes"/>
			<point x="239" y="477"/>
			<point x="221" y="498"/>
			<point x="192" y="498" type="curve" smooth="yes"/>
			<point x="153" y="498"/>
			<point x="126" y="464"/>
			<point x="126" y="429" type="curve" smooth="yes"/>
			<point x="126" y="400"/>
			<point x="142" y="377"/>
		</contour>
	</outline>
</glyph>
<glyph name="cent" format="2">
	<unicode hex="00A2"/>
	<advance width="480"/>
	<outline>
		<contour>
			<point x="256" y="90" type="curve" smooth="yes"/>
			<point x="326" y="90"/>
			<point x="376" y="116"/>
			<point x="422" y="146" type="curve"/>
			<point x="395" y="196" type="line"/>
			<point x="361" y="173"/>
			<point x="321" y="154"/>
			<point x="272" y="154" type="curve" smooth="yes"/>
			<point x="195" y="154"/>
			<point x="155" y="211"/>
			<point x="155" y="300" type="curve" smooth="yes"/>
			<point x="155" y="422"/>
			<point x="246" y="505"/>
			<point x="333" y="505" type="curve" smooth="yes"/>
			<point x="380" y="505"/>
			<point x="406" y="487"/>
			<point x="432" y="459" type="curve"/>
			<point x="478" y="501" type="line"/>
			<point x="448" y="538"/>
			<point x="406" y="569"/>
			<point x="341" y="569" type="curve" smooth="yes"/>
			<point x="217" y="569"/>
			<point x="78" y="463"/>
			<point x="78" y="287" type="curve" smooth="yes"/>
			<point x="78" y="161"/>
			<point x="148" y="90"/>
		</contour>
		<contour>
			<point x="203" y="-14" type="line"/>
			<point x="253" y="-14" type="line"/>
			<point x="389" y="670" type="line"/>
			<point x="339" y="670" type="line"/>
		</contour>
	</outline>
</glyph>
<glyph name="sterling" format="2">
	<unicode hex="00A3"/>
	<advance width="480"/>
	<outline>
		<contour>
			<point x="4" y="0" type="line"/>
			<point x="387" y="0" type="line"/>
			<point x="398" y="66" type="line"/>
			<point x="140" y="66" type="line"/>
			<point x="140" y="70" type="line"/>
			<point x="200" y="127"/>
			<point x="228" y="191"/>
			<point x="228" y="282" type="curve" smooth="yes"/>
			<point x="228" y="328"/>
			<point x="219" y="382"/>
			<point x="219" y="424" type="curve" smooth="yes"/>
			<point x="219" y="525"/>
			<point x="274" y="586"/>
			<point x="347" y="586" type="curve" smooth="yes"/>
			<point x="390" y="586"/>
			<point x="421" y="562"/>
			<point x="442" y="526" type="curve"/>
			<point x="490" y="566" type="line"/>
			<point x="464" y="614"/>
			<point x="414" y="650"/>
			<point x="351" y="650" type="curve" smooth="yes"/>
			<point x="232" y="650"/>
			<point x="146" y="565"/>
			<point x="146" y="429" type="curve" smooth="yes"/>
			<point x="146" y="382"/>
			<point x="157" y="318"/>
			<point x="157" y="272" type="curve" smooth="yes"/>
			<point x="157" y="176"/>
			<point x="108" y="93"/>
			<point x="13" y="47" type="curve"/>
		</contour>
		<contour>
			<point x="61" y="283" type="line"/>
			<point x="369" y="283" type="line"/>
			<point x="381" y="342" type="line"/>
			<point x="156" y="342" type="line"/>
			<point x="72" y="337" type="line"/>
		</contour>
	</outline>
</glyph>
<glyph name="currency" format="2">
	<unicode hex="00A4"/>
	<advance width="480"/>
	<outline>
		<contour>
			<point x="46" y="115" type="line"/>
			<point x="118" y="177" type="line"/>
			<point x="143" y="152"/>
			<point x="177" y="139"/>
			<point x="218" y="139" type="curve" smooth="yes"/>
			<point x="260" y="139"/>
			<point x="302" y="154"/>
			<point x="337" y="181" type="curve"/>
			<point x="391" y="112" type="line"/>
			<point x="435" y="149" type="line"/>
			<point x="382" y="217" type="line"/>
			<point x="416" y="256"/>
			<point x="438" y="309"/>
			<point x="438" y="368" type="curve" smooth="yes"/>
			<point x="438" y="397"/>
			<point x="433" y="423"/>
			<point x="423" y="444" type="curve"/>
			<point x="495" y="507" type="line"/>
			<point x="460" y="549" type="line"/>
			<point x="387" y="486" type="line"/>
			<point x="362" y="510"/>
			<point x="328" y="523"/>
			<point x="287" y="523" type="curve" smooth="yes"/>
			<point x="246" y="523"/>
			<point x="207" y="509"/>
			<point x="173" y="485" type="curve"/>
			<point x="124" y="548" type="line"/>
			<point x="80" y="511" type="line"/>
			<point x="127" y="450" type="line"/>
			<point x="90" y="410"/>
			<point x="67" y="355"/>
			<point x="67" y="295" type="curve" smooth="yes"/>
			<point x="67" y="265"/>
			<point x="72" y="240"/>
			<point x="82" y="219" type="curve"/>
			<point x="11" y="157" type="line"/>
		</contour>
		<contour>
			<point x="226" y="197" type="curve" smooth="yes"/>
			<point x="171" y="197"/>
			<point x="139" y="235"/>
			<point x="139" y="303" type="curve" smooth="yes"/>
			<point x="139" y="395"/>
			<point x="210" y="465"/>
			<point x="279" y="465" type="curve" smooth="yes"/>
			<point x="335" y="465"/>
			<point x="366" y="428"/>
			<point x="366" y="360" type="curve" smooth="yes"/>
			<point x="366" y="267"/>
			<point x="295" y="197"/>
		</contour>
	</outline>
</glyph>
<glyph name="yen" format="2">
	<unicode hex="00A5"/>
	<advance width="480"/>
	<outline>
		<contour>
			<point x="152" y="0" type="line"/>
			<point x="228" y="0" type="line"/>
			<point x="258" y="152" type="line"/>
			<point x="413" y="152" type="line"/>
			<point x="423" y="200" type="line"/>
			<point x="269" y="200" type="line"/>
			<point x="282" y="272" type="line"/>
			<point x="437" y="272" type="line"/>
			<point x="448" y="320" type="line"/>
			<point x="315" y="320" type="line"/>
			<point x="529" y="638" type="line"/>
			<point x="450" y="638" type="line"/>
			<point x="342" y="463" type="line"/>
			<point x="313" y="419"/>
			<point x="286" y="373"/>
			<point x="256" y="324" type="curve"/>
			<point x="253" y="324" type="line"/>
			<point x="242" y="373"/>
			<point x="234" y="418"/>
			<point x="223" y="463" type="curve" smooth="yes"/>
			<point x="183" y="638" type="line"/>
			<point x="104" y="638" type="line"/>
			<point x="193" y="320" type="line"/>
			<point x="61" y="320" type="line"/>
			<point x="50" y="272" type="line"/>
			<point x="206" y="272" type="line"/>
			<point x="192" y="200" type="line"/>
			<point x="36" y="200" type="line"/>
			<point x="26" y="152" type="line"/>
			<point x="182" y="152" type="line"/>
		</contour>
	</outline>
</glyph>
<glyph name="copyright" format="2">
	<unicode hex="00A9"/>
	<advance width="665"/>
	<outline>
		<contour>
			<point x="298" y="-11" type="curve" smooth="yes"/>
			<point x="515" y="-11"/>
			<point x="661" y="180"/>
			<point x="661" y="377" type="curve" smooth="yes"/>
			<point x="661" y="539"/>
			<point x="553" y="653"/>
			<point x="398" y="653" type="curve" smooth="yes"/>
			<point x="181" y="653"/>
			<point x="36" y="463"/>
			<point x="36" y="266" type="curve" smooth="yes"/>
			<point x="36" y="104"/>
			<point x="143" y="-11"/>
		</contour>
		<contour>
			<point x="301" y="30" type="curve" smooth="yes"/>
			<point x="162" y="30"/>
			<point x="79" y="130"/>
			<point x="79" y="271" type="curve" smooth="yes"/>
			<point x="79" y="440"/>
			<point x="208" y="613"/>
			<point x="395" y="613" type="curve" smooth="yes"/>
			<point x="535" y="613"/>
			<point x="618" y="513"/>
			<point x="618" y="372" type="curve" smooth="yes"/>
			<point x="618" y="203"/>
			<point x="488" y="30"/>
		</contour>
		<contour>
			<point x="323" y="129" type="curve" smooth="yes"/>
			<point x="376" y="129"/>
			<point x="416" y="148"/>
			<point x="457" y="180" type="curve"/>
			<point x="432" y="217" type="line"/>
			<point x="400" y="195"/>
			<point x="372" y="180"/>
			<point x="334" y="180" type="curve" smooth="yes"/>
			<point x="275" y="180"/>
			<point x="239" y="217"/>
			<point x="239" y="289" type="curve" smooth="yes"/>
			<point x="239" y="391"/>
			<point x="317" y="464"/>
			<point x="381" y="464" type="curve" smooth="yes"/>
			<point x="411" y="464"/>
			<point x="430" y="455"/>
			<point x="449" y="432" type="curve"/>
			<point x="486" y="464" type="line"/>
			<point x="466" y="493"/>
			<point x="435" y="515"/>
			<point x="388" y="515" type="curve" smooth="yes"/>
			<point x="292" y="515"/>
			<point x="180" y="425"/>
			<point x="180" y="280" type="curve" smooth="yes"/>
			<point x="180" y="182"/>
			<point x="239" y="129"/>
		</contour>
	</outline>
</glyph>
<glyph name="logicalnot" format="2">
	<unicode hex="00AC"/>
	<advance width="480"/>
	<outline>
		<contour>
			<point x="398" y="103" type="line"/>
			<point x="458" y="103" type="line"/>
			<point x="458" y="359" type="line"/>
			<point x="48" y="359" type="line"/>
			<point x="48" y="302" type="line"/>
			<point x="398" y="302" type="line"/>
		</contour>
	</outline>
</glyph>
<glyph name="registered" format="1">
	<unicode hex="00AE"/>
	<advance width="406"/>
	<outline>
		<contour>
			<point x="235" y="323" type="curve" smooth="yes"/>
			<point x="349" y="323"/>
			<point x="435" y="428"/>
			<point x="435" y="541" type="curve" smooth="yes"/>
			<point x="434" y="640"/>
			<point x="360" y="710"/>
			<point x="272" y="710" type="curve" smooth="yes"/>
			<point x="157" y="710"/>
			<point x="73" y="603"/>
			<point x="73" y="492" type="curve" smooth="yes"/>
			<point x="73" y="392"/>
			<point x="147" y="323"/>
		</contour>
		<contour>
			<point x="238" y="357" type="curve" smooth="yes"/>
			<point x="158" y="357"/>
			<point x="110" y="417"/>
			<point x="110" y="496" type="curve" smooth="yes"/>
			<point x="110" y="592"/>
			<point x="179" y="675"/>
			<point x="269" y="675" type="curve" smooth="yes"/>
			<point x="348" y="675"/>
			<point x="398" y="616"/>
			<point x="398" y="537" type="curve" smooth="yes"/>
			<point x="398" y="440"/>
			<point x="327" y="357"/>
		</contour>
		<contour>
			<point x="169" y="417" type="line"/>
			<point x="207" y="417" type="line"/>
			<point x="222" y="487" type="line"/>
			<point x="256" y="487" type="line"/>
			<point x="278" y="417" type="line"/>
			<point x="318" y="417" type="line"/>
			<point x="290" y="496" type="line"/>
			<point x="320" y="506"/>
			<point x="339" y="531"/>
			<point x="339" y="561" type="curve" smooth="yes"/>
			<point x="339" y="598"/>
			<point x="315" y="619"/>
			<point x="276" y="619" type="curve" smooth="yes"/>
			<point x="210" y="619" type="line"/>
		</contour>
		<contour>
			<point x="228" y="517" type="line"/>
			<point x="241" y="587" type="line"/>
			<point x="266" y="587" type="line" smooth="yes"/>
			<point x="289" y="587"/>
			<point x="299" y="576"/>
			<point x="299" y="557" type="curve" smooth="yes"/>
			<point x="299" y="533"/>
			<point x="280" y="517"/>
			<point x="250" y="517" type="curve" smooth="yes"/>
		</contour>
	</outline>
</glyph>
<glyph name="degree" format="2">
	<unicode hex="00B0"/>
	<advance width="313"/>
	<outline>
		<contour>
			<point x="208" y="432" type="curve" smooth="yes"/>
			<point x="279" y="432"/>
			<point x="339" y="497"/>
			<point x="339" y="574" type="curve" smooth="yes"/>
			<point x="339" y="640"/>
			<point x="294" y="685"/>
			<point x="232" y="685" type="curve" smooth="yes"/>
			<point x="160" y="685"/>
			<point x="101" y="620"/>
			<point x="101" y="543" type="curve" smooth="yes"/>
			<point x="101" y="477"/>
			<point x="146" y="432"/>
		</contour>
		<contour>
			<point x="211" y="476" type="curve" smooth="yes"/>
			<point x="171" y="476"/>
			<point x="148" y="507"/>
			<point x="148" y="545" type="curve" smooth="yes"/>
			<point x="148" y="594"/>
			<point x="180" y="641"/>
			<point x="228" y="641" type="curve" smooth="yes"/>
			<point x="268" y="641"/>
			<point x="291" y="610"/>
			<point x="291" y="572" type="curve" smooth="yes"/>
			<point x="291" y="523"/>
			<point x="259" y="476"/>
		</contour>
	</outline>
</glyph>
<glyph name="paragraph" format="2">
	<unicode hex="00B6"/>
	<advance width="536"/>
	<outline>
		<contour>
			<point x="300" y="-80" type="line"/>
			<point x="377" y="-80" type="line"/>
			<point x="524" y="656" type="line"/>
			<point x="446" y="656" type="line"/>
		</contour>
		<contour>
			<point x="293" y="226" type="curve" smooth="yes"/>
			<point x="308" y="226" type="line"/>
			<point x="395" y="656" type="line"/>
			<point x="347" y="656" type="line" smooth="yes"/>
			<point x="206" y="656"/>
			<point x="73" y="575"/>
			<point x="73" y="402" type="curve" smooth="yes"/>
			<point x="73" y="287"/>
			<point x="174" y="226"/>
		</contour>
	</outline>
</glyph>
<glyph name="questiondown" format="2">
	<unicode hex="00BF"/>
	<advance width="409"/>
	<outline>
		<contour>
			<point x="148" y="-195" type="curve" smooth="yes"/>
			<point x="208" y="-195"/>
			<point x="264" y="-166"/>
			<point x="303" y="-125" type="curve"/>
			<point x="262" y="-79" type="line"/>
			<point x="233" y="-110"/>
			<point x="195" y="-130"/>
			<point x="157" y="-130" type="curve" smooth="yes"/>
			<point x="104" y="-130"/>
			<point x="72" y="-98"/>
			<point x="72" y="-43" type="curve" smooth="yes"/>
			<point x="72" y="79"/>
			<point x="259" y="118"/>
			<point x="270" y="286" type="curve"/>
			<point x="203" y="292" type="line"/>
			<point x="189" y="141"/>
			<point x="-4" y="105"/>
			<point x="-4" y="-56" type="curve" smooth="yes"/>
			<point x="-4" y="-143"/>
			<point x="55" y="-195"/>
		</contour>
		<contour>
			<point x="253" y="379" type="curve" smooth="yes"/>
			<point x="291" y="379"/>
			<point x="320" y="415"/>
			<point x="320" y="449" type="curve" smooth="yes"/>
			<point x="320" y="478"/>
			<point x="302" y="499"/>
			<point x="273" y="499" type="curve" smooth="yes"/>
			<point x="234" y="499"/>
			<point x="207" y="465"/>
			<point x="207" y="430" type="curve" smooth="yes"/>
			<point x="207" y="401"/>
			<point x="223" y="379"/>
		</contour>
	</outline>
</glyph>
<glyph name="AE" format="2">
	<unicode hex="00C6"/>
	<advance width="803"/>
	<outline>
		<contour>
			<point x="-33" y="0" type="line"/>
			<point x="56" y="0" type="line"/>
			<point x="314" y="380" type="line" smooth="yes"/>
			<point x="363" y="453"/>
			<point x="412" y="523"/>
			<point x="462" y="596" type="curve"/>
			<point x="465" y="596" type="line"/>
			<point x="346" y="0" type="line"/>
			<point x="705" y="0" type="line"/>
			<point x="719" y="66" type="line"/>
			<point x="437" y="66" type="line"/>
			<point x="488" y="312" type="line"/>
			<point x="715" y="312" type="line"/>
			<point x="729" y="378" type="line"/>
			<point x="500" y="378" type="line"/>
			<point x="542" y="590" type="line"/>
			<point x="814" y="590" type="line"/>
			<point x="828" y="656" type="line"/>
			<point x="426" y="656" type="line"/>
		</contour>
		<contour>
			<point x="147" y="194" type="line"/>
			<point x="429" y="194" type="line"/>
			<point x="443" y="256" type="line"/>
			<point x="161" y="256" type="line"/>
		</contour>
	</outline>
	<anchor name="aboveUC" x="620" y="678"/>
</glyph>
<glyph name="Eth" format="1">
	<unicode hex="00D0"/>
	<advance width="610"/>
	<outline>
		<contour>
			<point x="47" y="324" type="line"/>
			<point x="344" y="324" type="line"/>
			<point x="354" y="368" type="line"/>
			<point x="128" y="368" type="line"/>
			<point x="56" y="365" type="line"/>
		</contour>
		<component base="D" xOffset="18"/>
	</outline>
</glyph>
<glyph name="Oslash" format="2">
	<unicode hex="00D8"/>
	<advance width="633"/>
	<outline>
		<contour>
			<point x="37" y="-30" type="line"/>
			<point x="673" y="652" type="line"/>
			<point x="637" y="687" type="line"/>
			<point x="-3" y="5" type="line"/>
		</contour>
		<component base="O"/>
	</outline>
	<anchor name="aboveUC" x="397" y="678"/>
</glyph>
<glyph name="Thorn" format="2">
	<unicode hex="00DE"/>
	<advance width="562"/>
	<outline>
		<contour>
			<point x="35" y="0" type="line"/>
			<point x="112" y="0" type="line"/>
			<point x="142" y="150" type="line"/>
			<point x="247" y="150" type="line" smooth="yes"/>
			<point x="414" y="150"/>
			<point x="535" y="221"/>
			<point x="535" y="382" type="curve" smooth="yes"/>
			<point x="535" y="496"/>
			<point x="455" y="543"/>
			<point x="335" y="543" type="curve" smooth="yes"/>
			<point x="221" y="543" type="line"/>
			<point x="244" y="660" type="line"/>
			<point x="166" y="660" type="line"/>
		</contour>
		<contour>
			<point x="155" y="213" type="line"/>
			<point x="207" y="480" type="line"/>
			<point x="312" y="480" type="line" smooth="yes"/>
			<point x="407" y="480"/>
			<point x="458" y="448"/>
			<point x="458" y="372" type="curve" smooth="yes"/>
			<point x="458" y="267"/>
			<point x="386" y="213"/>
			<point x="250" y="213" type="curve" smooth="yes"/>
		</contour>
	</outline>
</glyph>
<glyph name="germandbls" format="2">
	<unicode hex="00DF"/>
	<advance width="555"/>
	<outline>
		<contour>
			<point x="339" y="-12" type="curve" smooth="yes"/>
			<point x="434" y="-12"/>
			<point x="505" y="58"/>
			<point x="505" y="145" type="curve" smooth="yes"/>
			<point x="505" y="268"/>
			<point x="368" y="284"/>
			<point x="368" y="361" type="curve" smooth="yes"/>
			<point x="368" y="438"/>
			<point x="510" y="467"/>
			<point x="510" y="592" type="curve" smooth="yes"/>
			<point x="510" y="681"/>
			<point x="442" y="724"/>
			<point x="356" y="724" type="curve" smooth="yes"/>
			<point x="238" y="724"/>
			<point x="158" y="634"/>
			<point x="136" y="525" type="curve" smooth="yes"/>
			<point x="31" y="0" type="line"/>
			<point x="107" y="0" type="line"/>
			<point x="209" y="507" type="line" smooth="yes"/>
			<point x="226" y="593"/>
			<point x="281" y="662"/>
			<point x="353" y="662" type="curve" smooth="yes"/>
			<point x="411" y="662"/>
			<point x="436" y="629"/>
			<point x="436" y="584" type="curve" smooth="yes"/>
			<point x="436" y="478"/>
			<point x="293" y="454"/>
			<point x="293" y="349" type="curve" smooth="yes"/>
			<point x="293" y="247"/>
			<point x="433" y="230"/>
			<point x="433" y="135" type="curve" smooth="yes"/>
			<point x="433" y="84"/>
			<point x="391" y="48"/>
			<point x="339" y="48" type="curve" smooth="yes"/>
			<point x="298" y="48"/>
			<point x="263" y="62"/>
			<point x="233" y="86" type="curve"/>
			<point x="203" y="38" type="line"/>
			<point x="241" y="3"/>
			<point x="291" y="-12"/>
		</contour>
	</outline>
</glyph>
<glyph name="ae" format="2">
	<unicode hex="00E6"/>
	<advance width="761"/>
	<outline>
		<contour>
			<point x="157" y="-12" type="curve" smooth="yes"/>
			<point x="229" y="-12"/>
			<point x="295" y="23"/>
			<point x="358" y="84" type="curve"/>
			<point x="381" y="29"/>
			<point x="441" y="-12"/>
			<point x="511" y="-12" type="curve" smooth="yes"/>
			<point x="576" y="-12"/>
			<point x="627" y="11"/>
			<point x="665" y="41" type="curve"/>
			<point x="637" y="89" type="line"/>
			<point x="606" y="66"/>
			<point x="569" y="51"/>
			<point x="526" y="51" type="curve" smooth="yes"/>
			<point x="444" y="51"/>
			<point x="390" y="116"/>
			<point x="407" y="225" type="curve"/>
			<point x="711" y="225" type="line"/>
			<point x="719" y="247"/>
			<point x="728" y="283"/>
			<point x="728" y="322" type="curve" smooth="yes"/>
			<point x="728" y="422"/>
			<point x="686" y="498"/>
			<point x="577" y="498" type="curve" smooth="yes"/>
			<point x="516" y="498"/>
			<point x="455" y="462"/>
			<point x="410" y="403" type="curve"/>
			<point x="398" y="468"/>
			<point x="349" y="498"/>
			<point x="280" y="498" type="curve" smooth="yes"/>
			<point x="227" y="498"/>
			<point x="161" y="475"/>
			<point x="113" y="448" type="curve"/>
			<point x="139" y="393" type="line"/>
			<point x="183" y="419"/>
			<point x="233" y="436"/>
			<point x="271" y="436" type="curve" smooth="yes"/>
			<point x="331" y="436"/>
			<point x="356" y="404"/>
			<point x="356" y="345" type="curve" smooth="yes"/>
			<point x="356" y="331"/>
			<point x="355" y="320"/>
			<point x="350" y="303" type="curve"/>
			<point x="164" y="296"/>
			<point x="31" y="244"/>
			<point x="31" y="106" type="curve" smooth="yes"/>
			<point x="31" y="30"/>
			<point x="89" y="-12"/>
		</contour>
		<contour>
			<point x="185" y="51" type="curve" smooth="yes"/>
			<point x="140" y="51"/>
			<point x="108" y="75"/>
			<point x="108" y="123" type="curve" smooth="yes"/>
			<point x="108" y="202"/>
			<point x="195" y="243"/>
			<point x="340" y="247" type="curve"/>
			<point x="333" y="204"/>
			<point x="333" y="177"/>
			<point x="339" y="135" type="curve"/>
			<point x="283" y="77"/>
			<point x="226" y="51"/>
		</contour>
		<contour>
			<point x="417" y="284" type="line"/>
			<point x="442" y="377"/>
			<point x="508" y="436"/>
			<point x="569" y="436" type="curve" smooth="yes"/>
			<point x="638" y="436"/>
			<point x="663" y="384"/>
			<point x="663" y="329" type="curve" smooth="yes"/>
			<point x="663" y="313"/>
			<point x="661" y="298"/>
			<point x="658" y="284" type="curve"/>
		</contour>
	</outline>
	<anchor name="aboveLC" x="440" y="522"/>
	<anchor name="belowLC" x="340" y="-22"/>
</glyph>
<glyph name="eth" format="2">
	<unicode hex="00F0"/>
	<advance width="531"/>
	<outline>
		<contour>
			<point x="216" y="-12" type="curve" smooth="yes"/>
			<point x="367" y="-12"/>
			<point x="474" y="142"/>
			<point x="474" y="353" type="curve" smooth="yes"/>
			<point x="474" y="537"/>
			<point x="378" y="653"/>
			<point x="249" y="730" type="curve"/>
			<point x="211" y="684" type="line"/>
			<point x="331" y="607"/>
			<point x="398" y="511"/>
			<point x="398" y="344" type="curve" smooth="yes"/>
			<point x="398" y="180"/>
			<point x="327" y="52"/>
			<point x="227" y="52" type="curve" smooth="yes"/>
			<point x="157" y="52"/>
			<point x="118" y="110"/>
			<point x="118" y="179" type="curve" smooth="yes"/>
			<point x="118" y="282"/>
			<point x="181" y="386"/>
			<point x="281" y="386" type="curve" smooth="yes"/>
			<point x="336" y="386"/>
			<point x="374" y="344"/>
			<point x="400" y="301" type="curve"/>
			<point x="413" y="350" type="line"/>
			<point x="386" y="410"/>
			<point x="333" y="447"/>
			<point x="274" y="447" type="curve" smooth="yes"/>
			<point x="131" y="447"/>
			<point x="43" y="310"/>
			<point x="43" y="172" type="curve" smooth="yes"/>
			<point x="43" y="66"/>
			<point x="113" y="-12"/>
		</contour>
		<contour>
			<point x="188" y="508" type="line"/>
			<point x="532" y="650" type="line"/>
			<point x="516" y="691" type="line"/>
			<point x="172" y="549" type="line"/>
		</contour>
	</outline>
	<anchor name="aboveUC" x="358" y="726"/>
	<anchor name="belowLC" x="214" y="-22"/>
</glyph>
<glyph name="oslash" format="2">
	<unicode hex="00F8"/>
	<advance width="514"/>
	<outline>
		<contour>
			<point x="212" y="-12" type="curve" smooth="yes"/>
			<point x="345" y="-12"/>
			<point x="474" y="118"/>
			<point x="474" y="303" type="curve" smooth="yes"/>
			<point x="474" y="427"/>
			<point x="403" y="498"/>
			<point x="301" y="498" type="curve" smooth="yes"/>
			<point x="168" y="498"/>
			<point x="39" y="367"/>
			<point x="39" y="183" type="curve" smooth="yes"/>
			<point x="39" y="59"/>
			<point x="110" y="-12"/>
		</contour>
		<contour>
			<point x="217" y="50" type="curve" smooth="yes"/>
			<point x="148" y="50"/>
			<point x="111" y="100"/>
			<point x="111" y="188" type="curve" smooth="yes"/>
			<point x="111" y="315"/>
			<point x="196" y="436"/>
			<point x="295" y="436" type="curve" smooth="yes"/>
			<point x="364" y="436"/>
			<point x="402" y="386"/>
			<point x="402" y="297" type="curve" smooth="yes"/>
			<point x="402" y="171"/>
			<point x="318" y="50"/>
		</contour>
		<contour>
			<point x="34" y="-28" type="line"/>
			<point x="523" y="475" type="line"/>
			<point x="484" y="512" type="line"/>
			<point x="-5" y="9" type="line"/>
		</contour>
	</outline>
</glyph>
<glyph name="Aogonek" format="2">
	<unicode hex="0104"/>
	<advance width="511"/>
	<outline>
		<contour>
			<point x="384" y="-211" type="curve" smooth="yes"/>
			<point x="407" y="-211"/>
			<point x="438" y="-202"/>
			<point x="460" y="-188" type="curve"/>
			<point x="443" y="-146" type="line"/>
			<point x="430" y="-153"/>
			<point x="420" y="-157"/>
			<point x="408" y="-157" type="curve" smooth="yes"/>
			<point x="387" y="-157"/>
			<point x="371" y="-143"/>
			<point x="371" y="-119" type="curve" smooth="yes"/>
			<point x="371" y="-80"/>
			<point x="405" y="-36"/>
			<point x="469" y="0" type="curve"/>
			<point x="393" y="656" type="line"/>
			<point x="303" y="656" type="line"/>
			<point x="-53" y="0" type="line"/>
			<point x="34" y="0" type="line"/>
			<point x="227" y="377" type="line" smooth="yes"/>
			<point x="264" y="449"/>
			<point x="297" y="515"/>
			<point x="332" y="590" type="curve"/>
			<point x="336" y="590" type="line"/>
			<point x="341" y="515"/>
			<point x="348" y="446"/>
			<point x="354" y="377" type="curve" smooth="yes"/>
			<point x="388" y="0" type="line"/>
			<point x="401" y="0" type="line"/>
			<point x="358" y="-30"/>
			<point x="306" y="-85"/>
			<point x="306" y="-142" type="curve" smooth="yes"/>
			<point x="306" y="-187"/>
			<point x="339" y="-211"/>
		</contour>
		<contour>
			<point x="106" y="204" type="line"/>
			<point x="396" y="204" type="line"/>
			<point x="410" y="265" type="line"/>
			<point x="122" y="265" type="line"/>
		</contour>
	</outline>
	<anchor name="aboveUC" x="349" y="678"/>
</glyph>
<glyph name="aogonek" format="2">
	<unicode hex="0105"/>
	<advance width="537"/>
	<outline>
		<contour>
			<point x="311" y="-206" type="curve" smooth="yes"/>
			<point x="334" y="-206"/>
			<point x="365" y="-195"/>
			<point x="387" y="-181" type="curve"/>
			<point x="371" y="-143" type="line"/>
			<point x="359" y="-150"/>
			<point x="347" y="-154"/>
			<point x="334" y="-154" type="curve" smooth="yes"/>
			<point x="313" y="-154"/>
			<point x="297" y="-141"/>
			<point x="297" y="-118" type="curve" smooth="yes"/>
			<point x="297" y="-74"/>
			<point x="340" y="-31"/>
			<point x="407" y="0" type="curve"/>
			<point x="505" y="486" type="line"/>
			<point x="442" y="486" type="line"/>
			<point x="423" y="425" type="line"/>
			<point x="419" y="425" type="line"/>
			<point x="396" y="469"/>
			<point x="354" y="498"/>
			<point x="302" y="498" type="curve" smooth="yes"/>
			<point x="167" y="498"/>
			<point x="39" y="351"/>
			<point x="39" y="164" type="curve" smooth="yes"/>
			<point x="39" y="50"/>
			<point x="94" y="-12"/>
			<point x="179" y="-12" type="curve" smooth="yes"/>
			<point x="240" y="-12"/>
			<point x="300" y="22"/>
			<point x="348" y="72" type="curve"/>
			<point x="351" y="72" type="line"/>
			<point x="344" y="6" type="line"/>
			<point x="294" y="-23"/>
			<point x="236" y="-79"/>
			<point x="236" y="-139" type="curve" smooth="yes"/>
			<point x="236" y="-183"/>
			<point x="267" y="-206"/>
		</contour>
		<contour>
			<point x="207" y="53" type="curve" smooth="yes"/>
			<point x="153" y="53"/>
			<point x="119" y="92"/>
			<point x="119" y="176" type="curve" smooth="yes"/>
			<point x="119" y="310"/>
			<point x="208" y="433"/>
			<point x="305" y="433" type="curve" smooth="yes"/>
			<point x="342" y="433"/>
			<point x="376" y="413"/>
			<point x="404" y="362" type="curve"/>
			<point x="359" y="145" type="line"/>
			<point x="312" y="82"/>
			<point x="258" y="53"/>
		</contour>
	</outline>
	<anchor name="aboveLC" x="314" y="509"/>
</glyph>
<glyph name="dcroat" format="2">
	<unicode hex="0111"/>
	<advance width="535"/>
	<outline>
		<contour>
			<point x="179" y="-12" type="curve" smooth="yes"/>
			<point x="240" y="-12"/>
			<point x="300" y="22"/>
			<point x="348" y="72" type="curve"/>
			<point x="351" y="72" type="line"/>
			<point x="344" y="0" type="line"/>
			<point x="407" y="0" type="line"/>
			<point x="552" y="712" type="line"/>
			<point x="474" y="712" type="line"/>
			<point x="430" y="490" type="line"/>
			<point x="413" y="395" type="line"/>
			<point x="410" y="395" type="line"/>
			<point x="388" y="438"/>
			<point x="349" y="466"/>
			<point x="297" y="466" type="curve" smooth="yes"/>
			<point x="164" y="466"/>
			<point x="39" y="328"/>
			<point x="39" y="165" type="curve" smooth="yes"/>
			<point x="39" y="50"/>
			<point x="94" y="-12"/>
		</contour>
		<contour>
			<point x="207" y="54" type="curve" smooth="yes"/>
			<point x="153" y="54"/>
			<point x="119" y="92"/>
			<point x="119" y="176" type="curve" smooth="yes"/>
			<point x="119" y="288"/>
			<point x="205" y="401"/>
			<point x="300" y="401" type="curve" smooth="yes"/>
			<point x="337" y="401"/>
			<point x="371" y="381"/>
			<point x="398" y="330" type="curve"/>
			<point x="359" y="146" type="line"/>
			<point x="311" y="82"/>
			<point x="258" y="54"/>
		</contour>
		<contour>
			<point x="278" y="559" type="line"/>
			<point x="522" y="559" type="line"/>
			<point x="596" y="564" type="line"/>
			<point x="607" y="618" type="line"/>
			<point x="290" y="618" type="line"/>
		</contour>
	</outline>
</glyph>
<glyph name="Eogonek" format="2">
	<unicode hex="0118"/>
	<advance width="502"/>
	<outline>
		<contour>
			<point x="310" y="-219" type="curve" smooth="yes"/>
			<point x="343" y="-219"/>
			<point x="376" y="-208"/>
			<point x="403" y="-186" type="curve"/>
			<point x="384" y="-145" type="line"/>
			<point x="367" y="-156"/>
			<point x="355" y="-161"/>
			<point x="338" y="-161" type="curve" smooth="yes"/>
			<point x="314" y="-161"/>
			<point x="295" y="-146"/>
			<point x="295" y="-121" type="curve" smooth="yes"/>
			<point x="295" y="-72"/>
			<point x="355" y="-4"/>
			<point x="405" y="0" type="curve"/>
			<point x="419" y="66" type="line"/>
			<point x="125" y="66" type="line"/>
			<point x="176" y="312" type="line"/>
			<point x="415" y="312" type="line"/>
			<point x="429" y="378" type="line"/>
			<point x="188" y="378" type="line"/>
			<point x="230" y="591" type="line"/>
			<point x="515" y="591" type="line"/>
			<point x="528" y="656" type="line"/>
			<point x="166" y="656" type="line"/>
			<point x="35" y="0" type="line"/>
			<point x="323" y="0" type="line"/>
			<point x="277" y="-32"/>
			<point x="223" y="-89"/>
			<point x="223" y="-146" type="curve" smooth="yes"/>
			<point x="223" y="-193"/>
			<point x="261" y="-219"/>
		</contour>
	</outline>
	<anchor name="aboveUC" x="361" y="678"/>
	<anchor name="belowLC" x="207" y="-215"/>
</glyph>
<glyph name="eogonek" format="2">
	<unicode hex="0119"/>
	<advance width="481"/>
	<outline>
		<contour>
			<point x="256" y="-215" type="curve" smooth="yes"/>
			<point x="291" y="-215"/>
			<point x="320" y="-203"/>
			<point x="347" y="-181" type="curve"/>
			<point x="329" y="-144" type="line"/>
			<point x="312" y="-156"/>
			<point x="300" y="-161"/>
			<point x="282" y="-161" type="curve" smooth="yes"/>
			<point x="259" y="-161"/>
			<point x="242" y="-146"/>
			<point x="242" y="-120" type="curve" smooth="yes"/>
			<point x="242" y="-74"/>
			<point x="280" y="-24"/>
			<point x="385" y="41" type="curve"/>
			<point x="357" y="90" type="line"/>
			<point x="326" y="68"/>
			<point x="284" y="49"/>
			<point x="246" y="49" type="curve" smooth="yes"/>
			<point x="161" y="49"/>
			<point x="96" y="102"/>
			<point x="114" y="227" type="curve"/>
			<point x="430" y="227" type="line"/>
			<point x="437" y="245"/>
			<point x="447" y="283"/>
			<point x="447" y="322" type="curve" smooth="yes"/>
			<point x="447" y="422"/>
			<point x="406" y="498"/>
			<point x="297" y="498" type="curve" smooth="yes"/>
			<point x="170" y="498"/>
			<point x="37" y="374"/>
			<point x="37" y="191" type="curve" smooth="yes"/>
			<point x="37" y="61"/>
			<point x="113" y="-12"/>
			<point x="228" y="-12" type="curve" smooth="yes"/>
			<point x="244" y="-12"/>
			<point x="262" y="-9"/>
			<point x="276" y="-5" type="curve"/>
			<point x="272" y="3" type="line"/>
			<point x="215" y="-40"/>
			<point x="176" y="-88"/>
			<point x="176" y="-141" type="curve" smooth="yes"/>
			<point x="176" y="-190"/>
			<point x="210" y="-215"/>
		</contour>
		<contour>
			<point x="122" y="282" type="line"/>
			<point x="147" y="376"/>
			<point x="217" y="437"/>
			<point x="288" y="437" type="curve" smooth="yes"/>
			<point x="358" y="437"/>
			<point x="382" y="384"/>
			<point x="382" y="329" type="curve" smooth="yes"/>
			<point x="382" y="312"/>
			<point x="380" y="297"/>
			<point x="377" y="282" type="curve"/>
		</contour>
	</outline>
	<anchor name="aboveLC" x="307" y="509"/>
</glyph>
<glyph name="Hbar" format="1">
	<unicode hex="0126"/>
	<advance width="643"/>
	<outline>
		<contour>
			<point x="76" y="493" type="line"/>
			<point x="677" y="493" type="line"/>
			<point x="686" y="537" type="line"/>
			<point x="159" y="537" type="line"/>
			<point x="85" y="534" type="line"/>
		</contour>
		<component base="H" xOffset="9"/>
	</outline>
</glyph>
<glyph name="hbar" format="2">
	<unicode hex="0127"/>
	<advance width="523"/>
	<outline>
		<contour>
			<point x="31" y="0" type="line"/>
			<point x="108" y="0" type="line"/>
			<point x="170" y="312" type="line"/>
			<point x="231" y="372"/>
			<point x="277" y="399"/>
			<point x="316" y="399" type="curve" smooth="yes"/>
			<point x="365" y="399"/>
			<point x="388" y="374"/>
			<point x="388" y="325" type="curve" smooth="yes"/>
			<point x="388" y="308"/>
			<point x="384" y="294"/>
			<point x="380" y="268" type="curve" smooth="yes"/>
			<point x="325" y="0" type="line"/>
			<point x="403" y="0" type="line"/>
			<point x="458" y="278" type="line" smooth="yes"/>
			<point x="464" y="305"/>
			<point x="466" y="322"/>
			<point x="466" y="345" type="curve" smooth="yes"/>
			<point x="466" y="420"/>
			<point x="433" y="466"/>
			<point x="351" y="466" type="curve" smooth="yes"/>
			<point x="292" y="466"/>
			<point x="239" y="431"/>
			<point x="184" y="384" type="curve"/>
			<point x="180" y="384" type="line"/>
			<point x="196" y="446" type="line"/>
			<point x="250" y="712" type="line"/>
			<point x="173" y="712" type="line"/>
		</contour>
		<contour>
			<point x="72" y="559" type="line"/>
			<point x="396" y="559" type="line"/>
			<point x="408" y="618" type="line"/>
			<point x="156" y="618" type="line"/>
			<point x="82" y="613" type="line"/>
		</contour>
	</outline>
</glyph>
<glyph name="Iogonek" format="2">
	<unicode hex="012E"/>
	<advance width="249"/>
	<outline>
		<contour>
			<point x="38" y="-219" type="curve" smooth="yes"/>
			<point x="71" y="-219"/>
			<point x="104" y="-208"/>
			<point x="131" y="-186" type="curve"/>
			<point x="112" y="-144" type="line"/>
			<point x="95" y="-156"/>
			<point x="83" y="-160"/>
			<point x="66" y="-160" type="curve" smooth="yes"/>
			<point x="42" y="-160"/>
			<point x="24" y="-145"/>
			<point x="24" y="-120" type="curve" smooth="yes"/>
			<point x="24" y="-78"/>
			<point x="63" y="-33"/>
			<point x="113" y="0" type="curve"/>
			<point x="245" y="656" type="line"/>
			<point x="166" y="656" type="line"/>
			<point x="35" y="0" type="line"/>
			<point x="50" y="0" type="line"/>
			<point x="5" y="-32"/>
			<point x="-49" y="-89"/>
			<point x="-49" y="-146" type="curve" smooth="yes"/>
			<point x="-49" y="-193"/>
			<point x="-12" y="-219"/>
		</contour>
	</outline>
	<anchor name="aboveUC" x="209" y="678"/>
</glyph>
<glyph name="iogonek" format="1">
	<unicode hex="012F"/>
	<advance width="237"/>
	<outline>
		<contour>
			<point x="33" y="-206" type="curve" smooth="yes"/>
			<point x="56" y="-206"/>
			<point x="87" y="-195"/>
			<point x="109" y="-181" type="curve"/>
			<point x="93" y="-143" type="line"/>
			<point x="81" y="-151"/>
			<point x="69" y="-155"/>
			<point x="56" y="-155" type="curve" smooth="yes"/>
			<point x="35" y="-155"/>
			<point x="19" y="-141"/>
			<point x="19" y="-118" type="curve" smooth="yes"/>
			<point x="19" y="-76"/>
			<point x="51" y="-36"/>
			<point x="107" y="0" type="curve"/>
			<point x="205" y="486" type="line"/>
			<point x="128" y="486" type="line"/>
			<point x="31" y="0" type="line"/>
			<point x="49" y="0" type="line"/>
			<point x="12" y="-26"/>
			<point x="-42" y="-81"/>
			<point x="-42" y="-139" type="curve" smooth="yes"/>
			<point x="-42" y="-183"/>
			<point x="-10" y="-206"/>
		</contour>
		<contour>
			<point x="193" y="587" type="curve" smooth="yes"/>
			<point x="224" y="587"/>
			<point x="251" y="611"/>
			<point x="251" y="644" type="curve" smooth="yes"/>
			<point x="251" y="673"/>
			<point x="228" y="690"/>
			<point x="202" y="690" type="curve" smooth="yes"/>
			<point x="171" y="690"/>
			<point x="144" y="665"/>
			<point x="144" y="632" type="curve" smooth="yes"/>
			<point x="144" y="603"/>
			<point x="167" y="587"/>
		</contour>
	</outline>
</glyph>
<glyph name="dotlessi" format="1">
	<unicode hex="0131"/>
	<advance width="237"/>
	<outline>
		<contour>
			<point x="31" y="0" type="line"/>
			<point x="107" y="0" type="line"/>
			<point x="205" y="486" type="line"/>
			<point x="128" y="486" type="line"/>
		</contour>
		<contour>
			<point name="ogonekLC" x="67" y="0" type="move"/>
		</contour>
		<contour>
			<point name="aboveLC" x="171" y="509" type="move"/>
		</contour>
		<contour>
			<point name="belowLC" x="67" y="-22" type="move"/>
		</contour>
	</outline>
</glyph>
<glyph name="IJ" format="2">
	<unicode hex="0132"/>
	<advance width="498"/>
	<outline>
		<contour>
			<point x="215" y="-162" type="curve" smooth="yes"/>
			<point x="300" y="-162"/>
			<point x="341" y="-99"/>
			<point x="361" y="-5" type="curve" smooth="yes"/>
			<point x="493" y="656" type="line"/>
			<point x="415" y="656" type="line"/>
			<point x="283" y="-7" type="line" smooth="yes"/>
			<point x="271" y="-65"/>
			<point x="248" y="-98"/>
			<point x="211" y="-98" type="curve" smooth="yes"/>
			<point x="194" y="-98"/>
			<point x="182" y="-95"/>
			<point x="166" y="-86" type="curve"/>
			<point x="140" y="-143" type="line"/>
			<point x="166" y="-157"/>
			<point x="188" y="-162"/>
		</contour>
		<contour>
			<point x="35" y="0" type="line"/>
			<point x="113" y="0" type="line"/>
			<point x="244" y="656" type="line"/>
			<point x="166" y="656" type="line"/>
		</contour>
	</outline>
</glyph>
<glyph name="kgreenlandic" format="2">
	<unicode hex="0138"/>
	<advance width="476"/>
	<outline>
		<contour>
			<point x="31" y="0" type="line"/>
			<point x="108" y="0" type="line"/>
			<point x="133" y="123" type="line"/>
			<point x="245" y="236" type="line"/>
			<point x="338" y="0" type="line"/>
			<point x="417" y="0" type="line"/>
			<point x="300" y="283" type="line"/>
			<point x="493" y="486" type="line"/>
			<point x="405" y="486" type="line"/>
			<point x="157" y="230" type="line"/>
			<point x="154" y="230" type="line"/>
			<point x="205" y="486" type="line"/>
			<point x="127" y="486" type="line"/>
		</contour>
	</outline>
</glyph>
<glyph name="Lslash" format="2">
	<unicode hex="0141"/>
	<advance width="480"/>
	<outline>
		<contour>
			<point x="15" y="218" type="line"/>
			<point x="112" y="257" type="line"/>
			<point x="164" y="278" type="line"/>
			<point x="400" y="374" type="line"/>
			<point x="380" y="427" type="line"/>
			<point x="178" y="345" type="line"/>
			<point x="126" y="323" type="line"/>
			<point x="-6" y="271" type="line"/>
		</contour>
		<component base="L" xOffset="17"/>
	</outline>
	<anchor name="aboveUC" x="232" y="678"/>
	<anchor name="belowLC" x="241" y="-22"/>
</glyph>
<glyph name="lslash" format="2">
	<unicode hex="0142"/>
	<advance width="275"/>
	<outline>
		<contour>
			<point x="49" y="298" type="line"/>
			<point x="124" y="341" type="line"/>
			<point x="192" y="370" type="line"/>
			<point x="314" y="435" type="line"/>
			<point x="294" y="485" type="line"/>
			<point x="205" y="435" type="line"/>
			<point x="137" y="406" type="line"/>
			<point x="29" y="348" type="line"/>
		</contour>
		<component base="l" xOffset="16"/>
	</outline>
	<anchor name="aboveUC" x="229" y="730"/>
	<anchor name="belowLC" x="97" y="-22"/>
</glyph>
<glyph name="Eng" format="2">
	<unicode hex="014A"/>
	<advance width="612"/>
	<outline>
		<contour>
			<point x="345" y="-12" type="curve" smooth="yes"/>
			<point x="488" y="-12"/>
			<point x="589" y="205"/>
			<point x="589" y="441" type="curve" smooth="yes"/>
			<point x="589" y="603"/>
			<point x="516" y="668"/>
			<point x="409" y="668" type="curve" smooth="yes"/>
			<point x="353" y="668"/>
			<point x="280" y="633"/>
			<point x="227" y="584" type="curve"/>
			<point x="242" y="656" type="line"/>
			<point x="166" y="656" type="line"/>
			<point x="35" y="0" type="line"/>
			<point x="113" y="0" type="line"/>
			<point x="215" y="511" type="line"/>
			<point x="272" y="570"/>
			<point x="343" y="600"/>
			<point x="387" y="600" type="curve" smooth="yes"/>
			<point x="460" y="600"/>
			<point x="509" y="557"/>
			<point x="509" y="434" type="curve" smooth="yes"/>
			<point x="509" y="247"/>
			<point x="428" y="56"/>
			<point x="339" y="56" type="curve" smooth="yes"/>
			<point x="321" y="56"/>
			<point x="304" y="59"/>
			<point x="290" y="67" type="curve"/>
			<point x="265" y="7" type="line"/>
			<point x="284" y="-5"/>
			<point x="317" y="-12"/>
		</contour>
	</outline>
	<anchor name="aboveUC" x="419" y="678"/>
	<anchor name="belowLC" x="259" y="-22"/>
</glyph>
<glyph name="eng" format="1">
	<unicode hex="014B"/>
	<advance width="525"/>
	<outline>
		<contour>
			<point x="246" y="-217" type="curve" smooth="yes"/>
			<point x="329" y="-217"/>
			<point x="371" y="-154"/>
			<point x="390" y="-61" type="curve"/>
			<point x="464" y="310" type="line" smooth="yes"/>
			<point x="470" y="337"/>
			<point x="472" y="354"/>
			<point x="472" y="377" type="curve" smooth="yes"/>
			<point x="472" y="452"/>
			<point x="439" y="498"/>
			<point x="357" y="498" type="curve" smooth="yes"/>
			<point x="296" y="498"/>
			<point x="242" y="461"/>
			<point x="188" y="413" type="curve"/>
			<point x="184" y="413" type="line"/>
			<point x="191" y="486" type="line"/>
			<point x="128" y="486" type="line"/>
			<point x="31" y="0" type="line"/>
			<point x="107" y="0" type="line"/>
			<point x="176" y="344" type="line"/>
			<point x="237" y="405"/>
			<point x="284" y="432"/>
			<point x="322" y="432" type="curve" smooth="yes"/>
			<point x="372" y="432"/>
			<point x="394" y="406"/>
			<point x="394" y="357" type="curve" smooth="yes"/>
			<point x="394" y="340"/>
			<point x="391" y="326"/>
			<point x="386" y="300" type="curve" smooth="yes"/>
			<point x="313" y="-62" type="line"/>
			<point x="300" y="-120"/>
			<point x="279" y="-154"/>
			<point x="242" y="-154" type="curve" smooth="yes"/>
			<point x="220" y="-154"/>
			<point x="209" y="-149"/>
			<point x="196" y="-141" type="curve"/>
			<point x="171" y="-198" type="line"/>
			<point x="193" y="-210"/>
			<point x="215" y="-217"/>
		</contour>
		<contour>
			<point name="aboveLC" x="335" y="509" type="move"/>
		</contour>
		<contour>
			<point name="belowLC" x="178" y="-213" type="move"/>
		</contour>
	</outline>
</glyph>
<glyph name="OE" format="2">
	<unicode hex="0152"/>
	<advance width="816"/>
	<outline>
		<contour>
			<point x="338" y="0" type="curve" smooth="yes"/>
			<point x="718" y="0" type="line"/>
			<point x="732" y="66" type="line"/>
			<point x="457" y="66" type="line"/>
			<point x="508" y="312" type="line"/>
			<point x="728" y="312" type="line"/>
			<point x="742" y="378" type="line"/>
			<point x="520" y="378" type="line"/>
			<point x="562" y="590" type="line"/>
			<point x="827" y="590" type="line"/>
			<point x="841" y="656" type="line"/>
			<point x="415" y="656" type="line" smooth="yes"/>
			<point x="193" y="656"/>
			<point x="60" y="495"/>
			<point x="60" y="256" type="curve" smooth="yes"/>
			<point x="60" y="95"/>
			<point x="156" y="0"/>
		</contour>
		<contour>
			<point x="341" y="64" type="line" smooth="yes"/>
			<point x="210" y="64"/>
			<point x="140" y="138"/>
			<point x="140" y="261" type="curve" smooth="yes"/>
			<point x="140" y="457"/>
			<point x="246" y="592"/>
			<point x="415" y="592" type="curve" smooth="yes"/>
			<point x="485" y="592" type="line"/>
			<point x="380" y="64" type="line"/>
		</contour>
	</outline>
	<anchor name="aboveUC" x="580" y="678"/>
</glyph>
<glyph name="oe" format="2">
	<unicode hex="0153"/>
	<advance width="812"/>
	<outline>
		<contour>
			<point x="208" y="-12" type="curve" smooth="yes"/>
			<point x="286" y="-12"/>
			<point x="363" y="39"/>
			<point x="408" y="121" type="curve"/>
			<point x="426" y="33"/>
			<point x="486" y="-12"/>
			<point x="567" y="-12" type="curve" smooth="yes"/>
			<point x="630" y="-12"/>
			<point x="680" y="13"/>
			<point x="716" y="40" type="curve"/>
			<point x="686" y="89" type="line"/>
			<point x="655" y="66"/>
			<point x="620" y="50"/>
			<point x="578" y="50" type="curve" smooth="yes"/>
			<point x="504" y="50"/>
			<point x="446" y="100"/>
			<point x="461" y="225" type="curve"/>
			<point x="761" y="225" type="line"/>
			<point x="769" y="245"/>
			<point x="779" y="283"/>
			<point x="779" y="322" type="curve" smooth="yes"/>
			<point x="779" y="422"/>
			<point x="737" y="498"/>
			<point x="629" y="498" type="curve" smooth="yes"/>
			<point x="561" y="498"/>
			<point x="490" y="451"/>
			<point x="447" y="372" type="curve"/>
			<point x="429" y="453"/>
			<point x="379" y="498"/>
			<point x="297" y="498" type="curve" smooth="yes"/>
			<point x="167" y="498"/>
			<point x="39" y="367"/>
			<point x="39" y="183" type="curve" smooth="yes"/>
			<point x="39" y="62"/>
			<point x="106" y="-12"/>
		</contour>
		<contour>
			<point x="220" y="52" type="curve" smooth="yes"/>
			<point x="153" y="52"/>
			<point x="116" y="100"/>
			<point x="116" y="188" type="curve" smooth="yes"/>
			<point x="116" y="324"/>
			<point x="204" y="435"/>
			<point x="290" y="435" type="curve" smooth="yes"/>
			<point x="357" y="435"/>
			<point x="393" y="386"/>
			<point x="393" y="298" type="curve" smooth="yes"/>
			<point x="393" y="162"/>
			<point x="307" y="52"/>
		</contour>
		<contour>
			<point x="470" y="284" type="line"/>
			<point x="492" y="377"/>
			<point x="556" y="436"/>
			<point x="619" y="436" type="curve" smooth="yes"/>
			<point x="690" y="436"/>
			<point x="713" y="384"/>
			<point x="713" y="329" type="curve" smooth="yes"/>
			<point x="713" y="312"/>
			<point x="711" y="298"/>
			<point x="709" y="284" type="curve"/>
		</contour>
	</outline>
	<anchor name="aboveLC" x="463" y="509"/>
	<anchor name="belowLC" x="386" y="-22"/>
</glyph>
<glyph name="Tbar" format="2">
	<unicode hex="0166"/>
	<advance width="510"/>
	<outline>
		<contour>
			<point x="106" y="306" type="line"/>
			<point x="424" y="306" type="line"/>
			<point x="435" y="363" type="line"/>
			<point x="204" y="363" type="line"/>
			<point x="117" y="359" type="line"/>
		</contour>
		<component base="T"/>
	</outline>
	<anchor name="aboveUC" x="337" y="678"/>
	<anchor name="belowLC" x="201" y="-22"/>
</glyph>
<glyph name="tbar" format="2">
	<unicode hex="0167"/>
	<advance width="325"/>
	<outline>
		<contour>
			<point x="19" y="224" type="line"/>
			<point x="290" y="224" type="line"/>
			<point x="301" y="279" type="line"/>
			<point x="112" y="279" type="line"/>
			<point x="29" y="274" type="line"/>
		</contour>
		<component base="t"/>
	</outline>
	<anchor name="aboveLC" x="222" y="645"/>
	<anchor name="belowLC" x="161" y="-22"/>
</glyph>
<glyph name="Uogonek" format="1">
	<unicode hex="0172"/>
	<advance width="616"/>
	<outline>
		<contour>
			<point x="243" y="-211" type="curve" smooth="yes"/>
			<point x="266" y="-211"/>
			<point x="296" y="-202"/>
			<point x="319" y="-188" type="curve"/>
			<point x="302" y="-146" type="line"/>
			<point x="289" y="-154"/>
			<point x="279" y="-157"/>
			<point x="266" y="-157" type="curve" smooth="yes"/>
			<point x="246" y="-157"/>
			<point x="230" y="-143"/>
			<point x="230" y="-119" type="curve" smooth="yes"/>
			<point x="230" y="-84"/>
			<point x="262" y="-33"/>
			<point x="339" y="-7" type="curve" smooth="yes"/>
			<point x="440" y="28"/>
			<point x="502" y="92"/>
			<point x="532" y="251" type="curve" smooth="yes"/>
			<point x="614" y="656" type="line"/>
			<point x="538" y="656" type="line"/>
			<point x="457" y="254" type="line" smooth="yes"/>
			<point x="429" y="111"/>
			<point x="365" y="55"/>
			<point x="290" y="55" type="curve" smooth="yes"/>
			<point x="198" y="55"/>
			<point x="157" y="108"/>
			<point x="157" y="202" type="curve" smooth="yes"/>
			<point x="157" y="226"/>
			<point x="160" y="251"/>
			<point x="166" y="281" type="curve" smooth="yes"/>
			<point x="241" y="656" type="line"/>
			<point x="163" y="656" type="line"/>
			<point x="89" y="288" type="line" smooth="yes"/>
			<point x="83" y="255"/>
			<point x="79" y="223"/>
			<point x="79" y="195" type="curve" smooth="yes"/>
			<point x="79" y="74"/>
			<point x="139" y="4"/>
			<point x="249" y="-10" type="curve"/>
			<point x="208" y="-40"/>
			<point x="165" y="-94"/>
			<point x="165" y="-142" type="curve" smooth="yes"/>
			<point x="165" y="-187"/>
			<point x="197" y="-211"/>
		</contour>
		<contour>
			<point name="aboveUC" x="395" y="682" type="move"/>
		</contour>
	</outline>
</glyph>
<glyph name="uogonek" format="2">
	<unicode hex="0173"/>
	<advance width="522"/>
	<outline>
		<contour>
			<point x="302" y="-206" type="curve" smooth="yes"/>
			<point x="326" y="-206"/>
			<point x="356" y="-195"/>
			<point x="379" y="-181" type="curve"/>
			<point x="363" y="-143" type="line"/>
			<point x="350" y="-150"/>
			<point x="339" y="-154"/>
			<point x="325" y="-154" type="curve" smooth="yes"/>
			<point x="305" y="-154"/>
			<point x="289" y="-141"/>
			<point x="289" y="-118" type="curve" smooth="yes"/>
			<point x="289" y="-74"/>
			<point x="331" y="-31"/>
			<point x="399" y="0" type="curve"/>
			<point x="496" y="486" type="line"/>
			<point x="418" y="486" type="line"/>
			<point x="350" y="142" type="line"/>
			<point x="291" y="82"/>
			<point x="244" y="55"/>
			<point x="207" y="55" type="curve" smooth="yes"/>
			<point x="157" y="55"/>
			<point x="135" y="80"/>
			<point x="135" y="130" type="curve" smooth="yes"/>
			<point x="135" y="147"/>
			<point x="137" y="161"/>
			<point x="143" y="186" type="curve" smooth="yes"/>
			<point x="203" y="486" type="line"/>
			<point x="126" y="486" type="line"/>
			<point x="64" y="176" type="line" smooth="yes"/>
			<point x="58" y="150"/>
			<point x="56" y="132"/>
			<point x="56" y="109" type="curve" smooth="yes"/>
			<point x="56" y="35"/>
			<point x="89" y="-12"/>
			<point x="171" y="-12" type="curve" smooth="yes"/>
			<point x="230" y="-12"/>
			<point x="286" y="27"/>
			<point x="339" y="74" type="curve"/>
			<point x="343" y="74" type="line"/>
			<point x="337" y="6" type="line"/>
			<point x="285" y="-23"/>
			<point x="227" y="-79"/>
			<point x="227" y="-139" type="curve" smooth="yes"/>
			<point x="227" y="-183"/>
			<point x="259" y="-206"/>
		</contour>
	</outline>
	<anchor name="aboveLC" x="314" y="509"/>
</glyph>
<glyph name="longs" format="1">
	<unicode hex="017F"/>
	<advance width="282"/>
	<outline>
		<contour>
			<point x="43" y="0" type="line"/>
			<point x="119" y="0" type="line"/>
			<point x="234" y="569" type="line" smooth="yes"/>
			<point x="245" y="626"/>
			<point x="272" y="662"/>
			<point x="316" y="662" type="curve" smooth="yes"/>
			<point x="339" y="662"/>
			<point x="356" y="654"/>
			<point x="370" y="645" type="curve"/>
			<point x="397" y="700" type="line"/>
			<point x="373" y="714"/>
			<point x="346" y="724"/>
			<point x="311" y="724" type="curve" smooth="yes"/>
			<point x="230" y="724"/>
			<point x="177" y="666"/>
			<point x="157" y="567" type="curve" smooth="yes"/>
		</contour>
		<contour>
			<point x="65" y="424" type="line"/>
			<point x="168" y="424" type="line"/>
			<point x="181" y="486" type="line"/>
			<point x="142" y="486" type="line"/>
			<point x="76" y="481" type="line"/>
		</contour>
		<contour>
			<point name="aboveUC" x="298" y="726" type="move"/>
		</contour>
		<contour>
			<point name="belowLC" x="82" y="-22" type="move"/>
		</contour>
	</outline>
</glyph>
<glyph name="bstroke" format="1">
	<unicode hex="0180"/>
	<advance width="519"/>
	<outline>
		<contour>
			<point x="234" y="-12" type="curve" smooth="yes"/>
			<point x="368" y="-12"/>
			<point x="492" y="131"/>
			<point x="492" y="312" type="curve" smooth="yes"/>
			<point x="492" y="419"/>
			<point x="437" y="478"/>
			<point x="352" y="478" type="curve" smooth="yes"/>
			<point x="292" y="478"/>
			<point x="235" y="445"/>
			<point x="187" y="406" type="curve"/>
			<point x="185" y="406" type="line"/>
			<point x="207" y="502" type="line"/>
			<point x="250" y="712" type="line"/>
			<point x="173" y="712" type="line"/>
			<point x="31" y="0" type="line"/>
			<point x="94" y="0" type="line"/>
			<point x="114" y="61" type="line"/>
			<point x="117" y="61" type="line"/>
			<point x="140" y="17"/>
			<point x="182" y="-12"/>
		</contour>
		<contour>
			<point x="324" y="414" type="curve" smooth="yes"/>
			<point x="379" y="414"/>
			<point x="413" y="376"/>
			<point x="413" y="301" type="curve" smooth="yes"/>
			<point x="413" y="171"/>
			<point x="328" y="52"/>
			<point x="231" y="52" type="curve" smooth="yes"/>
			<point x="193" y="52"/>
			<point x="159" y="73"/>
			<point x="132" y="124" type="curve"/>
			<point x="174" y="335" type="line"/>
			<point x="220" y="384"/>
			<point x="279" y="414"/>
		</contour>
		<contour>
			<point x="74" y="569" type="line"/>
			<point x="395" y="569" type="line"/>
			<point x="406" y="620" type="line"/>
			<point x="157" y="620" type="line"/>
			<point x="83" y="616" type="line"/>
		</contour>
	</outline>
</glyph>
<glyph name="Bhook" format="2">
	<unicode hex="0181"/>
	<advance width="703"/>
	<outline>
		<contour>
			<point x="194" y="0" type="line"/>
			<point x="379" y="0" type="line" smooth="yes"/>
			<point x="535" y="0"/>
			<point x="651" y="64"/>
			<point x="651" y="210" type="curve" smooth="yes"/>
			<point x="651" y="285"/>
			<point x="599" y="327"/>
			<point x="531" y="343" type="curve"/>
			<point x="531" y="347" type="line"/>
			<point x="604" y="363"/>
			<point x="678" y="422"/>
			<point x="678" y="511" type="curve" smooth="yes"/>
			<point x="678" y="610"/>
			<point x="605" y="668"/>
			<point x="421" y="668" type="curve" smooth="yes"/>
			<point x="165" y="668"/>
			<point x="56" y="514"/>
			<point x="56" y="383" type="curve" smooth="yes"/>
			<point x="56" y="321"/>
			<point x="88" y="274"/>
			<point x="139" y="248" type="curve"/>
			<point x="179" y="302" type="line"/>
			<point x="144" y="323"/>
			<point x="127" y="348"/>
			<point x="127" y="394" type="curve" smooth="yes"/>
			<point x="127" y="478"/>
			<point x="207" y="604"/>
			<point x="387" y="604" type="curve" smooth="yes"/>
			<point x="434" y="604" type="line" smooth="yes"/>
			<point x="553" y="604"/>
			<point x="599" y="565"/>
			<point x="599" y="500" type="curve" smooth="yes"/>
			<point x="599" y="426"/>
			<point x="540" y="374"/>
			<point x="415" y="374" type="curve" smooth="yes"/>
			<point x="346" y="374" type="line"/>
			<point x="397" y="627" type="line"/>
			<point x="319" y="627" type="line"/>
		</contour>
		<contour>
			<point x="283" y="61" type="line"/>
			<point x="335" y="317" type="line"/>
			<point x="426" y="317" type="line" smooth="yes"/>
			<point x="523" y="317"/>
			<point x="576" y="277"/>
			<point x="576" y="206" type="curve" smooth="yes"/>
			<point x="576" y="104"/>
			<point x="497" y="61"/>
			<point x="372" y="61" type="curve" smooth="yes"/>
		</contour>
	</outline>
	<anchor name="aboveUC" x="479" y="678"/>
	<anchor name="belowLC" x="402" y="-22"/>
</glyph>
<glyph name="Oopen" format="2">
	<unicode hex="0186"/>
	<advance width="545"/>
	<outline>
		<contour>
			<point x="199" y="-12" type="curve" smooth="yes"/>
			<point x="386" y="-12"/>
			<point x="523" y="163"/>
			<point x="523" y="394" type="curve" smooth="yes"/>
			<point x="523" y="570"/>
			<point x="437" y="668"/>
			<point x="306" y="668" type="curve" smooth="yes"/>
			<point x="231" y="668"/>
			<point x="160" y="636"/>
			<point x="115" y="594" type="curve"/>
			<point x="145" y="541" type="line"/>
			<point x="190" y="578"/>
			<point x="243" y="602"/>
			<point x="296" y="602" type="curve" smooth="yes"/>
			<point x="393" y="602"/>
			<point x="443" y="523"/>
			<point x="443" y="390" type="curve" smooth="yes"/>
			<point x="443" y="205"/>
			<point x="340" y="54"/>
			<point x="203" y="54" type="curve" smooth="yes"/>
			<point x="138" y="54"/>
			<point x="91" y="80"/>
			<point x="55" y="126" type="curve"/>
			<point x="15" y="79" type="line"/>
			<point x="54" y="20"/>
			<point x="119" y="-12"/>
		</contour>
	</outline>
	<anchor name="aboveUC" x="320" y="678"/>
	<anchor name="baseLC" x="214" y="0"/>
	<anchor name="belowLC" x="201" y="-22"/>
	<anchor name="ogonekUC" x="217" y="0"/>
</glyph>
<glyph name="Dhook" format="1">
	<unicode hex="018A"/>
	<advance width="732"/>
	<outline>
		<contour>
			<point x="194" y="0" type="line"/>
			<point x="348" y="0" type="line" smooth="yes"/>
			<point x="566" y="0"/>
			<point x="702" y="162"/>
			<point x="702" y="410" type="curve" smooth="yes"/>
			<point x="702" y="567"/>
			<point x="616" y="668"/>
			<point x="421" y="668" type="curve" smooth="yes"/>
			<point x="165" y="668"/>
			<point x="56" y="514"/>
			<point x="56" y="383" type="curve" smooth="yes"/>
			<point x="56" y="321"/>
			<point x="87" y="274"/>
			<point x="138" y="248" type="curve"/>
			<point x="182" y="304" type="line"/>
			<point x="145" y="326"/>
			<point x="127" y="352"/>
			<point x="127" y="394" type="curve" smooth="yes"/>
			<point x="127" y="480"/>
			<point x="207" y="604"/>
			<point x="388" y="604" type="curve" smooth="yes"/>
			<point x="420" y="604" type="line" smooth="yes"/>
			<point x="561" y="604"/>
			<point x="623" y="531"/>
			<point x="623" y="405" type="curve" smooth="yes"/>
			<point x="623" y="200"/>
			<point x="515" y="64"/>
			<point x="346" y="64" type="curve" smooth="yes"/>
			<point x="284" y="64" type="line"/>
			<point x="397" y="627" type="line"/>
			<point x="319" y="627" type="line"/>
		</contour>
		<contour>
			<point name="aboveUC" x="489" y="677" type="move"/>
		</contour>
		<contour>
			<point name="belowLC" x="369" y="-21" type="move"/>
		</contour>
	</outline>
</glyph>
<glyph name="Schwa" format="2">
	<unicode hex="018F"/>
	<advance width="636"/>
	<outline>
		<contour>
			<point x="278" y="-12" type="curve" smooth="yes"/>
			<point x="467" y="-12"/>
			<point x="612" y="160"/>
			<point x="612" y="394" type="curve" smooth="yes"/>
			<point x="612" y="561"/>
			<point x="534" y="668"/>
			<point x="390" y="668" type="curve" smooth="yes"/>
			<point x="312" y="668"/>
			<point x="244" y="635"/>
			<point x="194" y="590" type="curve"/>
			<point x="231" y="539" type="line"/>
			<point x="271" y="574"/>
			<point x="324" y="603"/>
			<point x="382" y="603" type="curve" smooth="yes"/>
			<point x="493" y="603"/>
			<point x="534" y="517"/>
			<point x="534" y="386" type="curve" smooth="yes"/>
			<point x="534" y="196"/>
			<point x="426" y="54"/>
			<point x="284" y="54" type="curve" smooth="yes"/>
			<point x="180" y="54"/>
			<point x="120" y="139"/>
			<point x="140" y="283" type="curve"/>
			<point x="537" y="283" type="line"/>
			<point x="550" y="342" type="line"/>
			<point x="79" y="342" type="line"/>
			<point x="68" y="304"/>
			<point x="63" y="274"/>
			<point x="63" y="231" type="curve" smooth="yes"/>
			<point x="63" y="88"/>
			<point x="143" y="-12"/>
		</contour>
	</outline>
	<anchor name="aboveUC" x="419" y="678"/>
	<anchor name="belowLC" x="294" y="-22"/>
</glyph>
<glyph name="Eopen" format="2">
	<unicode hex="0190"/>
	<advance width="531"/>
	<outline>
		<contour>
			<point x="231" y="-12" type="curve" smooth="yes"/>
			<point x="332" y="-12"/>
			<point x="403" y="24"/>
			<point x="467" y="81" type="curve"/>
			<point x="434" y="128" type="line"/>
			<point x="380" y="83"/>
			<point x="318" y="54"/>
			<point x="242" y="54" type="curve" smooth="yes"/>
			<point x="160" y="54"/>
			<point x="109" y="94"/>
			<point x="109" y="164" type="curve" smooth="yes"/>
			<point x="109" y="246"/>
			<point x="198" y="316"/>
			<point x="314" y="316" type="curve" smooth="yes"/>
			<point x="382" y="316" type="line"/>
			<point x="393" y="374" type="line"/>
			<point x="343" y="374" type="line" smooth="yes"/>
			<point x="240" y="374"/>
			<point x="203" y="420"/>
			<point x="203" y="477" type="curve" smooth="yes"/>
			<point x="203" y="551"/>
			<point x="271" y="602"/>
			<point x="352" y="602" type="curve" smooth="yes"/>
			<point x="413" y="602"/>
			<point x="458" y="578"/>
			<point x="485" y="534" type="curve"/>
			<point x="530" y="573" type="line"/>
			<point x="502" y="630"/>
			<point x="433" y="668"/>
			<point x="353" y="668" type="curve" smooth="yes"/>
			<point x="225" y="668"/>
			<point x="126" y="586"/>
			<point x="126" y="481" type="curve" smooth="yes"/>
			<point x="126" y="416"/>
			<point x="169" y="369"/>
			<point x="216" y="351" type="curve"/>
			<point x="216" y="347" type="line"/>
			<point x="125" y="325"/>
			<point x="26" y="253"/>
			<point x="26" y="146" type="curve" smooth="yes"/>
			<point x="26" y="49"/>
			<point x="104" y="-12"/>
		</contour>
	</outline>
	<anchor name="aboveUC" x="361" y="678"/>
	<anchor name="baseLC" x="228" y="0"/>
	<anchor name="belowLC" x="222" y="-22"/>
	<anchor name="ogonekUC" x="228" y="0"/>
</glyph>
<glyph name="florin" format="2">
	<unicode hex="0192"/>
	<advance width="283"/>
	<outline>
		<contour>
			<point x="-37" y="-217" type="curve" smooth="yes"/>
			<point x="47" y="-217"/>
			<point x="90" y="-152"/>
			<point x="108" y="-62" type="curve" smooth="yes"/>
			<point x="204" y="424" type="line"/>
			<point x="303" y="424" type="line"/>
			<point x="316" y="486" type="line"/>
			<point x="218" y="486" type="line"/>
			<point x="234" y="569" type="line" smooth="yes"/>
			<point x="245" y="625"/>
			<point x="273" y="661"/>
			<point x="316" y="661" type="curve" smooth="yes"/>
			<point x="340" y="661"/>
			<point x="358" y="655"/>
			<point x="372" y="646" type="curve"/>
			<point x="398" y="700" type="line"/>
			<point x="375" y="714"/>
			<point x="346" y="724"/>
			<point x="311" y="724" type="curve" smooth="yes"/>
			<point x="229" y="724"/>
			<point x="177" y="664"/>
			<point x="157" y="567" type="curve" smooth="yes"/>
			<point x="141" y="486" type="line"/>
			<point x="76" y="481" type="line"/>
			<point x="65" y="424" type="line"/>
			<point x="128" y="424" type="line"/>
			<point x="30" y="-61" type="line" smooth="yes"/>
			<point x="17" y="-120"/>
			<point x="-4" y="-153"/>
			<point x="-43" y="-153" type="curve" smooth="yes"/>
			<point x="-60" y="-153"/>
			<point x="-75" y="-151"/>
			<point x="-89" y="-143" type="curve"/>
			<point x="-111" y="-199" type="line"/>
			<point x="-90" y="-212"/>
			<point x="-65" y="-217"/>
		</contour>
	</outline>
	<anchor name="aboveUC" x="299" y="726"/>
	<anchor name="belowLC" x="-21" y="-212"/>
</glyph>
<glyph name="Ghook" format="2">
	<unicode hex="0193"/>
	<advance width="589"/>
	<outline>
		<contour>
			<point x="503" y="580" type="curve"/>
			<point x="569" y="574" type="line"/>
			<point x="556" y="609"/>
			<point x="552" y="637"/>
			<point x="552" y="664" type="curve" smooth="yes"/>
			<point x="552" y="711"/>
			<point x="573" y="739"/>
			<point x="609" y="739" type="curve" smooth="yes"/>
			<point x="626" y="739"/>
			<point x="634" y="735"/>
			<point x="646" y="727" type="curve"/>
			<point x="672" y="781" type="line"/>
			<point x="654" y="792"/>
			<point x="629" y="801"/>
			<point x="602" y="801" type="curve" smooth="yes"/>
			<point x="531" y="801"/>
			<point x="489" y="749"/>
			<point x="489" y="683" type="curve" smooth="yes"/>
			<point x="489" y="656"/>
			<point x="493" y="620"/>
		</contour>
		<component base="G"/>
	</outline>
	<anchor name="aboveUC" x="335" y="678"/>
	<anchor name="belowLC" x="281" y="-22"/>
</glyph>
<glyph name="Gammalatin" format="2">
	<unicode hex="0194"/>
	<advance width="470"/>
	<outline>
		<contour>
			<point x="143" y="-224" type="curve" smooth="yes"/>
			<point x="225" y="-224"/>
			<point x="273" y="-158"/>
			<point x="273" y="-76" type="curve" smooth="yes"/>
			<point x="273" y="-42"/>
			<point x="267" y="-4"/>
			<point x="245" y="75" type="curve"/>
			<point x="242" y="30" type="line"/>
			<point x="577" y="656" type="line"/>
			<point x="493" y="656" type="line"/>
			<point x="316" y="304" type="line" smooth="yes"/>
			<point x="281" y="235"/>
			<point x="245" y="163"/>
			<point x="212" y="92" type="curve"/>
			<point x="208" y="92" type="line"/>
			<point x="204" y="164"/>
			<point x="198" y="234"/>
			<point x="192" y="304" type="curve" smooth="yes"/>
			<point x="161" y="656" type="line"/>
			<point x="82" y="656" type="line"/>
			<point x="155" y="32" type="line"/>
			<point x="165" y="76" type="line"/>
			<point x="97" y="-12"/>
			<point x="55" y="-76"/>
			<point x="55" y="-138" type="curve" smooth="yes"/>
			<point x="55" y="-191"/>
			<point x="90" y="-224"/>
		</contour>
		<contour>
			<point x="153" y="-168" type="curve" smooth="yes"/>
			<point x="133" y="-168"/>
			<point x="120" y="-154"/>
			<point x="120" y="-130" type="curve" smooth="yes"/>
			<point x="120" y="-91"/>
			<point x="152" y="-39"/>
			<point x="192" y="15" type="curve"/>
			<point x="196" y="15" type="line"/>
			<point x="204" y="-20"/>
			<point x="208" y="-51"/>
			<point x="208" y="-82" type="curve" smooth="yes"/>
			<point x="208" y="-131"/>
			<point x="192" y="-168"/>
		</contour>
	</outline>
	<anchor name="aboveUC" x="304" y="678"/>
	<anchor name="belowLC" x="138" y="-207"/>
</glyph>
<glyph name="Iotalatin" format="2">
	<unicode hex="0196"/>
	<advance width="249"/>
	<outline>
		<contour>
			<point x="118" y="-9" type="curve" smooth="yes"/>
			<point x="136" y="-9"/>
			<point x="151" y="-5"/>
			<point x="166" y="0" type="curve"/>
			<point x="160" y="60" type="line"/>
			<point x="152" y="58"/>
			<point x="149" y="58"/>
			<point x="145" y="58" type="curve" smooth="yes"/>
			<point x="135" y="58"/>
			<point x="130" y="64"/>
			<point x="130" y="74" type="curve" smooth="yes"/>
			<point x="130" y="79"/>
			<point x="130" y="85"/>
			<point x="132" y="95" type="curve" smooth="yes"/>
			<point x="244" y="656" type="line"/>
			<point x="166" y="656" type="line"/>
			<point x="54" y="95" type="line" smooth="yes"/>
			<point x="50" y="79"/>
			<point x="48" y="65"/>
			<point x="48" y="54" type="curve" smooth="yes"/>
			<point x="48" y="14"/>
			<point x="71" y="-9"/>
		</contour>
	</outline>
	<anchor name="aboveUC" x="208" y="678"/>
	<anchor name="belowLC" x="96" y="-22"/>
</glyph>
<glyph name="Istroke" format="2">
	<unicode hex="0197"/>
	<advance width="289"/>
	<outline>
		<contour>
			<point x="41" y="315" type="line"/>
			<point x="270" y="315" type="line"/>
			<point x="282" y="375" type="line"/>
			<point x="130" y="375" type="line"/>
			<point x="53" y="370" type="line"/>
		</contour>
		<component base="I" xOffset="20"/>
	</outline>
	<anchor name="aboveUC" x="228" y="678"/>
	<anchor name="belowLC" x="92" y="-22"/>
</glyph>
<glyph name="lbar" format="2">
	<unicode hex="019A"/>
	<advance width="303"/>
	<outline>
		<contour>
			<point x="35" y="360" type="line"/>
			<point x="303" y="360" type="line"/>
			<point x="315" y="418" type="line"/>
			<point x="143" y="418" type="line"/>
			<point x="46" y="413" type="line"/>
		</contour>
		<component base="l" xOffset="27"/>
	</outline>
	<anchor name="aboveUC" x="245" y="728"/>
	<anchor name="belowLC" x="122" y="-22"/>
</glyph>
<glyph name="lambdabar" format="2">
	<unicode hex="019B"/>
	<advance width="448"/>
	<outline>
		<contour>
			<point x="111" y="466" type="line"/>
			<point x="454" y="608" type="line"/>
			<point x="433" y="662" type="line"/>
			<point x="90" y="519" type="line"/>
		</contour>
		<component base="lambda.latin"/>
	</outline>
	<anchor name="aboverightUC" x="389" y="678"/>
	<anchor name="aboveUC" x="271" y="728"/>
	<anchor name="belowLC" x="198" y="-22"/>
</glyph>
<glyph name="lambdastroke" format="2">
	<unicode hex="019B"/>
	<advance width="448"/>
	<outline>
		<contour>
			<point x="108" y="473" type="line"/>
			<point x="452" y="615" type="line"/>
			<point x="435" y="656" type="line"/>
			<point x="92" y="514" type="line"/>
		</contour>
		<component base="lambda.latin"/>
	</outline>
</glyph>
<glyph name="Ohorn" format="2">
	<unicode hex="01A0"/>
	<advance width="634"/>
	<outline>
		<contour>
			<point x="530" y="605" type="line"/>
			<point x="604" y="618"/>
			<point x="659" y="664"/>
			<point x="659" y="741" type="curve" smooth="yes"/>
			<point x="659" y="760"/>
			<point x="655" y="777"/>
			<point x="647" y="798" type="curve"/>
			<point x="584" y="776" type="line"/>
			<point x="591" y="761"/>
			<point x="593" y="747"/>
			<point x="593" y="735" type="curve" smooth="yes"/>
			<point x="593" y="682"/>
			<point x="554" y="644"/>
			<point x="488" y="640" type="curve"/>
		</contour>
		<component base="O"/>
	</outline>
	<anchor name="aboveUC" x="407" y="678"/>
	<anchor name="belowLC" x="277" y="-22"/>
</glyph>
<glyph name="ohorn" format="2">
	<unicode hex="01A1"/>
	<advance width="517"/>
	<outline>
		<contour>
			<point x="423" y="439" type="line"/>
			<point x="491" y="453"/>
			<point x="554" y="501"/>
			<point x="554" y="583" type="curve" smooth="yes"/>
			<point x="554" y="601"/>
			<point x="550" y="624"/>
			<point x="543" y="644" type="curve"/>
			<point x="481" y="622" type="line"/>
			<point x="486" y="608"/>
			<point x="489" y="589"/>
			<point x="489" y="577" type="curve" smooth="yes"/>
			<point x="486" y="518"/>
			<point x="445" y="480"/>
			<point x="383" y="474" type="curve"/>
		</contour>
		<component base="o"/>
	</outline>
	<anchor name="aboveLC" x="315" y="509"/>
	<anchor name="belowLC" x="192" y="-22"/>
</glyph>
<glyph name="Uhorn" format="2">
	<unicode hex="01AF"/>
	<advance width="630"/>
	<outline>
		<contour>
			<point x="603" y="620" type="line"/>
			<point x="683" y="633"/>
			<point x="740" y="674"/>
			<point x="740" y="751" type="curve" smooth="yes"/>
			<point x="740" y="770"/>
			<point x="737" y="787"/>
			<point x="729" y="808" type="curve"/>
			<point x="666" y="786" type="line"/>
			<point x="672" y="771"/>
			<point x="674" y="757"/>
			<point x="674" y="745" type="curve" smooth="yes"/>
			<point x="674" y="692"/>
			<point x="635" y="660"/>
			<point x="569" y="656" type="curve"/>
		</contour>
		<component base="U"/>
	</outline>
	<anchor name="aboveUC" x="395" y="678"/>
	<anchor name="belowLC" x="259" y="-22"/>
</glyph>
<glyph name="uhorn" format="1">
	<unicode hex="01B0"/>
	<advance width="543"/>
	<outline>
		<contour>
			<point x="483" y="451" type="line"/>
			<point x="540" y="464"/>
			<point x="603" y="510"/>
			<point x="603" y="593" type="curve" smooth="yes"/>
			<point x="603" y="611"/>
			<point x="599" y="634"/>
			<point x="592" y="654" type="curve"/>
			<point x="531" y="632" type="line"/>
			<point x="536" y="618"/>
			<point x="539" y="599"/>
			<point x="538" y="587" type="curve" smooth="yes"/>
			<point x="536" y="527"/>
			<point x="494" y="491"/>
			<point x="446" y="486" type="curve"/>
		</contour>
		<component base="u"/>
		<contour>
			<point name="aboveLC" x="314" y="509" type="move"/>
		</contour>
		<contour>
			<point name="belowLC" x="227" y="-25" type="move"/>
		</contour>
	</outline>
</glyph>
<glyph name="Ezh" format="2">
	<unicode hex="01B7"/>
	<advance width="531"/>
	<outline>
		<contour>
			<point x="223" y="-12" type="curve" smooth="yes"/>
			<point x="374" y="-12"/>
			<point x="482" y="74"/>
			<point x="482" y="210" type="curve" smooth="yes"/>
			<point x="482" y="317"/>
			<point x="411" y="378"/>
			<point x="294" y="370" type="curve"/>
			<point x="534" y="610" type="line"/>
			<point x="544" y="656" type="line"/>
			<point x="151" y="656" type="line"/>
			<point x="138" y="591" type="line"/>
			<point x="428" y="591" type="line"/>
			<point x="180" y="351" type="line"/>
			<point x="205" y="303" type="line"/>
			<point x="233" y="314"/>
			<point x="250" y="317"/>
			<point x="287" y="317" type="curve" smooth="yes"/>
			<point x="357" y="317"/>
			<point x="402" y="277"/>
			<point x="402" y="199" type="curve" smooth="yes"/>
			<point x="402" y="112"/>
			<point x="323" y="56"/>
			<point x="228" y="56" type="curve" smooth="yes"/>
			<point x="163" y="56"/>
			<point x="101" y="76"/>
			<point x="51" y="132" type="curve"/>
			<point x="12" y="83" type="line"/>
			<point x="64" y="15"/>
			<point x="143" y="-12"/>
		</contour>
	</outline>
	<anchor name="aboveUC" x="340" y="678"/>
	<anchor name="belowLC" x="231" y="-22"/>
</glyph>
<glyph name="wynn" format="2">
	<unicode hex="01BF"/>
	<advance width="527"/>
	<outline>
		<contour>
			<point x="-10" y="-205" type="line"/>
			<point x="66" y="-205" type="line"/>
			<point x="87" y="-95" type="line"/>
			<point x="102" y="-12" type="line"/>
			<point x="340" y="52"/>
			<point x="496" y="210"/>
			<point x="496" y="371" type="curve" smooth="yes"/>
			<point x="496" y="450"/>
			<point x="448" y="498"/>
			<point x="366" y="498" type="curve" smooth="yes"/>
			<point x="305" y="498"/>
			<point x="249" y="471"/>
			<point x="184" y="405" type="curve"/>
			<point x="182" y="405" type="line"/>
			<point x="191" y="486" type="line"/>
			<point x="128" y="486" type="line"/>
		</contour>
		<contour>
			<point x="117" y="54" type="curve"/>
			<point x="174" y="335" type="line"/>
			<point x="241" y="413"/>
			<point x="291" y="434"/>
			<point x="340" y="434" type="curve" smooth="yes"/>
			<point x="390" y="434"/>
			<point x="417" y="401"/>
			<point x="417" y="351" type="curve" smooth="yes"/>
			<point x="417" y="236"/>
			<point x="293" y="107"/>
		</contour>
	</outline>
	<anchor name="aboveLC" x="331" y="509"/>
	<anchor name="belowLC" x="35" y="-207"/>
</glyph>
<glyph name="clickalveolar" format="1">
	<unicode hex="01C2"/>
	<advance width="296"/>
	<outline>
		<contour>
			<point x="-19" y="255" type="line"/>
			<point x="289" y="255" type="line"/>
			<point x="301" y="308" type="line"/>
			<point x="68" y="308" type="line"/>
			<point x="-10" y="303" type="line"/>
		</contour>
		<contour>
			<point x="14" y="419" type="line"/>
			<point x="322" y="419" type="line"/>
			<point x="333" y="472" type="line"/>
			<point x="101" y="472" type="line"/>
			<point x="23" y="468" type="line"/>
		</contour>
		<component base="l.a" xOffset="18" yOffset="8"/>
		<contour>
			<point name="aboveUC" x="228" y="726" type="move"/>
		</contour>
		<contour>
			<point name="belowLC" x="82" y="-22" type="move"/>
		</contour>
	</outline>
</glyph>
<glyph name="clickretroflex" format="2">
	<unicode hex="01C3"/>
	<advance width="247"/>
	<outline>
		<contour>
			<point x="90" y="197" type="line"/>
			<point x="144" y="197" type="line"/>
			<point x="230" y="579" type="line"/>
			<point x="258" y="712" type="line"/>
			<point x="179" y="712" type="line"/>
			<point x="157" y="579" type="line"/>
		</contour>
		<contour>
			<point x="78" y="-12" type="curve" smooth="yes"/>
			<point x="117" y="-12"/>
			<point x="145" y="23"/>
			<point x="145" y="57" type="curve" smooth="yes"/>
			<point x="145" y="87"/>
			<point x="128" y="109"/>
			<point x="98" y="109" type="curve" smooth="yes"/>
			<point x="60" y="109"/>
			<point x="31" y="72"/>
			<point x="31" y="38" type="curve" smooth="yes"/>
			<point x="31" y="9"/>
			<point x="49" y="-12"/>
		</contour>
	</outline>
	<anchor name="aboveUC" x="226" y="726"/>
	<anchor name="belowLC" x="74" y="-22"/>
</glyph>
<glyph name="Gstroke" format="2">
	<unicode hex="01E4"/>
	<advance width="628"/>
	<outline>
		<contour>
			<point x="300" y="-12" type="curve" smooth="yes"/>
			<point x="375" y="-12"/>
			<point x="439" y="15"/>
			<point x="486" y="55" type="curve"/>
			<point x="543" y="339" type="line"/>
			<point x="473" y="339" type="line"/>
			<point x="423" y="94" type="line"/>
			<point x="397" y="72"/>
			<point x="359" y="54"/>
			<point x="311" y="54" type="curve" smooth="yes"/>
			<point x="185" y="54"/>
			<point x="136" y="143"/>
			<point x="136" y="260" type="curve" smooth="yes"/>
			<point x="136" y="419"/>
			<point x="237" y="601"/>
			<point x="398" y="601" type="curve" smooth="yes"/>
			<point x="455" y="601"/>
			<point x="496" y="575"/>
			<point x="523" y="530" type="curve"/>
			<point x="569" y="574" type="line"/>
			<point x="538" y="629"/>
			<point x="481" y="668"/>
			<point x="402" y="668" type="curve" smooth="yes"/>
			<point x="191" y="668"/>
			<point x="57" y="461"/>
			<point x="57" y="253" type="curve" smooth="yes"/>
			<point x="57" y="93"/>
			<point x="142" y="-12"/>
		</contour>
		<contour>
			<point x="310" y="195" type="line"/>
			<point x="586" y="195" type="line"/>
			<point x="598" y="255" type="line"/>
			<point x="458" y="255" type="line"/>
			<point x="322" y="250" type="line"/>
		</contour>
	</outline>
	<anchor name="aboveUC" x="397" y="678"/>
	<anchor name="belowLC" x="281" y="-22"/>
</glyph>
<glyph name="gstroke" format="2">
	<unicode hex="01E5"/>
	<advance width="544"/>
	<outline>
		<contour>
			<point x="255" y="231" type="line"/>
			<point x="536" y="231" type="line"/>
			<point x="548" y="289" type="line"/>
			<point x="385" y="289" type="line"/>
			<point x="268" y="284" type="line"/>
		</contour>
		<component base="g"/>
	</outline>
	<anchor name="aboveLC" x="310" y="509"/>
	<anchor name="belowLC" x="181" y="-207"/>
</glyph>
<glyph name="Oogonek" format="2">
	<unicode hex="01EA"/>
	<advance width="634"/>
	<outline>
		<contour>
			<point x="231" y="-219" type="curve" smooth="yes"/>
			<point x="264" y="-219"/>
			<point x="297" y="-208"/>
			<point x="324" y="-186" type="curve"/>
			<point x="305" y="-144" type="line"/>
			<point x="288" y="-156"/>
			<point x="276" y="-160"/>
			<point x="260" y="-160" type="curve" smooth="yes"/>
			<point x="235" y="-160"/>
			<point x="217" y="-145"/>
			<point x="217" y="-120" type="curve" smooth="yes"/>
			<point x="217" y="-83"/>
			<point x="252" y="-21"/>
			<point x="327" y="-9" type="curve" smooth="yes"/>
			<point x="507" y="21"/>
			<point x="606" y="221"/>
			<point x="606" y="394" type="curve" smooth="yes"/>
			<point x="606" y="559"/>
			<point x="526" y="668"/>
			<point x="379" y="668" type="curve" smooth="yes"/>
			<point x="191" y="668"/>
			<point x="60" y="463"/>
			<point x="60" y="263" type="curve" smooth="yes"/>
			<point x="60" y="97"/>
			<point x="140" y="-12"/>
			<point x="287" y="-12" type="curve"/>
			<point x="251" y="1" type="line"/>
			<point x="199" y="-28"/>
			<point x="144" y="-87"/>
			<point x="144" y="-146" type="curve" smooth="yes"/>
			<point x="144" y="-194"/>
			<point x="181" y="-219"/>
		</contour>
		<contour>
			<point x="291" y="56" type="curve" smooth="yes"/>
			<point x="187" y="56"/>
			<point x="140" y="141"/>
			<point x="140" y="269" type="curve" smooth="yes"/>
			<point x="140" y="423"/>
			<point x="235" y="600"/>
			<point x="375" y="600" type="curve" smooth="yes"/>
			<point x="479" y="600"/>
			<point x="526" y="515"/>
			<point x="526" y="387" type="curve" smooth="yes"/>
			<point x="526" y="234"/>
			<point x="431" y="56"/>
		</contour>
	</outline>
	<anchor name="aboveUC" x="397" y="678"/>
</glyph>
<glyph name="oogonek" format="1">
	<unicode hex="01EB"/>
	<advance width="515"/>
	<outline>
		<contour>
			<point x="171" y="-206" type="curve" smooth="yes"/>
			<point x="194" y="-206"/>
			<point x="224" y="-195"/>
			<point x="247" y="-181" type="curve"/>
			<point x="231" y="-143" type="line"/>
			<point x="218" y="-151"/>
			<point x="207" y="-155"/>
			<point x="193" y="-155" type="curve" smooth="yes"/>
			<point x="173" y="-155"/>
			<point x="157" y="-141"/>
			<point x="157" y="-118" type="curve" smooth="yes"/>
			<point x="157" y="-81"/>
			<point x="183" y="-33"/>
			<point x="266" y="-6" type="curve" smooth="yes"/>
			<point x="396" y="35"/>
			<point x="475" y="159"/>
			<point x="475" y="303" type="curve" smooth="yes"/>
			<point x="475" y="427"/>
			<point x="403" y="498"/>
			<point x="301" y="498" type="curve" smooth="yes"/>
			<point x="168" y="498"/>
			<point x="39" y="367"/>
			<point x="39" y="183" type="curve" smooth="yes"/>
			<point x="39" y="62"/>
			<point x="107" y="-12"/>
			<point x="212" y="-12" type="curve"/>
			<point x="206" y="2" type="line"/>
			<point x="150" y="-22"/>
			<point x="96" y="-81"/>
			<point x="96" y="-139" type="curve" smooth="yes"/>
			<point x="96" y="-183"/>
			<point x="127" y="-206"/>
		</contour>
		<contour>
			<point x="220" y="52" type="curve" smooth="yes"/>
			<point x="153" y="52"/>
			<point x="116" y="100"/>
			<point x="116" y="188" type="curve" smooth="yes"/>
			<point x="116" y="324"/>
			<point x="204" y="435"/>
			<point x="293" y="435" type="curve" smooth="yes"/>
			<point x="360" y="435"/>
			<point x="397" y="386"/>
			<point x="397" y="298" type="curve" smooth="yes"/>
			<point x="397" y="162"/>
			<point x="310" y="52"/>
		</contour>
		<contour>
			<point name="aboveLC" x="319" y="509" type="move"/>
		</contour>
	</outline>
</glyph>
<glyph name="Wynn" format="2">
	<unicode hex="01F7"/>
	<advance width="550"/>
	<outline>
		<contour>
			<point x="5" y="-153" type="line"/>
			<point x="82" y="-153" type="line"/>
			<point x="113" y="-2" type="line"/>
			<point x="440" y="160"/>
			<point x="557" y="360"/>
			<point x="557" y="525" type="curve" smooth="yes"/>
			<point x="557" y="627"/>
			<point x="503" y="668"/>
			<point x="422" y="668" type="curve" smooth="yes"/>
			<point x="352" y="668"/>
			<point x="286" y="628"/>
			<point x="225" y="576" type="curve"/>
			<point x="240" y="656" type="line"/>
			<point x="166" y="656" type="line"/>
		</contour>
		<contour>
			<point x="127" y="74" type="curve"/>
			<point x="212" y="497" type="line"/>
			<point x="277" y="565"/>
			<point x="350" y="601"/>
			<point x="395" y="601" type="curve" smooth="yes"/>
			<point x="442" y="601"/>
			<point x="480" y="574"/>
			<point x="480" y="502" type="curve" smooth="yes"/>
			<point x="480" y="382"/>
			<point x="386" y="216"/>
		</contour>
	</outline>
	<anchor name="aboveUC" x="385" y="678"/>
	<anchor name="belowLC" x="55" y="-157"/>
</glyph>
<glyph name="Yogh" format="2">
	<unicode hex="021C"/>
	<advance width="478"/>
	<outline>
		<contour>
			<point x="16" y="-164" type="line"/>
			<point x="307" y="-64"/>
			<point x="420" y="64"/>
			<point x="420" y="203" type="curve" smooth="yes"/>
			<point x="420" y="280"/>
			<point x="365" y="327"/>
			<point x="277" y="319" type="curve"/>
			<point x="392" y="389"/>
			<point x="452" y="463"/>
			<point x="452" y="552" type="curve" smooth="yes"/>
			<point x="452" y="622"/>
			<point x="405" y="668"/>
			<point x="323" y="668" type="curve" smooth="yes"/>
			<point x="229" y="668"/>
			<point x="165" y="633"/>
			<point x="79" y="561" type="curve"/>
			<point x="114" y="516" type="line"/>
			<point x="184" y="574"/>
			<point x="233" y="601"/>
			<point x="299" y="601" type="curve" smooth="yes"/>
			<point x="344" y="601"/>
			<point x="374" y="571"/>
			<point x="374" y="524" type="curve" smooth="yes"/>
			<point x="374" y="457"/>
			<point x="334" y="400"/>
			<point x="115" y="286" type="curve"/>
			<point x="139" y="238" type="line"/>
			<point x="186" y="264"/>
			<point x="218" y="272"/>
			<point x="253" y="272" type="curve" smooth="yes"/>
			<point x="309" y="272"/>
			<point x="343" y="243"/>
			<point x="343" y="191" type="curve" smooth="yes"/>
			<point x="343" y="107"/>
			<point x="265" y="-9"/>
			<point x="-4" y="-108" type="curve"/>
		</contour>
	</outline>
	<anchor name="aboveUC" x="311" y="678"/>
	<anchor name="belowLC" x="185" y="-157"/>
</glyph>
<glyph name="yogh" format="2">
	<unicode hex="021D"/>
	<advance width="418"/>
	<outline>
		<contour>
			<point x="-2" y="-217" type="line"/>
			<point x="249" y="-120"/>
			<point x="351" y="-22"/>
			<point x="351" y="97" type="curve" smooth="yes"/>
			<point x="351" y="167"/>
			<point x="306" y="205"/>
			<point x="225" y="202" type="curve"/>
			<point x="327" y="264"/>
			<point x="374" y="324"/>
			<point x="374" y="395" type="curve" smooth="yes"/>
			<point x="374" y="457"/>
			<point x="330" y="498"/>
			<point x="257" y="498" type="curve" smooth="yes"/>
			<point x="182" y="498"/>
			<point x="124" y="467"/>
			<point x="47" y="401" type="curve"/>
			<point x="77" y="357" type="line"/>
			<point x="138" y="410"/>
			<point x="184" y="435"/>
			<point x="235" y="435" type="curve" smooth="yes"/>
			<point x="273" y="435"/>
			<point x="297" y="412"/>
			<point x="297" y="375" type="curve" smooth="yes"/>
			<point x="297" y="317"/>
			<point x="261" y="265"/>
			<point x="80" y="173" type="curve"/>
			<point x="102" y="127" type="line"/>
			<point x="142" y="148"/>
			<point x="171" y="155"/>
			<point x="198" y="155" type="curve" smooth="yes"/>
			<point x="244" y="155"/>
			<point x="274" y="130"/>
			<point x="274" y="86" type="curve" smooth="yes"/>
			<point x="274" y="9"/>
			<point x="198" y="-72"/>
			<point x="-20" y="-160" type="curve"/>
		</contour>
	</outline>
	<anchor name="aboveLC" x="241" y="509"/>
	<anchor name="belowLC" x="145" y="-207"/>
</glyph>
<glyph name="Nlong" format="2">
	<unicode hex="0220"/>
	<advance width="624"/>
	<outline>
		<contour>
			<point x="376" y="-184" type="line"/>
			<point x="454" y="-184" type="line"/>
			<point x="568" y="378" type="line" smooth="yes"/>
			<point x="577" y="422"/>
			<point x="581" y="462"/>
			<point x="581" y="498" type="curve" smooth="yes"/>
			<point x="581" y="616"/>
			<point x="518" y="668"/>
			<point x="417" y="668" type="curve" smooth="yes"/>
			<point x="357" y="668"/>
			<point x="283" y="635"/>
			<point x="225" y="576" type="curve"/>
			<point x="239" y="656" type="line"/>
			<point x="166" y="656" type="line"/>
			<point x="35" y="0" type="line"/>
			<point x="113" y="0" type="line"/>
			<point x="212" y="497" type="line"/>
			<point x="274" y="571"/>
			<point x="342" y="601"/>
			<point x="388" y="601" type="curve" smooth="yes"/>
			<point x="457" y="601"/>
			<point x="502" y="567"/>
			<point x="502" y="478" type="curve" smooth="yes"/>
			<point x="502" y="446"/>
			<point x="495" y="409"/>
			<point x="488" y="370" type="curve" smooth="yes"/>
		</contour>
	</outline>
	<anchor name="aboveUC" x="412" y="678"/>
	<anchor name="belowLC" x="221" y="-207"/>
</glyph>
<glyph name="OU" format="2">
	<unicode hex="0222"/>
	<advance width="651"/>
	<outline>
		<contour>
			<point x="288" y="-12" type="curve" smooth="yes"/>
			<point x="485" y="-12"/>
			<point x="602" y="87"/>
			<point x="602" y="220" type="curve" smooth="yes"/>
			<point x="602" y="315"/>
			<point x="543" y="373"/>
			<point x="446" y="397" type="curve"/>
			<point x="443" y="373" type="line"/>
			<point x="536" y="397"/>
			<point x="586" y="450"/>
			<point x="616" y="582" type="curve" smooth="yes"/>
			<point x="632" y="656" type="line"/>
			<point x="556" y="656" type="line"/>
			<point x="541" y="587" type="line" smooth="yes"/>
			<point x="511" y="446"/>
			<point x="454" y="415"/>
			<point x="378" y="415" type="curve" smooth="yes"/>
			<point x="286" y="415"/>
			<point x="242" y="452"/>
			<point x="242" y="539" type="curve" smooth="yes"/>
			<point x="242" y="562"/>
			<point x="243" y="585"/>
			<point x="250" y="614" type="curve" smooth="yes"/>
			<point x="260" y="656" type="line"/>
			<point x="182" y="656" type="line"/>
			<point x="173" y="619" type="line" smooth="yes"/>
			<point x="164" y="587"/>
			<point x="164" y="559"/>
			<point x="164" y="532" type="curve" smooth="yes"/>
			<point x="164" y="452"/>
			<point x="203" y="397"/>
			<point x="289" y="375" type="curve"/>
			<point x="292" y="398" type="line"/>
			<point x="173" y="382"/>
			<point x="48" y="306"/>
			<point x="48" y="173" type="curve" smooth="yes"/>
			<point x="48" y="52"/>
			<point x="148" y="-12"/>
		</contour>
		<contour>
			<point x="296" y="55" type="curve" smooth="yes"/>
			<point x="198" y="55"/>
			<point x="127" y="102"/>
			<point x="127" y="182" type="curve" smooth="yes"/>
			<point x="127" y="281"/>
			<point x="222" y="354"/>
			<point x="357" y="354" type="curve" smooth="yes"/>
			<point x="453" y="354"/>
			<point x="523" y="306"/>
			<point x="523" y="217" type="curve" smooth="yes"/>
			<point x="523" y="125"/>
			<point x="429" y="55"/>
		</contour>
	</outline>
	<anchor name="aboveUC" x="404" y="678"/>
	<anchor name="belowLC" x="281" y="-22"/>
</glyph>
<glyph name="ou" format="2">
	<unicode hex="0223"/>
	<advance width="528"/>
	<outline>
		<contour>
			<point x="229" y="55" type="curve" smooth="yes"/>
			<point x="158" y="55"/>
			<point x="109" y="103"/>
			<point x="109" y="176" type="curve" smooth="yes"/>
			<point x="109" y="255"/>
			<point x="165" y="334"/>
			<point x="252" y="375" type="curve"/>
			<point x="343" y="333"/>
			<point x="387" y="283"/>
			<point x="387" y="206" type="curve" smooth="yes"/>
			<point x="387" y="131"/>
			<point x="324" y="55"/>
		</contour>
		<contour>
			<point x="219" y="-12" type="curve" smooth="yes"/>
			<point x="371" y="-12"/>
			<point x="468" y="101"/>
			<point x="468" y="221" type="curve" smooth="yes"/>
			<point x="468" y="306"/>
			<point x="425" y="359"/>
			<point x="377" y="393" type="curve"/>
			<point x="377" y="397" type="line"/>
			<point x="470" y="449"/>
			<point x="524" y="547"/>
			<point x="524" y="639" type="curve" smooth="yes"/>
			<point x="524" y="666"/>
			<point x="520" y="688"/>
			<point x="508" y="715" type="curve"/>
			<point x="441" y="693" type="line"/>
			<point x="448" y="675"/>
			<point x="452" y="653"/>
			<point x="452" y="633" type="curve" smooth="yes"/>
			<point x="452" y="558"/>
			<point x="415" y="476"/>
			<point x="331" y="421" type="curve"/>
			<point x="240" y="467"/>
			<point x="212" y="510"/>
			<point x="212" y="572" type="curve" smooth="yes"/>
			<point x="212" y="618"/>
			<point x="230" y="660"/>
			<point x="263" y="702" type="curve"/>
			<point x="199" y="724" type="line"/>
			<point x="163" y="680"/>
			<point x="134" y="625"/>
			<point x="134" y="559" type="curve" smooth="yes"/>
			<point x="134" y="491"/>
			<point x="165" y="447"/>
			<point x="210" y="407" type="curve"/>
			<point x="210" y="403" type="line"/>
			<point x="119" y="362"/>
			<point x="30" y="282"/>
			<point x="30" y="160" type="curve" smooth="yes"/>
			<point x="30" y="59"/>
			<point x="106" y="-12"/>
		</contour>
	</outline>
	<anchor name="aboveUC" x="353" y="728"/>
	<anchor name="belowLC" x="213" y="-22"/>
</glyph>
<glyph name="dotlessj" format="1">
	<unicode hex="0237"/>
	<advance width="238"/>
	<outline>
		<contour>
			<point x="-49" y="-217" type="curve" smooth="yes"/>
			<point x="35" y="-217"/>
			<point x="76" y="-154"/>
			<point x="95" y="-61" type="curve" smooth="yes"/>
			<point x="206" y="486" type="line"/>
			<point x="129" y="486" type="line"/>
			<point x="18" y="-62" type="line" smooth="yes"/>
			<point x="5" y="-120"/>
			<point x="-16" y="-154"/>
			<point x="-53" y="-154" type="curve" smooth="yes"/>
			<point x="-74" y="-154"/>
			<point x="-86" y="-149"/>
			<point x="-99" y="-141" type="curve"/>
			<point x="-124" y="-198" type="line"/>
			<point x="-102" y="-210"/>
			<point x="-80" y="-217"/>
		</contour>
		<contour>
			<point name="aboveLC" x="174" y="509" type="move"/>
		</contour>
	</outline>
</glyph>
<glyph name="Astroke" format="2">
	<unicode hex="023A"/>
	<advance width="510"/>
	<outline>
		<contour>
			<point x="124" y="-30" type="line"/>
			<point x="459" y="674" type="line"/>
			<point x="427" y="686" type="line"/>
			<point x="92" y="-17" type="line"/>
		</contour>
		<component base="A"/>
	</outline>
	<anchor name="aboveUC" x="345" y="678"/>
	<anchor name="belowLC" x="217" y="-22"/>
</glyph>
<glyph name="Cstroke" format="2">
	<unicode hex="023B"/>
	<advance width="550"/>
	<outline>
		<contour>
			<point x="145" y="-49" type="line"/>
			<point x="515" y="692" type="line"/>
			<point x="482" y="706" type="line"/>
			<point x="112" y="-35" type="line"/>
		</contour>
		<component base="C"/>
	</outline>
	<anchor name="aboveUC" x="391" y="678"/>
	<anchor name="belowLC" x="264" y="-22"/>
</glyph>
<glyph name="cstroke" format="2">
	<unicode hex="023C"/>
	<advance width="435"/>
	<outline>
		<contour>
			<point x="136" y="-51" type="line"/>
			<point x="414" y="527" type="line"/>
			<point x="382" y="541" type="line"/>
			<point x="104" y="-37" type="line"/>
		</contour>
		<component base="c"/>
	</outline>
	<anchor name="aboveLC" x="300" y="509"/>
	<anchor name="belowLC" x="200" y="-22"/>
</glyph>
<glyph name="Lbar" format="2">
	<unicode hex="023D"/>
	<advance width="482"/>
	<outline>
		<contour>
			<point x="43" y="326" type="line"/>
			<point x="369" y="326" type="line"/>
			<point x="381" y="386" type="line"/>
			<point x="134" y="386" type="line"/>
			<point x="55" y="381" type="line"/>
		</contour>
		<component base="L" xOffset="20"/>
	</outline>
	<anchor name="aboveUC" x="235" y="678"/>
	<anchor name="belowLC" x="244" y="-22"/>
</glyph>
<glyph name="Tstroke" format="2">
	<unicode hex="023E"/>
	<advance width="510"/>
	<outline>
		<contour>
			<point x="3" y="-31" type="line"/>
			<point x="606" y="676" type="line"/>
			<point x="580" y="698" type="line"/>
			<point x="-24" y="-9" type="line"/>
		</contour>
		<component base="T"/>
	</outline>
	<anchor name="aboveUC" x="337" y="678"/>
	<anchor name="belowLC" x="201" y="-22"/>
</glyph>
<glyph name="Glottalstop" format="2">
	<unicode hex="0241"/>
	<advance width="487"/>
	<outline>
		<contour>
			<point x="135" y="0" type="line"/>
			<point x="214" y="0" type="line"/>
			<point x="261" y="233" type="line"/>
			<point x="396" y="282"/>
			<point x="494" y="381"/>
			<point x="494" y="499" type="curve" smooth="yes"/>
			<point x="494" y="611"/>
			<point x="416" y="668"/>
			<point x="313" y="668" type="curve" smooth="yes"/>
			<point x="221" y="668"/>
			<point x="138" y="626"/>
			<point x="81" y="577" type="curve"/>
			<point x="116" y="525" type="line"/>
			<point x="164" y="564"/>
			<point x="230" y="600"/>
			<point x="299" y="600" type="curve" smooth="yes"/>
			<point x="370" y="600"/>
			<point x="414" y="560"/>
			<point x="414" y="485" type="curve" smooth="yes"/>
			<point x="414" y="402"/>
			<point x="349" y="327"/>
			<point x="191" y="274" type="curve"/>
		</contour>
	</outline>
	<anchor name="aboveUC" x="321" y="678"/>
	<anchor name="belowLC" x="171" y="-22"/>
</glyph>
<glyph name="Bstroke" format="2">
	<unicode hex="0243"/>
	<advance width="592"/>
	<outline>
		<contour>
			<point x="53" y="0" type="line"/>
			<point x="263" y="0" type="line" smooth="yes"/>
			<point x="420" y="0"/>
			<point x="536" y="65"/>
			<point x="536" y="213" type="curve" smooth="yes"/>
			<point x="536" y="291"/>
			<point x="484" y="332"/>
			<point x="415" y="348" type="curve"/>
			<point x="415" y="352" type="line"/>
			<point x="488" y="368"/>
			<point x="564" y="426"/>
			<point x="564" y="514" type="curve" smooth="yes"/>
			<point x="564" y="607"/>
			<point x="486" y="656"/>
			<point x="359" y="656" type="curve" smooth="yes"/>
			<point x="184" y="656" type="line"/>
		</contour>
		<contour>
			<point x="9" y="168" type="line"/>
			<point x="315" y="168" type="line"/>
			<point x="329" y="231" type="line"/>
			<point x="100" y="231" type="line"/>
			<point x="22" y="227" type="line"/>
		</contour>
		<contour>
			<point x="143" y="62" type="line"/>
			<point x="196" y="321" type="line"/>
			<point x="310" y="321" type="line" smooth="yes"/>
			<point x="407" y="321"/>
			<point x="460" y="276"/>
			<point x="460" y="212" type="curve" smooth="yes"/>
			<point x="460" y="106"/>
			<point x="380" y="62"/>
			<point x="257" y="62" type="curve" smooth="yes"/>
		</contour>
		<contour>
			<point x="207" y="378" type="line"/>
			<point x="250" y="594" type="line"/>
			<point x="339" y="594" type="line" smooth="yes"/>
			<point x="438" y="594"/>
			<point x="483" y="562"/>
			<point x="483" y="504" type="curve" smooth="yes"/>
			<point x="483" y="430"/>
			<point x="422" y="378"/>
			<point x="299" y="378" type="curve" smooth="yes"/>
		</contour>
	</outline>
</glyph>
<glyph name="Ubar" format="2">
	<unicode hex="0244"/>
	<advance width="653"/>
	<outline>
		<contour>
			<point x="40" y="326" type="line"/>
			<point x="638" y="326" type="line"/>
			<point x="649" y="386" type="line"/>
			<point x="135" y="386" type="line"/>
			<point x="52" y="381" type="line"/>
		</contour>
		<component base="U" xOffset="17"/>
	</outline>
	<anchor name="aboveUC" x="412" y="678"/>
	<anchor name="belowLC" x="276" y="-22"/>
</glyph>
<glyph name="Jstroke" format="2">
	<unicode hex="0248"/>
	<advance width="478"/>
	<outline>
		<contour>
			<point x="188" y="326" type="line"/>
			<point x="462" y="326" type="line"/>
			<point x="474" y="386" type="line"/>
			<point x="319" y="386" type="line"/>
			<point x="200" y="381" type="line"/>
		</contour>
		<component base="J"/>
	</outline>
	<anchor name="aboveUC" x="421" y="678"/>
	<anchor name="belowLC" x="152" y="-22"/>
</glyph>
<glyph name="aturned" format="2">
	<unicode hex="0250"/>
	<advance width="489"/>
	<outline>
		<contour>
			<point x="218" y="-12" type="curve" smooth="yes"/>
			<point x="280" y="-12"/>
			<point x="344" y="13"/>
			<point x="401" y="46" type="curve"/>
			<point x="377" y="98" type="line"/>
			<point x="325" y="69"/>
			<point x="279" y="51"/>
			<point x="233" y="51" type="curve" smooth="yes"/>
			<point x="169" y="51"/>
			<point x="139" y="76"/>
			<point x="139" y="139" type="curve" smooth="yes"/>
			<point x="139" y="152"/>
			<point x="141" y="165"/>
			<point x="146" y="182" type="curve"/>
			<point x="353" y="198"/>
			<point x="469" y="269"/>
			<point x="469" y="394" type="curve" smooth="yes"/>
			<point x="469" y="460"/>
			<point x="423" y="498"/>
			<point x="361" y="498" type="curve" smooth="yes"/>
			<point x="299" y="498"/>
			<point x="236" y="463"/>
			<point x="189" y="423" type="curve"/>
			<point x="186" y="423" type="line"/>
			<point x="191" y="486" type="line"/>
			<point x="128" y="486" type="line"/>
			<point x="72" y="198" type="line" smooth="yes"/>
			<point x="66" y="176"/>
			<point x="64" y="153"/>
			<point x="64" y="135" type="curve" smooth="yes"/>
			<point x="64" y="31"/>
			<point x="121" y="-12"/>
		</contour>
		<contour>
			<point x="154" y="237" type="curve"/>
			<point x="180" y="365" type="line"/>
			<point x="231" y="410"/>
			<point x="281" y="436"/>
			<point x="327" y="436" type="curve" smooth="yes"/>
			<point x="364" y="436"/>
			<point x="394" y="415"/>
			<point x="394" y="370" type="curve" smooth="yes"/>
			<point x="394" y="293"/>
			<point x="302" y="248"/>
		</contour>
	</outline>
	<anchor name="aboveLC" x="314" y="509"/>
	<anchor name="belowLC" x="224" y="-22"/>
	<anchor name="ogonekLC" x="276" y="0"/>
</glyph>
<glyph name="alphalatin" format="1">
	<unicode hex="0251"/>
	<advance width="539"/>
	<outline>
		<contour>
			<point x="179" y="-12" type="curve" smooth="yes"/>
			<point x="240" y="-12"/>
			<point x="301" y="22"/>
			<point x="348" y="72" type="curve"/>
			<point x="352" y="72" type="line"/>
			<point x="348" y="52"/>
			<point x="347" y="44"/>
			<point x="347" y="38" type="curve" smooth="yes"/>
			<point x="352" y="1"/>
			<point x="375" y="-12"/>
			<point x="405" y="-12" type="curve" smooth="yes"/>
			<point x="423" y="-12"/>
			<point x="438" y="-9"/>
			<point x="453" y="-4" type="curve"/>
			<point x="452" y="55" type="line"/>
			<point x="443" y="52"/>
			<point x="440" y="52"/>
			<point x="437" y="52" type="curve" smooth="yes"/>
			<point x="427" y="52"/>
			<point x="422" y="57"/>
			<point x="422" y="67" type="curve" smooth="yes"/>
			<point x="422" y="71"/>
			<point x="422" y="76"/>
			<point x="424" y="86" type="curve" smooth="yes"/>
			<point x="504" y="486" type="line"/>
			<point x="442" y="486" type="line"/>
			<point x="423" y="425" type="line"/>
			<point x="419" y="425" type="line"/>
			<point x="396" y="469"/>
			<point x="354" y="498"/>
			<point x="302" y="498" type="curve" smooth="yes"/>
			<point x="167" y="498"/>
			<point x="39" y="351"/>
			<point x="39" y="164" type="curve" smooth="yes"/>
			<point x="39" y="50"/>
			<point x="94" y="-12"/>
		</contour>
		<contour>
			<point x="207" y="52" type="curve" smooth="yes"/>
			<point x="153" y="52"/>
			<point x="118" y="92"/>
			<point x="118" y="176" type="curve" smooth="yes"/>
			<point x="118" y="310"/>
			<point x="208" y="434"/>
			<point x="305" y="434" type="curve" smooth="yes"/>
			<point x="342" y="434"/>
			<point x="376" y="413"/>
			<point x="404" y="362" type="curve"/>
			<point x="360" y="145" type="line"/>
			<point x="312" y="82"/>
			<point x="258" y="52"/>
		</contour>
		<contour>
			<point name="aboveLC" x="317" y="509" type="move"/>
		</contour>
		<contour>
			<point name="belowLC" x="231" y="-22" type="move"/>
		</contour>
	</outline>
</glyph>
<glyph name="alphalatinturned" format="2">
	<unicode hex="0252"/>
	<advance width="540"/>
	<outline>
		<contour>
			<point x="239" y="-12" type="curve" smooth="yes"/>
			<point x="373" y="-12"/>
			<point x="501" y="135"/>
			<point x="501" y="322" type="curve" smooth="yes"/>
			<point x="501" y="436"/>
			<point x="446" y="498"/>
			<point x="361" y="498" type="curve" smooth="yes"/>
			<point x="300" y="498"/>
			<point x="241" y="463"/>
			<point x="192" y="419" type="curve"/>
			<point x="189" y="419" type="line"/>
			<point x="193" y="435"/>
			<point x="194" y="443"/>
			<point x="194" y="448" type="curve" smooth="yes"/>
			<point x="189" y="485"/>
			<point x="165" y="498"/>
			<point x="135" y="498" type="curve" smooth="yes"/>
			<point x="117" y="498"/>
			<point x="102" y="495"/>
			<point x="87" y="490" type="curve"/>
			<point x="87" y="431" type="line"/>
			<point x="97" y="434"/>
			<point x="100" y="434"/>
			<point x="103" y="434" type="curve" smooth="yes"/>
			<point x="113" y="434"/>
			<point x="117" y="428"/>
			<point x="117" y="419" type="curve" smooth="yes"/>
			<point x="117" y="415"/>
			<point x="117" y="409"/>
			<point x="115" y="400" type="curve"/>
			<point x="35" y="0" type="line"/>
			<point x="100" y="0" type="line"/>
			<point x="119" y="61" type="line"/>
			<point x="122" y="61" type="line"/>
			<point x="145" y="17"/>
			<point x="187" y="-12"/>
		</contour>
		<contour>
			<point x="235" y="53" type="curve" smooth="yes"/>
			<point x="198" y="53"/>
			<point x="165" y="74"/>
			<point x="137" y="125" type="curve"/>
			<point x="184" y="354" type="line"/>
			<point x="229" y="404"/>
			<point x="288" y="433"/>
			<point x="333" y="433" type="curve" smooth="yes"/>
			<point x="387" y="433"/>
			<point x="421" y="393"/>
			<point x="421" y="311" type="curve" smooth="yes"/>
			<point x="421" y="176"/>
			<point x="332" y="53"/>
		</contour>
	</outline>
	<anchor name="aboveLC" x="334" y="509"/>
	<anchor name="belowLC" x="234" y="-22"/>
</glyph>
<glyph name="bhook" format="2">
	<unicode hex="0253"/>
	<advance width="536"/>
	<outline>
		<contour>
			<point x="234" y="-12" type="curve" smooth="yes"/>
			<point x="368" y="-12"/>
			<point x="495" y="134"/>
			<point x="495" y="318" type="curve" smooth="yes"/>
			<point x="495" y="430"/>
			<point x="440" y="491"/>
			<point x="355" y="491" type="curve" smooth="yes"/>
			<point x="295" y="491"/>
			<point x="238" y="458"/>
			<point x="190" y="419" type="curve"/>
			<point x="188" y="419" type="line"/>
			<point x="210" y="515" type="line"/>
			<point x="221" y="570" type="line" smooth="yes"/>
			<point x="235" y="628"/>
			<point x="265" y="661"/>
			<point x="314" y="661" type="curve" smooth="yes"/>
			<point x="341" y="661"/>
			<point x="361" y="654"/>
			<point x="379" y="644" type="curve"/>
			<point x="406" y="698" type="line"/>
			<point x="378" y="715"/>
			<point x="349" y="724"/>
			<point x="309" y="724" type="curve" smooth="yes"/>
			<point x="218" y="724"/>
			<point x="164" y="667"/>
			<point x="143" y="564" type="curve" smooth="yes"/>
			<point x="31" y="0" type="line"/>
			<point x="95" y="0" type="line"/>
			<point x="114" y="61" type="line"/>
			<point x="118" y="61" type="line"/>
			<point x="141" y="17"/>
			<point x="182" y="-12"/>
		</contour>
		<contour>
			<point x="231" y="53" type="curve" smooth="yes"/>
			<point x="193" y="53"/>
			<point x="160" y="74"/>
			<point x="132" y="125" type="curve"/>
			<point x="177" y="347" type="line"/>
			<point x="223" y="396"/>
			<point x="282" y="426"/>
			<point x="327" y="426" type="curve" smooth="yes"/>
			<point x="381" y="426"/>
			<point x="415" y="387"/>
			<point x="415" y="307" type="curve" smooth="yes"/>
			<point x="415" y="174"/>
			<point x="328" y="53"/>
		</contour>
	</outline>
	<anchor name="aboveUC" x="387" y="726"/>
	<anchor name="belowLC" x="234" y="-22"/>
</glyph>
<glyph name="oopen" format="2">
	<unicode hex="0254"/>
	<advance width="439"/>
	<outline>
		<contour>
			<point x="125" y="-12" type="curve" smooth="yes"/>
			<point x="267" y="-12"/>
			<point x="400" y="109"/>
			<point x="400" y="300" type="curve" smooth="yes"/>
			<point x="400" y="426"/>
			<point x="328" y="498"/>
			<point x="231" y="498" type="curve" smooth="yes"/>
			<point x="162" y="498"/>
			<point x="111" y="473"/>
			<point x="68" y="437" type="curve"/>
			<point x="101" y="388" type="line"/>
			<point x="138" y="419"/>
			<point x="170" y="434"/>
			<point x="214" y="434" type="curve" smooth="yes"/>
			<point x="278" y="434"/>
			<point x="321" y="379"/>
			<point x="321" y="291" type="curve" smooth="yes"/>
			<point x="321" y="151"/>
			<point x="234" y="52"/>
			<point x="128" y="52" type="curve" smooth="yes"/>
			<point x="85" y="52"/>
			<point x="50" y="73"/>
			<point x="26" y="102" type="curve"/>
			<point x="-17" y="51" type="line"/>
			<point x="12" y="15"/>
			<point x="62" y="-12"/>
		</contour>
	</outline>
	<anchor name="aboveLC" x="249" y="509"/>
	<anchor name="baseLC" x="145" y="0"/>
	<anchor name="belowLC" x="145" y="-22"/>
</glyph>
<glyph name="ccurl" format="2">
	<unicode hex="0255"/>
	<advance width="449"/>
	<outline>
		<contour>
			<point x="50" y="-70" type="line"/>
			<point x="117" y="62"/>
			<point x="223" y="152"/>
			<point x="290" y="152" type="curve" smooth="yes"/>
			<point x="323" y="152"/>
			<point x="336" y="132"/>
			<point x="334" y="110" type="curve" smooth="yes"/>
			<point x="331" y="79"/>
			<point x="288" y="52"/>
			<point x="236" y="52" type="curve" smooth="yes"/>
			<point x="155" y="52"/>
			<point x="116" y="100"/>
			<point x="116" y="188" type="curve" smooth="yes"/>
			<point x="116" y="321"/>
			<point x="206" y="434"/>
			<point x="303" y="434" type="curve" smooth="yes"/>
			<point x="341" y="434"/>
			<point x="366" y="420"/>
			<point x="390" y="394" type="curve"/>
			<point x="434" y="439" type="line"/>
			<point x="408" y="472"/>
			<point x="366" y="498"/>
			<point x="308" y="498" type="curve" smooth="yes"/>
			<point x="167" y="498"/>
			<point x="37" y="364"/>
			<point x="37" y="183" type="curve" smooth="yes"/>
			<point x="37" y="59"/>
			<point x="112" y="-12"/>
			<point x="221" y="-12" type="curve" smooth="yes"/>
			<point x="318" y="-12"/>
			<point x="393" y="47"/>
			<point x="400" y="119" type="curve" smooth="yes"/>
			<point x="405" y="172"/>
			<point x="371" y="211"/>
			<point x="306" y="211" type="curve" smooth="yes"/>
			<point x="204" y="211"/>
			<point x="90" y="119"/>
			<point x="-5" y="-45" type="curve"/>
		</contour>
	</outline>
	<anchor name="aboveLC" x="294" y="509"/>
	<anchor name="belowLC" x="227" y="-22"/>
</glyph>
<glyph name="dtail" format="2">
	<unicode hex="0256"/>
	<advance width="537"/>
	<outline>
		<contour>
			<point x="399" y="-217" type="curve" smooth="yes"/>
			<point x="425" y="-217"/>
			<point x="455" y="-209"/>
			<point x="471" y="-202" type="curve"/>
			<point x="458" y="-145" type="line"/>
			<point x="448" y="-149"/>
			<point x="436" y="-154"/>
			<point x="422" y="-154" type="curve" smooth="yes"/>
			<point x="398" y="-154"/>
			<point x="389" y="-141"/>
			<point x="389" y="-113" type="curve" smooth="yes"/>
			<point x="389" y="-98"/>
			<point x="390" y="-89"/>
			<point x="394" y="-72" type="curve" smooth="yes"/>
			<point x="551" y="712" type="line"/>
			<point x="474" y="712" type="line"/>
			<point x="436" y="522" type="line"/>
			<point x="420" y="427" type="line"/>
			<point x="417" y="427" type="line"/>
			<point x="393" y="470"/>
			<point x="354" y="498"/>
			<point x="302" y="498" type="curve" smooth="yes"/>
			<point x="167" y="498"/>
			<point x="39" y="351"/>
			<point x="39" y="164" type="curve" smooth="yes"/>
			<point x="39" y="50"/>
			<point x="94" y="-12"/>
			<point x="179" y="-12" type="curve" smooth="yes"/>
			<point x="240" y="-12"/>
			<point x="301" y="22"/>
			<point x="350" y="73" type="curve"/>
			<point x="352" y="73" type="line"/>
			<point x="321" y="-70"/>
			<point x="316" y="-101"/>
			<point x="316" y="-133" type="curve" smooth="yes"/>
			<point x="316" y="-189"/>
			<point x="344" y="-217"/>
		</contour>
		<contour>
			<point x="207" y="52" type="curve" smooth="yes"/>
			<point x="153" y="52"/>
			<point x="118" y="92"/>
			<point x="118" y="176" type="curve" smooth="yes"/>
			<point x="118" y="310"/>
			<point x="208" y="434"/>
			<point x="305" y="434" type="curve" smooth="yes"/>
			<point x="342" y="434"/>
			<point x="376" y="413"/>
			<point x="404" y="362" type="curve"/>
			<point x="360" y="145" type="line"/>
			<point x="311" y="82"/>
			<point x="258" y="52"/>
		</contour>
	</outline>
	<anchor name="aboveUC" x="346" y="728"/>
	<anchor name="belowLC" x="200" y="-88"/>
</glyph>
<glyph name="dhook" format="2">
	<unicode hex="0257"/>
	<advance width="538"/>
	<outline>
		<contour>
			<point x="179" y="-12" type="curve" smooth="yes"/>
			<point x="240" y="-12"/>
			<point x="300" y="22"/>
			<point x="348" y="72" type="curve"/>
			<point x="351" y="72" type="line"/>
			<point x="344" y="0" type="line"/>
			<point x="407" y="0" type="line"/>
			<point x="523" y="572" type="line" smooth="yes"/>
			<point x="536" y="638"/>
			<point x="560" y="661"/>
			<point x="596" y="661" type="curve" smooth="yes"/>
			<point x="608" y="661"/>
			<point x="619" y="658"/>
			<point x="626" y="654" type="curve"/>
			<point x="651" y="712" type="line"/>
			<point x="638" y="718"/>
			<point x="619" y="724"/>
			<point x="599" y="724" type="curve" smooth="yes"/>
			<point x="515" y="724"/>
			<point x="468" y="673"/>
			<point x="449" y="580" type="curve" smooth="yes"/>
			<point x="437" y="519" type="line"/>
			<point x="420" y="427" type="line"/>
			<point x="416" y="427" type="line"/>
			<point x="393" y="470"/>
			<point x="354" y="498"/>
			<point x="302" y="498" type="curve" smooth="yes"/>
			<point x="167" y="498"/>
			<point x="39" y="351"/>
			<point x="39" y="164" type="curve" smooth="yes"/>
			<point x="39" y="50"/>
			<point x="94" y="-12"/>
		</contour>
		<contour>
			<point x="207" y="53" type="curve" smooth="yes"/>
			<point x="153" y="53"/>
			<point x="119" y="92"/>
			<point x="119" y="176" type="curve" smooth="yes"/>
			<point x="119" y="310"/>
			<point x="208" y="433"/>
			<point x="305" y="433" type="curve" smooth="yes"/>
			<point x="342" y="433"/>
			<point x="376" y="413"/>
			<point x="404" y="362" type="curve"/>
			<point x="359" y="145" type="line"/>
			<point x="311" y="82"/>
			<point x="258" y="53"/>
		</contour>
	</outline>
	<anchor name="aboveUC" x="346" y="726"/>
	<anchor name="belowLC" x="211" y="-22"/>
</glyph>
